<svg width="28" height="28" fill="none" xmlns="http://www.w3.org/2000/svg"><path d="M14 2.523c3.738 0 4.181.014 5.658.082 3.794.173 5.566 1.973 5.74 5.739.067 1.476.08 1.92.08 5.657 0 3.74-.014 4.182-.08 5.657-.175 3.763-1.942 5.566-5.74 5.74-1.477.067-1.918.08-5.658.08-3.738 0-4.181-.013-5.657-.08-3.803-.175-5.566-1.983-5.739-5.74-.068-1.477-.082-1.919-.082-5.658 0-3.738.016-4.18.082-5.657.174-3.765 1.941-5.566 5.739-5.739 1.477-.067 1.919-.08 5.657-.08zM14 0c-3.802 0-4.278.016-5.771.084C3.144.317.319 3.138.085 8.227.016 9.722 0 10.197 0 14c0 3.802.016 4.28.084 5.773.233 5.084 3.054 7.91 8.143 8.143 1.495.068 1.97.084 5.773.084 3.802 0 4.28-.016 5.773-.084 5.08-.233 7.912-3.054 8.142-8.143.069-1.494.085-1.97.085-5.773 0-3.802-.016-4.278-.084-5.771-.229-5.08-3.053-7.91-8.142-8.144C18.279.016 17.802 0 14 0zm0 6.811a7.19 7.19 0 100 14.378 7.19 7.19 0 000-14.378zm0 11.856a4.666 4.666 0 11-.001-9.333A4.666 4.666 0 0114 18.667zm7.474-13.82a1.68 1.68 0 10-.001 3.362 1.68 1.68 0 000-3.361z" fill="#fff"/></svg>