<svg width="45" height="26" fill="none" xmlns="http://www.w3.org/2000/svg"><g clip-path="url(#clip0)"><path fill-rule="evenodd" clip-rule="evenodd" d="M6.627.132C3.44.458.777 2.875.142 6.012c-.15.74-.142.25-.142 9.334v8.348h4.391l.008-8.27.007-8.272.055-.232c.34-1.447 1.497-2.394 2.924-2.393 1.424.001 2.549.889 2.93 2.313l.057.209.014 6.208c.017 6.77.007 6.346.159 7.047a7.073 7.073 0 009.232 5.2c2.435-.84 4.227-2.978 4.649-5.548.088-.538.092-.805.092-6.673 0-6.356-.006-6.084.143-6.558a3.18 3.18 0 012.277-2.127c.276-.07 1.1-.085 1.352-.024 1.148.279 1.995 1.032 2.349 2.09.166.497.157.099.157 6.603 0 3.645.01 6.062.026 6.301.31 4.654 5.072 7.596 9.375 5.79 1.97-.826 3.47-2.632 3.94-4.742.164-.743.154-.35.164-6.383l.008-5.49h-4.42v5.25c0 5.594.004 5.47-.13 5.886-.677 2.11-3.71 2.108-4.414-.003-.134-.401-.131-.271-.131-6.674 0-3.925-.01-6.098-.027-6.273-.435-4.388-4.496-7.477-8.835-6.72-3.014.526-5.451 2.875-6.081 5.861-.166.786-.154.294-.17 7.045l-.014 6.143-.057.2c-.516 1.817-2.522 2.585-4.067 1.557-.507-.338-.916-.929-1.09-1.576l-.055-.207-.014-6.22c-.017-6.946 0-6.342-.19-7.181-.816-3.608-4.279-6.08-7.987-5.7z" fill="#fff"/></g><circle cx="42" cy="3" r="3" fill="#fff"/><defs><clipPath id="clip0"><path fill="#fff" d="M0 0h44.308v25.892H0z"/></clipPath></defs></svg>