<svg width="28" height="24" fill="none" xmlns="http://www.w3.org/2000/svg"><path fill-rule="evenodd" clip-rule="evenodd" d="M21.448 23.576c.375.266.86.332 1.291.169.432-.165.75-.533.845-.98C24.598 18 27.057 5.94 27.98 1.606a.911.911 0 00-.303-.884.934.934 0 00-.93-.164C21.855 2.37 6.79 8.022.632 10.3a.965.965 0 00-.632.932.967.967 0 00.692.892c2.761.826 6.386 1.975 6.386 1.975s1.694 5.116 2.577 7.717c.11.327.366.584.704.672a1.01 1.01 0 00.946-.241l3.612-3.41s4.167 3.055 6.53 4.739zM8.603 13.452l1.959 6.461.435-4.091L22.879 5.105a.324.324 0 00.039-.44.332.332 0 00-.439-.075L8.603 13.452z" fill="#fff"/></svg>