<svg width="28" height="28" fill="none" xmlns="http://www.w3.org/2000/svg"><path d="M.067 28l1.968-7.19a13.845 13.845 0 01-1.852-6.937C.187 6.224 6.411 0 14.06 0a13.786 13.786 0 019.815 4.07 13.795 13.795 0 014.06 9.816c-.004 7.65-6.228 13.874-13.876 13.874a13.882 13.882 0 01-6.635-1.69L.067 28zm7.696-4.442c1.956 1.161 3.822 1.857 6.29 1.858 6.357 0 11.534-5.173 11.538-11.533.002-6.372-5.15-11.538-11.528-11.54-6.36 0-11.535 5.173-11.537 11.531-.001 2.596.76 4.54 2.037 6.573l-1.166 4.256 4.366-1.145zm13.285-6.374c-.086-.145-.317-.231-.665-.405-.346-.174-2.051-1.013-2.37-1.128-.317-.116-.548-.174-.78.174-.231.346-.896 1.128-1.098 1.359-.202.23-.405.26-.751.086-.347-.174-1.464-.539-2.789-1.72-1.03-.92-1.726-2.055-1.928-2.403-.202-.346-.021-.534.152-.707.156-.155.346-.405.52-.608.176-.2.233-.345.35-.577.116-.231.058-.434-.03-.608-.087-.173-.78-1.88-1.068-2.574-.282-.675-.568-.584-.78-.595l-.665-.011a1.27 1.27 0 00-.924.434c-.318.347-1.214 1.185-1.214 2.892 0 1.707 1.243 3.355 1.416 3.586.173.231 2.444 3.734 5.921 5.235.828.357 1.474.57 1.977.73.83.264 1.587.227 2.184.138.666-.1 2.05-.839 2.34-1.648.29-.811.29-1.506.202-1.65z" fill="#fff"/></svg>