<svg width="134" height="48" viewBox="0 0 134 48" fill="none" xmlns="http://www.w3.org/2000/svg">
<path fill-rule="evenodd" clip-rule="evenodd" d="M35.6708 0.463288C35.6704 0.485495 35.4449 0.500384 35.1695 0.49616C34.894 0.492063 34.6391 0.517701 34.6028 0.553132C34.5413 0.613151 34.5146 3.59172 34.5529 6.1086C34.5859 8.27373 34.6175 16.695 34.5957 17.469C34.5687 18.4227 34.5622 19.9118 34.5739 22.4265C34.5816 24.0584 34.59 26.6057 34.5926 28.0873C34.5952 29.5687 34.6014 31.5275 34.6063 32.44C34.6127 33.6095 34.5901 34.099 34.5297 34.0984C34.4826 34.098 33.8116 34.1065 33.0385 34.1174C32.2654 34.1283 29.8938 34.1357 27.7683 34.1336C25.6427 34.1315 23.1305 34.1365 22.1858 34.1446C21.241 34.1528 19.0626 34.1629 17.3448 34.1672C15.6272 34.1716 13.4136 34.1789 12.4259 34.1834C11.4382 34.1881 10.0591 34.1931 9.36137 34.1946C8.02213 34.1975 8.04442 34.1912 8.07469 34.5591C8.08004 34.6235 8.04473 34.8409 7.99622 35.0423C7.9477 35.2436 7.9317 35.4478 7.96073 35.496C8.04219 35.6314 8.03038 37.9172 7.94795 37.9667C7.90706 37.9913 7.8979 38.1685 7.92709 38.3725C7.95557 38.5719 7.98382 39.1699 7.99003 39.7017C8.00248 40.7618 8.04938 40.8847 8.44588 40.8943C9.05333 40.909 17.756 40.8719 26.0479 40.8191C27.4435 40.8102 29.5693 40.802 30.7716 40.8007C31.974 40.7994 34.1524 40.7924 35.6124 40.785C37.0725 40.7777 38.9098 40.7725 39.6954 40.7734L41.1235 40.7752L41.1755 40.5807C41.2382 40.3458 41.2346 40.6619 41.2228 36.5214C41.2176 34.6534 41.2113 31.7196 41.209 30.002C41.2067 28.2843 41.1967 26.141 41.187 25.2392C41.1771 24.3373 41.1717 21.9657 41.1748 19.9689C41.1778 17.9722 41.1675 15.7587 41.1518 15.0499C41.1361 14.3413 41.1331 11.8115 41.1451 9.42853C41.1814 2.19427 41.1465 0.621552 40.9483 0.550094C40.7641 0.483657 35.6715 0.399854 35.6708 0.463288ZM23.6255 0.364969C23.5974 0.392329 21.5971 0.407199 19.1805 0.397758C16.7639 0.388317 14.6989 0.380703 14.5915 0.380809C14.4841 0.380787 13.887 0.367437 13.2645 0.350846C12.1929 0.322438 10.0105 0.288513 7.90082 0.26721C7.37649 0.262017 6.91767 0.275616 6.88128 0.297515C6.84489 0.319414 6.6594 0.299555 6.46899 0.253467C6.13119 0.171641 5.68829 0.188241 5.30886 0.297008C5.20101 0.328 5.13944 0.320999 5.16494 0.280714C5.21713 0.198371 1.1988 0.141603 1.11484 0.223562C1.03785 0.298712 0.911713 0.289526 0.960645 0.21225C0.982896 0.177287 0.901254 0.162131 0.779275 0.178527C0.488008 0.217768 0.450672 0.444537 0.500691 1.87115C0.535053 2.85078 0.533674 3.34478 0.495664 3.76443C0.488758 3.8394 0.484643 5.81567 0.486465 8.15594C0.488157 10.4963 0.477903 12.938 0.463477 13.5819C0.449179 14.2259 0.444043 14.8933 0.452176 15.0652C0.46031 15.237 0.449891 16.9112 0.429136 18.7856C0.408254 20.66 0.411557 22.1812 0.436374 22.1663C0.46132 22.1513 0.470768 23.4811 0.457569 25.1212C0.444496 26.7615 0.443356 28.4813 0.45526 28.943C0.469066 29.4797 0.448302 29.7822 0.397631 29.7816C0.295269 29.7804 0.381875 30.8416 0.500027 31.036C0.563735 31.1408 0.561298 31.2051 0.490466 31.2883C0.418985 31.3724 0.396496 32.0814 0.399444 34.1597C0.402457 36.1693 0.379294 36.934 0.31423 36.9731C0.249164 37.0122 0.258374 37.169 0.348558 37.5544C0.418595 37.8536 0.442961 38.1188 0.404847 38.1671C0.294394 38.307 0.365712 40.5796 0.485835 40.7483C0.588892 40.8926 1.69631 40.9215 6.765 40.9113L7.11912 40.9106L7.14569 39.9378C7.16565 39.2058 7.14508 38.9225 7.06277 38.7933C6.96305 38.6371 6.96788 38.618 7.11653 38.581C7.2493 38.548 7.26832 38.5064 7.21788 38.3594C7.18385 38.2599 7.16592 36.8083 7.17813 35.1337C7.20871 30.9693 7.21383 24.0552 7.18633 23.9332C7.13994 23.7264 6.76095 23.7356 14.6602 23.7496C27.1155 23.7717 27.3267 23.7699 27.6783 23.6402C28.0233 23.5129 28.0215 23.5305 27.9902 20.5512C27.9784 19.4346 27.9694 18.2526 27.9702 17.9247L27.9716 17.3283L27.7184 17.2786C27.3849 17.2133 26.2433 17.1971 21.415 17.1891C19.2034 17.1855 15.1585 17.1732 12.4261 17.1618L7.45816 17.1411L7.32562 16.9333C7.25271 16.819 7.19917 16.6338 7.20677 16.5219C7.21438 16.4099 7.21532 16.1425 7.20898 15.9277C7.19488 15.4471 7.20636 14.8991 7.23605 14.6397C7.24832 14.5325 7.24074 13.9879 7.21941 13.4294C7.19796 12.8709 7.18106 12.3788 7.18196 12.336C7.18273 12.293 7.19298 11.7836 7.20471 11.2041C7.21644 10.6246 7.23132 9.60582 7.23783 8.94032C7.24448 8.27482 7.25502 7.67766 7.26129 7.61328C7.26768 7.54902 7.24745 7.41678 7.21633 7.31964C7.17365 7.18611 7.19475 7.13046 7.30244 7.09219C7.3809 7.06429 7.46917 7.00638 7.49854 6.96359C7.55571 6.88015 10.0483 6.90468 10.3101 6.99121C10.3918 7.01824 10.5032 7.00401 10.558 6.95974C10.6211 6.90868 11.0838 6.89487 11.8234 6.92194C12.4647 6.9454 13.2857 6.93822 13.648 6.90597C14.0101 6.87384 14.3417 6.86981 14.3847 6.89713C14.5165 6.98081 15.9143 6.98227 15.9508 6.89859C15.9734 6.8469 15.9864 6.84706 15.9899 6.89906C15.9947 6.97124 16.497 6.98855 18.0252 6.96886C18.3043 6.96535 19.2557 6.97826 20.1393 6.99775C21.023 7.01712 21.7784 7.01502 21.818 6.99291C21.8577 6.97092 22.048 6.96365 22.2411 6.97683C23.0143 7.02959 26.8007 7.06989 28.7928 7.04662C30.4756 7.02689 30.9323 7.04301 31.0289 7.12524C31.1228 7.20501 31.164 7.2073 31.2098 7.13509C31.2518 7.06883 31.5625 7.04898 32.2782 7.06695C33.6685 7.10164 33.7149 7.07896 33.7326 6.35437C33.8034 3.43747 33.7467 0.851187 33.6071 0.632363C33.502 0.467824 29.7987 0.351804 29.139 0.492412C29.0032 0.521407 28.8731 0.51345 28.8499 0.474875C28.8266 0.436297 28.4986 0.410757 28.1209 0.418188C26.4288 0.451082 23.9845 0.425095 23.8377 0.372642C23.7491 0.340934 23.6537 0.337481 23.6255 0.364969Z" fill="white"/>
<path d="M63.112 29V41H61.024V31.016H56.584V41H54.496V31.016H52.576V29H54.496V28.64C54.496 25.472 56.248 23.888 59.752 23.888C60.408 23.888 61.232 23.992 62.224 24.2V26.096C61.248 25.968 60.424 25.904 59.752 25.904C58.664 25.904 57.864 26.112 57.352 26.528C56.84 26.928 56.584 27.632 56.584 28.64V29H63.112ZM72.2866 28.688C73.6946 28.688 74.8226 29.136 75.6706 30.032C76.5186 30.912 76.9426 32.112 76.9426 33.632V41H74.8546V33.752C74.8546 32.776 74.5906 32.024 74.0626 31.496C73.5346 30.952 72.8066 30.68 71.8786 30.68C70.8386 30.68 69.9986 31.008 69.3586 31.664C68.7186 32.304 68.3986 33.296 68.3986 34.64V41H66.3106V29H68.3986V30.728C69.2466 29.368 70.5426 28.688 72.2866 28.688ZM89.7934 29H91.8814V41H89.7934V38.936C88.7534 40.52 87.2414 41.312 85.2574 41.312C83.5774 41.312 82.1454 40.704 80.9614 39.488C79.7774 38.256 79.1854 36.76 79.1854 35C79.1854 33.24 79.7774 31.752 80.9614 30.536C82.1454 29.304 83.5774 28.688 85.2574 28.688C87.2414 28.688 88.7534 29.48 89.7934 31.064V29ZM85.5214 39.296C86.7374 39.296 87.7534 38.888 88.5694 38.072C89.3854 37.24 89.7934 36.216 89.7934 35C89.7934 33.784 89.3854 32.768 88.5694 31.952C87.7534 31.12 86.7374 30.704 85.5214 30.704C84.3214 30.704 83.3134 31.12 82.4974 31.952C81.6814 32.768 81.2734 33.784 81.2734 35C81.2734 36.216 81.6814 37.24 82.4974 38.072C83.3134 38.888 84.3214 39.296 85.5214 39.296ZM101.021 28.688C102.429 28.688 103.557 29.136 104.405 30.032C105.253 30.912 105.677 32.112 105.677 33.632V41H103.589V33.752C103.589 32.776 103.325 32.024 102.797 31.496C102.269 30.952 101.541 30.68 100.613 30.68C99.5729 30.68 98.7329 31.008 98.0929 31.664C97.4529 32.304 97.1329 33.296 97.1329 34.64V41H95.0449V29H97.1329V30.728C97.9809 29.368 99.2769 28.688 101.021 28.688ZM114.232 41.312C112.424 41.312 110.92 40.712 109.72 39.512C108.52 38.296 107.92 36.792 107.92 35C107.92 33.208 108.52 31.712 109.72 30.512C110.92 29.296 112.424 28.688 114.232 28.688C115.416 28.688 116.48 28.976 117.424 29.552C118.368 30.112 119.072 30.872 119.536 31.832L117.784 32.84C117.48 32.2 117.008 31.688 116.368 31.304C115.744 30.92 115.032 30.728 114.232 30.728C113.032 30.728 112.024 31.136 111.208 31.952C110.408 32.768 110.008 33.784 110.008 35C110.008 36.2 110.408 37.208 111.208 38.024C112.024 38.84 113.032 39.248 114.232 39.248C115.032 39.248 115.752 39.064 116.392 38.696C117.032 38.312 117.52 37.8 117.856 37.16L119.632 38.192C119.12 39.136 118.384 39.896 117.424 40.472C116.464 41.032 115.4 41.312 114.232 41.312ZM122.993 35.96C123.201 37.032 123.689 37.864 124.457 38.456C125.241 39.048 126.201 39.344 127.337 39.344C128.921 39.344 130.073 38.76 130.793 37.592L132.569 38.6C131.401 40.408 129.641 41.312 127.289 41.312C125.385 41.312 123.833 40.72 122.633 39.536C121.449 38.336 120.857 36.824 120.857 35C120.857 33.192 121.441 31.688 122.609 30.488C123.777 29.288 125.289 28.688 127.145 28.688C128.905 28.688 130.337 29.312 131.441 30.56C132.561 31.792 133.121 33.28 133.121 35.024C133.121 35.328 133.097 35.64 133.049 35.96H122.993ZM127.145 30.656C126.025 30.656 125.097 30.976 124.361 31.616C123.625 32.24 123.169 33.08 122.993 34.136H131.009C130.833 33 130.385 32.136 129.665 31.544C128.945 30.952 128.105 30.656 127.145 30.656Z" fill="white"/>
</svg>
