<svg width="122" height="122" viewBox="0 0 122 122" fill="none" xmlns="http://www.w3.org/2000/svg">
<path fill-rule="evenodd" clip-rule="evenodd" d="M58.5562 21.6553C32.7715 24.0959 17.2384 51.0107 28.0925 74.4417C39.6123 99.3092 73.5323 103.454 90.7846 82.1021C106.807 62.2728 98.459 32.4017 74.4702 23.7229C69.6045 21.9625 63.5804 21.1798 58.5562 21.6553ZM64.3606 21.6904C87.1545 23.3136 103.107 44.8228 98.0076 67.0588C94.6941 81.507 82.8671 92.7542 68.3323 95.2787C65.9018 95.7011 64.6348 95.8029 61.8261 95.8029C38.869 95.8029 21.4746 75.317 25.2008 52.6686C28.2974 33.8465 45.3729 20.3386 64.3606 21.6904ZM72.4633 39.3279C72.2196 39.4405 71.4241 40.5394 71.3567 40.8563C71.332 40.9728 71.271 41.1146 71.2213 41.1717C70.9532 41.4779 70.5701 42.123 70.5701 42.2687C70.5698 42.3609 70.5122 42.5002 70.442 42.5786C70.2737 42.7659 69.8299 43.8224 69.4813 44.8661C69.3275 45.3267 69.1702 45.7604 69.1317 45.8299C69.0933 45.8995 68.996 46.1898 68.9152 46.475C68.7724 46.9798 68.7612 46.9959 68.4912 47.0801C67.866 47.2753 63.6765 50.9433 63.4758 51.4709C63.4453 51.5514 63.2538 51.7112 63.0506 51.8259C62.8472 51.9406 62.5056 52.2239 62.2915 52.4551C62.0774 52.6866 61.8541 52.8757 61.7953 52.8757C61.7364 52.8757 61.5101 53.0465 61.2923 53.2551C61.0746 53.4638 60.8251 53.7029 60.7375 53.7868C60.4624 54.0506 59.7502 53.3268 59.774 52.8071C59.7847 52.568 59.2702 51.4926 58.9691 51.125C58.3094 50.3201 57.0873 50.6428 55.8261 51.9552C55.6123 52.1776 55.3436 52.4298 55.2286 52.5155C55.1139 52.6012 54.9858 52.7748 54.9441 52.9014C54.9023 53.0276 54.7955 53.1643 54.7065 53.2045C54.6177 53.2451 54.4094 53.4421 54.2438 53.6419C53.5831 54.4404 53.0256 54.9055 53.3828 54.3608C53.4447 54.2662 53.4953 54.1009 53.4953 53.9936C53.4953 53.8862 53.5243 53.7691 53.5597 53.7331C53.6185 53.673 53.9302 52.8666 54.2236 52.0153C54.2886 51.8259 54.381 51.5935 54.4283 51.499C54.6308 51.0939 54.901 49.6528 54.8327 49.3417C54.765 49.033 54.2959 48.5618 54.0016 48.5066C53.2906 48.3733 52.6081 48.936 50.2791 51.5764C49.5901 52.3572 48.9786 53.0148 48.92 53.0374C48.8614 53.0596 48.8136 53.1075 48.8136 53.1435C48.8136 53.1792 48.4262 53.6004 47.9528 54.0793C47.3252 54.7146 47.0924 54.9955 47.0924 55.1178C47.0924 55.2102 47.0622 55.2855 47.025 55.2855C46.7816 55.2855 46.6987 55.8452 46.9293 55.9337C47.1602 56.0221 49.0981 54.6917 49.6346 54.0759C49.7642 53.9271 49.9549 53.7535 50.058 53.6901C50.161 53.6266 50.4575 53.3213 50.7168 53.0118C51.525 52.0464 52.0993 51.9311 51.8672 52.7809C51.8065 53.0035 51.7324 53.3097 51.7025 53.461C51.6726 53.6126 51.5988 53.8758 51.5381 54.0463C50.9049 55.8263 50.6137 57.3867 50.8479 57.7444C50.9748 57.9378 51.5576 57.9647 51.9657 57.796C52.2973 57.6584 54.3158 55.5631 54.632 55.0275C54.7028 54.9076 54.8498 54.7725 54.9587 54.7274C55.0676 54.6822 55.2835 54.4953 55.4385 54.3114C55.5934 54.1278 55.7474 53.9774 55.7807 53.9774C55.8139 53.9774 56.0433 53.8225 56.2903 53.6334C56.8524 53.2024 57.0037 53.1948 57.3386 53.5803C57.478 53.7407 57.6924 53.9673 57.8156 54.0844C57.9385 54.2013 58.0392 54.3525 58.0392 54.4203C58.0392 54.8149 58.7834 55.7851 59.2589 56.0108C59.7853 56.2606 60.564 55.9154 61.4878 55.0226C62.2525 54.2839 62.2217 54.2821 61.9612 55.0501C61.389 56.7364 61.6803 57.4727 62.8756 57.3629L63.5313 57.3025L64.116 56.7932C64.4375 56.5132 64.8248 56.1844 64.9767 56.0627C65.1289 55.941 65.4419 55.6 65.6727 55.3054C65.9033 55.0104 66.2922 54.5679 66.5371 54.3217C66.782 54.0753 67.034 53.7505 67.0971 53.5992C67.1602 53.4482 67.2783 53.2591 67.3591 53.1795C67.503 53.0371 67.8892 52.5768 68.0554 52.3499C68.157 52.2111 68.1792 52.2441 68.3659 52.8095C68.4464 53.0545 68.5571 53.3369 68.612 53.4375C68.6666 53.5385 68.6925 53.6696 68.6697 53.7297C68.6465 53.7895 68.6971 53.9551 68.7819 54.0973C68.8667 54.2397 68.9969 54.4645 69.0714 54.5972C69.366 55.1233 69.7869 55.4182 70.5027 55.6006C70.7479 55.6628 70.9733 55.7571 71.0035 55.8095C71.0914 55.962 71.2564 55.919 71.8435 55.5911C72.1464 55.4216 72.5026 55.2288 72.6353 55.1623C72.768 55.0955 73.0156 54.9494 73.1861 54.8372C73.3566 54.7249 73.5771 54.5972 73.6762 54.5532C73.7757 54.5093 73.8989 54.3788 73.9501 54.2626C74.0014 54.1467 74.1038 54.0427 74.1777 54.0317C74.2512 54.0207 74.3616 53.9216 74.4223 53.8115C74.6718 53.3598 74.9289 53.4656 75.3263 54.1839C75.3995 54.3166 75.487 54.4715 75.5206 54.5282C75.5541 54.585 75.6365 54.771 75.7033 54.9412C75.7701 55.1117 75.8817 55.3026 75.9512 55.3654C76.0208 55.4283 76.0778 55.5131 76.0778 55.5536C76.0778 55.7013 76.5317 56.2387 76.7757 56.3799C77.7337 56.9344 78.8463 56.3631 80.9953 54.2132C82.7314 52.4762 82.8781 51.5935 81.2579 52.6342C80.8752 52.88 80.4826 53.1173 80.3853 53.1618C80.288 53.206 80.2087 53.2661 80.2087 53.2957C80.2087 53.389 79.434 54.1153 79.3346 54.1153C79.2821 54.1153 79.1498 54.1814 79.0403 54.2623C78.569 54.6106 78.0268 54.4038 77.8029 53.7904C77.723 53.5714 77.6287 53.3302 77.5931 53.2545C77.5577 53.1789 77.4668 52.683 77.3911 52.1529C77.3158 51.6228 77.2191 51.09 77.1767 50.9686C76.9663 50.3686 75.6118 50.1588 75.2668 50.6727C75.1778 50.8051 75.0353 50.9503 74.9502 50.9951C74.8654 51.0399 74.6117 51.3172 74.3869 51.6115C72.6597 53.8703 71.5348 54.3907 70.8593 53.2436C70.7568 53.0694 70.6028 52.8202 70.517 52.69C70.4313 52.5598 70.3777 52.4265 70.3978 52.3935C70.4182 52.3609 70.4008 52.1849 70.3597 52.0025C70.0452 50.616 70.1517 49.1611 70.6421 48.1458C70.8397 47.7368 71.006 47.2961 71.0121 47.1661C71.0179 47.0365 71.0633 46.9166 71.113 46.9002C71.2158 46.8657 71.5321 46.2231 71.533 46.0462C71.5333 45.9818 71.6224 45.7958 71.731 45.6329C71.9926 45.2398 72.2223 44.6038 72.2223 44.2714C72.2223 44.1235 72.251 43.9847 72.286 43.963C72.3211 43.9414 72.3861 43.8078 72.4306 43.6663C72.4748 43.525 72.5709 43.2817 72.6438 43.1258C72.7167 42.9699 72.8189 42.6448 72.871 42.403C72.9232 42.1611 73.0162 41.846 73.0778 41.7027C73.2819 41.2284 73.4521 39.5893 73.3197 39.3752C73.2538 39.2682 72.6624 39.2355 72.4633 39.3279ZM47.9294 40.827C47.8028 40.8569 47.6649 40.9158 47.6231 40.9576C47.581 40.9996 47.4468 41.0338 47.3249 41.0338C46.6618 41.0338 45.5638 42.7113 45.4549 43.891C45.4375 44.0804 45.3832 44.2817 45.3344 44.3385C45.2197 44.4718 44.9523 45.6006 44.9599 45.9187C44.9632 46.0532 44.9169 46.357 44.8571 46.594C44.7144 47.16 44.7839 47.6672 45.0087 47.6996C45.1752 47.7234 45.1975 47.8057 45.2679 48.6487C45.2911 48.9272 45.2783 49.2087 45.2383 49.3027C45.1417 49.5302 44.7442 53.3951 44.7632 53.9258C44.7714 54.1625 44.7412 54.523 44.6961 54.7271C44.5686 55.3014 44.5869 57.3745 44.7214 57.6349C44.79 57.7676 44.8129 57.9171 44.7842 58.0476C44.7183 58.3474 44.8794 58.9315 45.1087 59.224L45.3088 59.4787L44.9022 59.9813C43.4791 61.7403 41.1715 65.9526 41.1715 66.791C41.1715 66.8755 41.1297 66.9936 41.0791 67.0533C40.9333 67.2245 40.3236 69.2402 40.3669 69.4064C40.3882 69.4879 40.3477 69.7133 40.2766 69.9072C40.2055 70.1015 40.115 70.384 40.0753 70.5355C40.0198 70.7457 39.9109 70.8845 39.6163 71.1208C39.4037 71.2913 39.1942 71.4697 39.1505 71.5173C39.1072 71.5652 38.7385 71.9498 38.3313 72.3722C37.9244 72.7944 37.5914 73.1954 37.5914 73.2631C37.5914 73.3312 37.5139 73.4638 37.4191 73.5587C37.2138 73.764 37.2028 73.8823 37.3751 74.0382C37.5472 74.1937 37.7296 74.1196 38.4414 73.6047C38.7501 73.3815 39.142 73.1271 39.3125 73.0396C39.483 72.952 39.6687 72.8239 39.7255 72.7547C39.8182 72.6419 39.8289 72.7816 39.8289 74.0952C39.8289 76.2515 40.1778 76.7725 41.4149 76.462C41.8211 76.3601 43.2507 74.6973 43.5517 73.9765C43.6066 73.8448 43.681 73.7371 43.7167 73.7371C43.7524 73.7371 43.9561 73.5184 44.1693 73.2513C44.6238 72.6818 44.6854 72.6757 45.0267 73.1683C45.3918 73.6947 45.5641 73.8582 45.9527 74.0464C46.6127 74.3663 47.9617 74.1931 48.2755 73.7481C48.3253 73.6773 48.6302 73.4019 48.9529 73.136C49.2756 72.8703 49.6212 72.5482 49.7203 72.4204C49.953 72.1206 50.0143 72.1895 49.9222 72.6474C49.8286 73.1125 49.9189 74.3105 50.0692 74.599C50.4221 75.2758 51.3676 75.6827 52.1042 75.4753C52.2445 75.4357 52.5141 75.3673 52.7035 75.3231C52.8929 75.2792 53.1128 75.1819 53.1927 75.1072C53.2724 75.0325 53.4953 74.9461 53.6881 74.9159C53.9665 74.8717 54.1346 74.7827 54.5079 74.481C54.7662 74.2724 55.0767 74.0504 55.1981 73.9875C55.3195 73.9247 55.4558 73.8039 55.5007 73.7191C55.5458 73.6343 55.845 73.286 56.1659 72.9453C56.4867 72.6043 56.8064 72.1932 56.8762 72.0316C56.9458 71.8699 57.047 71.7205 57.101 71.7C57.3792 71.5933 57.9706 69.9783 57.9706 69.3256C57.9706 67.8262 56.226 66.806 54.7818 67.4608C54.2471 67.7036 54.2398 67.6945 54.572 67.2013C54.919 66.6858 54.708 66.4403 54.0117 66.5492C53.502 66.6288 52.5318 67.2946 52.5312 67.5648C52.5312 67.6085 52.3927 67.7314 52.2238 67.8381C52.0545 67.9452 51.6903 68.2825 51.4149 68.5878C51.1392 68.8934 50.6268 69.4217 50.2766 69.7624C49.9265 70.1027 49.6398 70.416 49.6398 70.4584C49.6398 70.5355 49.3095 70.8896 48.4692 71.7125C47.5673 72.5961 46.781 71.9974 46.3998 70.1366C46.1753 69.0407 46.089 68.9541 45.4332 69.1658C44.9251 69.3299 44.6491 69.5553 44.4432 69.9743C44.3474 70.1695 44.2074 70.4221 44.1321 70.5355C44.0568 70.6493 43.9949 70.8103 43.9946 70.8936C43.9942 70.9769 43.9522 71.0699 43.9006 71.1001C43.8491 71.1303 43.5508 71.6354 43.2382 72.2225C41.865 74.7991 41.5485 74.8244 41.9199 72.3271C42.1816 70.5676 42.1121 70.7085 43.6377 68.8501C44.1532 68.2224 45.4534 66.4851 45.5241 66.3299C45.5644 66.2414 45.7245 66.0322 45.8801 65.8645C46.2028 65.5165 47.1263 64.0235 47.1989 63.7325C47.2254 63.6261 47.3361 63.473 47.445 63.3924C47.5725 63.2982 47.6436 63.1832 47.6445 63.0697C47.6451 62.9728 47.7329 62.7647 47.8394 62.6077C47.9461 62.4503 48.1514 61.9855 48.296 61.5749C48.4405 61.1641 48.5967 60.7813 48.6431 60.7246C48.7519 60.591 48.97 59.9234 48.9917 59.6574C49.0008 59.5439 49.0722 59.2804 49.1497 59.0721C49.7365 57.4995 48.45 56.6727 47.0625 57.731L46.8268 57.9107L46.7704 57.5791C46.6868 57.0896 46.7036 55.298 46.7999 54.3907C46.8463 53.9551 46.9332 53.0566 46.9933 52.3938C47.0534 51.7314 47.1293 51.003 47.162 50.7761C47.2776 49.9706 47.3648 49.3231 47.4307 48.7793C47.4673 48.4764 47.5771 47.8731 47.6747 47.4385C47.7723 47.0042 47.8479 46.5549 47.8433 46.4402C47.8385 46.3256 47.93 45.9779 48.0468 45.6677C48.324 44.9296 48.4997 44.0408 48.6757 42.4887C48.8749 40.7309 48.823 40.6156 47.9294 40.827ZM77.73 43.0187C77.3655 43.1926 77.0334 43.4598 76.9669 43.633C76.9282 43.7334 76.8498 43.788 76.7439 43.788C76.356 43.788 75.527 44.9137 75.527 45.4401C75.527 46.4445 76.3731 46.697 77.5107 46.0324C77.9106 45.7988 78.3498 45.2141 78.3498 44.9149C78.3498 44.85 78.3961 44.7457 78.4528 44.6831C78.5611 44.5633 78.8317 43.6007 78.8317 43.3344C78.8317 42.9541 78.2281 42.7815 77.73 43.0187ZM68.4031 48.7415C68.3808 48.7774 68.3366 49.0794 68.3046 49.4128C68.2485 49.9971 68.2308 50.0441 67.8004 50.7416C67.2139 51.6917 67.0346 51.9534 66.7149 52.3252C65.8411 53.3418 65.4751 53.7907 65.4751 53.8459C65.4751 53.8804 65.4403 53.9085 65.3982 53.9085C65.3558 53.9085 65.0691 54.1747 64.7614 54.4995C63.9144 55.3935 63.7073 55.2154 64.3271 54.1265C64.4851 53.849 64.6543 53.5391 64.7028 53.4382C64.8401 53.1536 64.9368 52.9916 65.2308 52.5561C65.3802 52.3344 65.5507 52.0708 65.6093 51.9702C65.6679 51.8695 65.9637 51.4718 66.2669 51.0863C66.5697 50.7005 66.8641 50.3024 66.9208 50.2018C66.9775 50.1011 67.066 49.992 67.1172 49.9596C67.2993 49.8443 67.9502 49.12 68.0697 48.8998C68.1387 48.7732 68.246 48.6762 68.3174 48.6762C68.3869 48.6762 68.4254 48.7055 68.4031 48.7415ZM47.8162 59.8148C47.7326 60.2601 46.3266 63.2036 45.8907 63.846C45.7944 63.9881 45.7154 64.1199 45.7154 64.1388C45.7154 64.1574 45.5992 64.3343 45.457 64.5316C45.3146 64.7286 45.1676 64.9397 45.1298 65.0007C45.0922 65.0617 44.7976 65.4643 44.4752 65.8959C44.1529 66.3271 43.7088 66.9323 43.4883 67.2406C43.268 67.549 43.0039 67.8814 42.902 67.9793L42.7163 68.1571L42.9512 67.4187C43.0805 67.0125 43.337 66.3278 43.5215 65.8971C43.7057 65.4664 43.8564 65.0846 43.8564 65.0489C43.8564 65.0129 43.9049 64.9348 43.9644 64.8757C44.0434 64.7967 44.0601 64.6975 44.0272 64.5029C43.9851 64.2535 44.004 64.2147 44.3514 63.8411C44.5542 63.6227 44.7946 63.3046 44.8858 63.1344C44.977 62.9639 45.2097 62.6077 45.4037 62.3426C45.5973 62.0776 46.0018 61.4889 46.3025 61.0345C47.2507 59.6019 47.9638 59.0273 47.8162 59.8148ZM79.9159 65.78C79.639 65.8788 79.176 66.2024 79.176 66.297C79.176 66.3287 79.0598 66.4092 78.9177 66.4763C78.3729 66.7328 76.8086 68.5012 76.9394 68.7129C76.9593 68.7449 76.8998 68.8467 76.8074 68.9392C76.6268 69.1194 76.3941 69.7871 76.2907 70.4199C76.1949 71.0074 76.1153 71.1571 75.7743 71.3917C75.6032 71.5094 75.4388 71.6445 75.4089 71.6921C75.0371 72.2832 74.4378 72.0563 73.9358 71.1343C73.7769 70.8427 73.6094 70.5578 73.5631 70.5011C73.5167 70.4443 73.442 70.2827 73.3969 70.1421C73.1934 69.5086 72.3849 68.883 71.9094 68.991C71.7596 69.0252 71.5559 69.0685 71.4571 69.0877C71.1078 69.1545 70.449 69.6788 69.5163 70.6322C68.5407 71.6296 68.4415 71.6753 68.6785 71.0174C68.8557 70.5246 69.1348 68.6387 69.1467 67.8503C69.1635 66.7703 69.1571 66.7627 68.3107 66.824C67.4759 66.8844 67.4854 66.8783 66.2623 68.1944C65.0539 69.4949 63.754 70.7865 63.5063 70.9333C63.4218 70.9833 63.4865 70.4562 63.6015 70.157C63.6381 70.0622 63.689 69.8145 63.7149 69.6062C63.7409 69.3979 63.8101 69.0005 63.8693 68.7229C64.2154 67.0954 63.5182 66.6883 62.1527 67.7207C61.6815 68.0766 59.0045 70.7664 59.0036 70.8841C59.0033 70.9244 58.8435 71.1102 58.6483 71.2971C57.6354 72.2676 56.9381 73.0256 56.9378 73.1561C56.9378 73.2342 56.8433 73.3885 56.7283 73.4989C56.4547 73.7609 56.4666 74.0363 56.753 74.069C56.9467 74.0912 57.0086 74.0595 57.5228 73.6712C57.6744 73.5569 57.9224 73.405 58.0737 73.3339C58.2252 73.2628 58.5659 72.9829 58.831 72.7114C59.096 72.44 59.4562 72.1289 59.631 72.02C59.9494 71.8214 60.1922 71.5442 60.298 71.2578C60.3782 71.0409 61.0663 70.8125 61.1639 70.9702C61.1831 71.001 61.1075 71.3169 60.9959 71.6726C60.8845 72.0279 60.7933 72.3921 60.7933 72.4817C60.7933 72.5711 60.7595 72.7077 60.718 72.7852C60.5551 73.0896 60.1736 74.6353 60.1736 74.991C60.1736 75.235 60.3426 75.3207 60.8248 75.3207C61.2746 75.3207 61.5208 75.1325 62.2659 74.2196C62.4974 73.9363 62.8698 73.5178 63.0937 73.2903C63.3178 73.0628 63.5521 72.7925 63.6143 72.6904C63.8324 72.3326 65.616 70.5923 66.0869 70.2778C66.8497 69.7685 66.8079 70.6899 65.9238 73.8567C65.4925 75.4009 65.577 75.7825 66.3337 75.7132C66.721 75.6778 66.9495 75.471 67.6964 74.4783C67.9111 74.1934 68.1326 73.9424 68.1893 73.9207C68.2457 73.8991 68.5092 73.5871 68.7749 73.2275C69.1022 72.784 69.3751 72.4961 69.6213 72.3335C69.821 72.2014 70.1209 71.9986 70.2877 71.8827C70.7998 71.5259 71.4507 71.758 72.05 72.5119C72.6338 73.2458 72.9079 73.5157 73.2858 73.7292C73.4859 73.842 73.6692 73.9848 73.6927 74.0467C73.8101 74.352 75.1445 73.8295 75.6966 73.2622C76.1043 72.8429 76.1181 72.8401 76.1788 73.164C76.2748 73.6764 76.9443 74.722 77.2347 74.8138C77.299 74.8342 77.4753 74.9178 77.6269 74.9995C77.8743 75.1334 78.0072 75.1484 78.935 75.1484H79.9678L80.4841 74.8918C81.0514 74.61 81.7066 74.1629 81.8017 73.9927C81.8353 73.9329 82.187 73.6334 82.5835 73.3275C82.98 73.0216 83.3746 72.6757 83.4603 72.5589C83.5463 72.4421 83.7019 72.3024 83.8059 72.2484C83.9102 72.1941 83.9953 72.0953 83.9953 72.0288C83.9953 71.962 84.1484 71.7565 84.3357 71.5719C84.7859 71.1288 85.0323 70.5871 84.8463 70.451C84.6916 70.3379 84.4293 70.391 84.232 70.5752C84.1536 70.6481 84.0542 70.7076 84.0106 70.7076C83.9669 70.7076 83.8294 70.7951 83.7052 70.9018C83.5808 71.0086 83.3707 71.1391 83.238 71.1922C83.1053 71.2453 82.904 71.3731 82.7906 71.4765C82.6768 71.5795 82.3593 71.8544 82.0848 72.0871C81.8103 72.3198 81.5855 72.5549 81.5855 72.6098C81.5855 72.6733 81.5291 72.7023 81.4306 72.6897C81.3455 72.6788 80.9968 72.8093 80.6562 72.9798C79.5774 73.519 78.7771 73.3403 78.3504 72.4644C78.024 71.7946 78.1872 71.4887 79.2105 70.8527C79.5106 70.6661 80.3914 69.852 80.7361 69.4424C81.5016 68.5332 81.6544 68.334 81.6544 68.2462C81.6544 68.1944 81.7356 67.9802 81.8347 67.7707C82.4487 66.4729 81.3037 65.2847 79.9159 65.78ZM79.9333 68.108C79.9333 68.5027 79.7256 68.8632 79.2937 69.2182C79.0696 69.4028 78.8268 69.6544 78.7539 69.7776C78.634 69.9813 78.1954 70.1634 78.0868 70.0549C77.9075 69.8752 78.7267 68.7519 79.4746 68.1523C79.8796 67.8274 79.9333 67.8223 79.9333 68.108ZM55.3842 69.3588C55.9673 69.6025 56.1018 70.1997 55.7651 71.0519C55.6532 71.3359 55.5611 71.6189 55.5611 71.6808C55.5605 71.9754 54.1995 73.2339 53.5292 73.5599C52.7853 73.9216 52.6791 73.936 52.4147 73.7088C52.1134 73.4495 52.1704 72.0059 52.5053 71.4182C52.5953 71.2602 52.6691 71.0507 52.6691 70.9528C52.6691 70.785 52.684 70.7774 52.9347 70.8174C53.1839 70.8573 53.2141 70.8421 53.4337 70.5691C54.4326 69.3265 54.7842 69.1081 55.3842 69.3588Z" fill="white"/>
<path fill-rule="evenodd" clip-rule="evenodd" d="M59.2099 21.6921C37.3441 23.3156 21.6074 43.2772 25.2085 64.8212C27.8989 80.917 40.7394 93.3555 56.9035 95.524C58.6545 95.7589 59.4344 95.8031 61.8262 95.8031C82.4503 95.8031 98.8989 79.3535 98.8989 58.7282C98.8989 37.1647 80.6145 20.1024 59.2099 21.6921ZM73.3198 39.3754C73.4522 39.5895 73.282 41.2285 73.0779 41.7028C73.0163 41.8462 72.9233 42.1612 72.8712 42.4031C72.819 42.645 72.7168 42.9701 72.6439 43.1259C72.571 43.2818 72.475 43.5252 72.4307 43.6664C72.3862 43.8079 72.3212 43.9415 72.2862 43.9632C72.2511 43.9848 72.2224 44.1236 72.2224 44.2715C72.2224 44.604 71.9928 45.2399 71.7311 45.633C71.6225 45.7959 71.5334 45.982 71.5331 46.0463C71.5322 46.2232 71.2159 46.8659 71.1131 46.9003C71.0634 46.9168 71.018 47.0367 71.0122 47.1663C71.0061 47.2962 70.8399 47.7369 70.6422 48.1459C70.1518 49.1613 70.0453 50.6161 70.3598 52.0027C70.401 52.1851 70.4183 52.361 70.3979 52.3937C70.3778 52.4266 70.4315 52.5599 70.5172 52.6901C70.6029 52.8204 70.7569 53.0696 70.8594 53.2437C71.535 54.3908 72.6598 53.8705 74.387 51.6117C74.6118 51.3173 74.8656 51.0401 74.9503 50.9953C75.0354 50.9504 75.1779 50.8052 75.2669 50.6729C75.6119 50.1589 76.9664 50.3688 77.1768 50.9687C77.2192 51.0901 77.3159 51.6229 77.3913 52.153C77.4669 52.6831 77.5578 53.1791 77.5932 53.2547C77.6289 53.3303 77.7231 53.5716 77.803 53.7906C78.0269 54.4039 78.5692 54.6107 79.0404 54.2624C79.1499 54.1816 79.2823 54.1154 79.3347 54.1154C79.4341 54.1154 80.2088 53.3892 80.2088 53.2959C80.2088 53.2663 80.2881 53.2062 80.3854 53.162C80.4827 53.1174 80.8753 52.8802 81.258 52.6343C82.8782 51.5937 82.7315 52.4763 80.9954 54.2133C78.8464 56.3633 77.7338 56.9345 76.7758 56.38C76.5318 56.2388 76.0779 55.7014 76.0779 55.5538C76.0779 55.5132 76.0209 55.4284 75.9513 55.3656C75.8818 55.3028 75.7702 55.1118 75.7034 54.9413C75.6366 54.7712 75.5542 54.5851 75.5207 54.5284C75.4871 54.4716 75.3996 54.3167 75.3264 54.184C74.929 53.4658 74.6719 53.3599 74.4224 53.8116C74.3617 53.9217 74.2513 54.0209 74.1778 54.0318C74.104 54.0428 74.0015 54.1468 73.9502 54.2627C73.899 54.3789 73.7758 54.5095 73.6764 54.5534C73.5772 54.5973 73.3567 54.7251 73.1862 54.8373C73.0157 54.9496 72.7681 55.0957 72.6354 55.1625C72.5027 55.229 72.1465 55.4217 71.8436 55.5913C71.2565 55.9192 71.0915 55.9622 71.0036 55.8097C70.9734 55.7572 70.748 55.663 70.5028 55.6008C69.787 55.4184 69.3661 55.1234 69.0715 54.5973C68.997 54.4646 68.8668 54.2398 68.782 54.0974C68.6972 53.9553 68.6466 53.7897 68.6698 53.7299C68.6927 53.6698 68.6667 53.5387 68.6121 53.4377C68.5572 53.337 68.4465 53.0546 68.366 52.8097C68.1793 52.2442 68.1571 52.2113 68.0555 52.3501C67.8893 52.577 67.5032 53.0372 67.3592 53.1797C67.2784 53.2593 67.1603 53.4484 67.0972 53.5993C67.0341 53.7506 66.7821 54.0755 66.5372 54.3219C66.2923 54.568 65.9034 55.0106 65.6728 55.3055C65.442 55.6001 65.129 55.9411 64.9768 56.0628C64.825 56.1845 64.4376 56.5133 64.1161 56.7933L63.5314 57.3027L62.8757 57.363C61.6804 57.4728 61.3891 56.7366 61.9613 55.0502C62.2218 54.2822 62.2526 54.2841 61.4879 55.0228C60.5641 55.9155 59.7854 56.2608 59.259 56.011C58.7835 55.7853 58.0393 54.8151 58.0393 54.4204C58.0393 54.3527 57.9387 54.2014 57.8157 54.0846C57.6925 53.9675 57.4781 53.7409 57.3387 53.5804C57.0038 53.1949 56.8526 53.2025 56.2904 53.6335C56.0434 53.8226 55.814 53.9775 55.7808 53.9775C55.7475 53.9775 55.5935 54.1279 55.4386 54.3115C55.2836 54.4954 55.0677 54.6824 54.9588 54.7275C54.8499 54.7727 54.7029 54.9078 54.6322 55.0277C54.3159 55.5632 52.2974 57.6586 51.9658 57.7961C51.5578 57.9648 50.9749 57.938 50.848 57.7446C50.6138 57.3868 50.9051 55.8265 51.5382 54.0465C51.5989 53.876 51.6727 53.6128 51.7026 53.4612C51.7325 53.3099 51.8066 53.0037 51.8673 52.781C52.0994 51.9313 51.5251 52.0466 50.7169 53.0119C50.4576 53.3215 50.1612 53.6268 50.0581 53.6902C49.955 53.7537 49.7644 53.9272 49.6347 54.0761C49.0982 54.6919 47.1603 56.0223 46.9294 55.9338C46.6988 55.8454 46.7818 55.2857 47.0252 55.2857C47.0624 55.2857 47.0926 55.2104 47.0926 55.1179C47.0926 54.9956 47.3253 54.7147 47.953 54.0794C48.4263 53.6006 48.8137 53.1794 48.8137 53.1437C48.8137 53.1077 48.8616 53.0598 48.9201 53.0375C48.9787 53.015 49.5902 52.3574 50.2792 51.5766C52.6082 48.9362 53.2908 48.3735 54.0017 48.5068C54.296 48.562 54.7651 49.0332 54.8328 49.3419C54.9012 49.653 54.6309 51.0941 54.4284 51.4991C54.3811 51.5937 54.2887 51.8261 54.2238 52.0155C53.9304 52.8667 53.6186 53.6732 53.5598 53.7332C53.5244 53.7692 53.4954 53.8863 53.4954 53.9937C53.4954 54.1011 53.4448 54.2664 53.3829 54.3609C53.0257 54.9057 53.5833 54.4405 54.2439 53.642C54.4095 53.4423 54.6178 53.2452 54.7066 53.2047C54.7956 53.1644 54.9024 53.0278 54.9442 52.9015C54.986 52.7749 55.1141 52.6014 55.2287 52.5157C55.3437 52.43 55.6124 52.1777 55.8262 51.9554C57.0874 50.643 58.3095 50.3203 58.9693 51.1252C59.2703 51.4927 59.7848 52.5681 59.7742 52.8073C59.7504 53.327 60.4625 54.0507 60.7376 53.7869C60.8252 53.703 61.0747 53.4639 61.2924 53.2553C61.5102 53.0467 61.7365 52.8759 61.7954 52.8759C61.8543 52.8759 62.0775 52.6868 62.2916 52.4553C62.5057 52.2241 62.8473 51.9408 63.0508 51.8261C63.2539 51.7114 63.4454 51.5516 63.4759 51.4711C63.6766 50.9434 67.8661 47.2755 68.4914 47.0803C68.7613 46.9961 68.7726 46.9799 68.9153 46.4752C68.9961 46.19 69.0934 45.8996 69.1319 45.8301C69.1703 45.7605 69.3277 45.3268 69.4814 44.8663C69.83 43.8226 70.2738 42.766 70.4421 42.5788C70.5123 42.5004 70.5699 42.361 70.5702 42.2689C70.5702 42.1231 70.9533 41.478 71.2214 41.1718C71.2711 41.1148 71.3321 40.973 71.3568 40.8564C71.4242 40.5395 72.2197 39.4406 72.4634 39.3281C72.6625 39.2357 73.2539 39.2683 73.3198 39.3754ZM48.7423 40.9916C48.9082 41.4951 48.4458 44.6058 48.0469 45.6678C47.9301 45.978 47.8386 46.3257 47.8435 46.4404C47.848 46.5551 47.7724 47.0043 47.6748 47.4386C47.5772 47.8733 47.4674 48.4766 47.4308 48.7794C47.3649 49.3232 47.2777 49.9708 47.1621 50.7763C47.1295 51.0032 47.0535 51.7315 46.9934 52.394C46.9333 53.0567 46.8464 53.9553 46.8001 54.3908C46.7037 55.2982 46.6869 57.0898 46.7705 57.5793L46.8269 57.9108L47.0627 57.7312C48.4501 56.6728 49.7366 57.4997 49.1498 59.0723C49.0723 59.2806 49.0009 59.5441 48.9918 59.6576C48.9701 59.9235 48.7521 60.5912 48.6432 60.7248C48.5968 60.7815 48.4407 61.1643 48.2961 61.5751C48.1515 61.9856 47.9463 62.4504 47.8395 62.6078C47.7331 62.7649 47.6452 62.9729 47.6446 63.0699C47.6437 63.1834 47.5726 63.2983 47.4451 63.3926C47.3363 63.4731 47.2255 63.6262 47.199 63.7327C47.1264 64.0236 46.2029 65.5166 45.8802 65.8646C45.7246 66.0324 45.5645 66.2416 45.5242 66.33C45.4535 66.4853 44.1533 68.2226 43.6378 68.8503C42.1122 70.7086 42.1817 70.5677 41.9201 72.3273C41.5486 74.8246 41.8652 74.7993 43.2383 72.2226C43.5509 71.6355 43.8492 71.1304 43.9007 71.1003C43.9523 71.0701 43.9944 70.977 43.9947 70.8938C43.995 70.8105 44.0569 70.6495 44.1322 70.5357C44.2076 70.4222 44.3476 70.1697 44.4433 69.9745C44.6492 69.5554 44.9252 69.33 45.4334 69.1659C46.0891 68.9543 46.1754 69.0409 46.3999 70.1368C46.7812 71.9976 47.5674 72.5963 48.4693 71.7127C49.3096 70.8898 49.6399 70.5357 49.6399 70.4585C49.6399 70.4161 49.9266 70.1029 50.2768 69.7625C50.6269 69.4218 51.1393 68.8936 51.415 68.588C51.6904 68.2827 52.0546 67.9453 52.2239 67.8383C52.3928 67.7315 52.5313 67.6086 52.5313 67.565C52.5319 67.2948 53.5021 66.6289 54.0118 66.5493C54.7081 66.4405 54.9192 66.686 54.5721 67.2014C54.2399 67.6946 54.2472 67.7038 54.7819 67.461C56.2261 66.8062 57.9707 67.8264 57.9707 69.3258C57.9707 69.9785 57.3793 71.5934 57.1011 71.7002C57.0471 71.7206 56.9459 71.8701 56.8763 72.0317C56.8065 72.1934 56.4869 72.6045 56.166 72.9455C55.8451 73.2862 55.5459 73.6345 55.5008 73.7193C55.456 73.8041 55.3196 73.9249 55.1982 73.9877C55.0768 74.0505 54.7664 74.2726 54.508 74.4812C54.1347 74.7828 53.9666 74.8719 53.6882 74.9161C53.4954 74.9463 53.2725 75.0326 53.1929 75.1073C53.113 75.1821 52.893 75.2794 52.7036 75.3233C52.5142 75.3675 52.2446 75.4358 52.1043 75.4755C51.3677 75.6829 50.4222 75.276 50.0694 74.5992C49.919 74.3107 49.8287 73.1126 49.9223 72.6475C50.0145 72.1897 49.9532 72.1208 49.7204 72.4206C49.6213 72.5484 49.2757 72.8705 48.9531 73.1361C48.6304 73.4021 48.3254 73.6775 48.2757 73.7483C47.9618 74.1933 46.6128 74.3665 45.9528 74.0465C45.5642 73.8584 45.3919 73.6949 45.0268 73.1685C44.6855 72.6759 44.6239 72.682 44.1694 73.2514C43.9562 73.5186 43.7525 73.7373 43.7168 73.7373C43.6811 73.7373 43.6067 73.8449 43.5518 73.9767C43.2508 74.6974 41.8212 76.3603 41.415 76.4622C40.1779 76.7726 39.829 76.2517 39.829 74.0953C39.829 72.7817 39.8183 72.642 39.7256 72.7549C39.6689 72.8241 39.4831 72.9522 39.3126 73.0397C39.1421 73.1273 38.7502 73.3816 38.4415 73.6049C37.7297 74.1197 37.5473 74.1939 37.3753 74.0383C37.2029 73.8825 37.2139 73.7641 37.4192 73.5589C37.514 73.464 37.5915 73.3313 37.5915 73.2633C37.5915 73.1956 37.9246 72.7945 38.3314 72.3724C38.7386 71.95 39.1074 71.5654 39.1507 71.5175C39.1943 71.4699 39.4038 71.2915 39.6164 71.121C39.911 70.8846 40.0199 70.7458 40.0754 70.5357C40.1151 70.3841 40.2057 70.1017 40.2767 69.9074C40.3478 69.7134 40.3883 69.488 40.367 69.4066C40.3237 69.2404 40.9334 67.2246 41.0792 67.0535C41.1298 66.9937 41.1716 66.8757 41.1716 66.7912C41.1716 65.9528 43.4792 61.7404 44.9023 59.9815L45.3089 59.4788L45.1088 59.2242C44.8795 58.9317 44.7184 58.3476 44.7843 58.0478C44.813 57.9172 44.7901 57.7678 44.7215 57.6351C44.587 57.3746 44.5687 55.3015 44.6962 54.7272C44.7413 54.5232 44.7715 54.1627 44.7633 53.926C44.7444 53.3953 45.1418 49.5303 45.2385 49.3028C45.2784 49.2089 45.2912 48.9274 45.268 48.6489C45.1976 47.8059 45.1753 47.7235 45.0088 47.6997C44.784 47.6674 44.7145 47.1602 44.8572 46.5941C44.917 46.3571 44.9634 46.0533 44.96 45.9188C44.9524 45.6007 45.2199 44.4719 45.3345 44.3386C45.3833 44.2819 45.4376 44.0806 45.455 43.8912C45.5639 42.7115 46.6619 41.034 47.325 41.034C47.447 41.034 47.5812 40.9998 47.6233 40.9577C47.8993 40.6817 48.6474 40.7042 48.7423 40.9916ZM78.6503 43.0357C78.7509 43.115 78.8318 43.2479 78.8318 43.3346C78.8318 43.6008 78.5612 44.5634 78.453 44.6833C78.3962 44.7458 78.3499 44.8501 78.3499 44.9151C78.3499 45.2143 77.9107 45.799 77.5108 46.0326C76.3732 46.6972 75.5271 46.4447 75.5271 45.4403C75.5271 44.9139 76.3561 43.7881 76.744 43.7881C76.8499 43.7881 76.9283 43.7335 76.967 43.6332C77.1677 43.1116 78.2559 42.7255 78.6503 43.0357ZM68.0698 48.8999C67.9503 49.1201 67.2994 49.8445 67.1173 49.9598C67.0661 49.9921 66.9776 50.1013 66.9209 50.2019C66.8642 50.3026 66.5699 50.7006 66.267 51.0865C65.9638 51.472 65.668 51.8697 65.6094 51.9703C65.5508 52.071 65.3804 52.3345 65.2309 52.5562C64.9369 52.9918 64.8402 53.1537 64.7029 53.4383C64.6545 53.5393 64.4852 53.8491 64.3272 54.1267C63.7074 55.2155 63.9145 55.3937 64.7615 54.4997C65.0693 54.1749 65.356 53.9086 65.3983 53.9086C65.4404 53.9086 65.4752 53.8806 65.4752 53.8461C65.4752 53.7909 65.8412 53.3419 66.715 52.3254C67.0347 51.9536 67.214 51.6919 67.8005 50.7418C68.2309 50.0443 68.2486 49.9973 68.3047 49.4129C68.3367 49.0795 68.3809 48.7776 68.4032 48.7416C68.4255 48.7056 68.387 48.6763 68.3175 48.6763C68.2461 48.6763 68.1388 48.7733 68.0698 48.8999ZM47.2432 59.8015C47.0267 60.0254 46.6033 60.5802 46.3026 61.0346C46.0019 61.4891 45.5974 62.0777 45.4038 62.3428C45.2098 62.6078 44.9771 62.9641 44.8859 63.1346C44.7947 63.3048 44.5543 63.6229 44.3515 63.8412C44.0041 64.2149 43.9852 64.2536 44.0273 64.5031C44.0602 64.6977 44.0435 64.7968 43.9645 64.8758C43.905 64.935 43.8565 65.0131 43.8565 65.049C43.8565 65.0847 43.7058 65.4666 43.5216 65.8973C43.3371 66.3279 43.0806 67.0126 42.9513 67.4189L42.7164 68.1573L42.9022 67.9795C43.004 67.8816 43.2682 67.5491 43.4884 67.2408C43.7089 66.9324 44.153 66.3273 44.4753 65.896C44.7977 65.4645 45.0924 65.0619 45.1299 65.0009C45.1677 64.9399 45.3147 64.7288 45.4571 64.5318C45.5993 64.3344 45.7155 64.1575 45.7155 64.1389C45.7155 64.12 45.7945 63.9883 45.8909 63.8461C46.3267 63.2038 47.7327 60.2602 47.8163 59.8149C47.9054 59.3407 47.694 59.3358 47.2432 59.8015ZM81.201 65.7942C81.9049 66.0199 82.2112 66.9751 81.8348 67.7709C81.7357 67.9804 81.6545 68.1945 81.6545 68.2464C81.6545 68.3342 81.5017 68.5334 80.7362 69.4426C80.3915 69.8522 79.5107 70.6662 79.2106 70.8529C78.1873 71.4888 78.0241 71.7947 78.3505 72.4645C78.7772 73.3405 79.5775 73.5192 80.6563 72.98C80.997 72.8095 81.3456 72.6789 81.4307 72.6899C81.5292 72.7024 81.5856 72.6734 81.5856 72.61C81.5856 72.5551 81.8104 72.3199 82.0849 72.0872C82.3594 71.8545 82.6769 71.5797 82.7907 71.4766C82.9041 71.3732 83.1054 71.2454 83.2381 71.1924C83.3708 71.1393 83.5809 71.0087 83.7054 70.902C83.8295 70.7952 83.9671 70.7077 84.0107 70.7077C84.0543 70.7077 84.1537 70.6482 84.2321 70.5753C84.4294 70.3911 84.6917 70.3381 84.8464 70.4512C85.0324 70.5872 84.786 71.1289 84.3358 71.5721C84.1485 71.7566 83.9954 71.9622 83.9954 72.029C83.9954 72.0955 83.9103 72.1943 83.806 72.2486C83.702 72.3026 83.5465 72.4422 83.4604 72.5591C83.3747 72.6759 82.9801 73.0217 82.5836 73.3277C82.1871 73.6336 81.8354 73.9331 81.8019 73.9929C81.7067 74.1631 81.0516 74.6102 80.4843 74.892L79.9679 75.1485H78.9352C78.0073 75.1485 77.8744 75.1336 77.627 74.9997C77.4754 74.9179 77.2991 74.8344 77.2348 74.8139C76.9444 74.7221 76.275 73.6766 76.1789 73.1642C76.1182 72.8403 76.1045 72.843 75.6967 73.2624C75.1446 73.8297 73.8102 74.3522 73.6928 74.0469C73.6693 73.9849 73.486 73.8422 73.286 73.7293C72.9081 73.5158 72.6339 73.2459 72.0501 72.5121C71.4508 71.7581 70.7999 71.526 70.2878 71.8829C70.121 71.9988 69.8212 72.2016 69.6214 72.3337C69.3752 72.4962 69.1023 72.7842 68.775 73.2276C68.5093 73.5872 68.2458 73.8992 68.1894 73.9209C68.1327 73.9425 67.9112 74.1936 67.6965 74.4784C66.9496 75.4712 66.7211 75.678 66.3338 75.7134C65.5771 75.7826 65.4926 75.4011 65.9239 73.8568C66.8081 70.69 66.8498 69.7686 66.087 70.278C65.6161 70.5924 63.8325 72.3327 63.6144 72.6905C63.5522 72.7927 63.3179 73.0629 63.0938 73.2905C62.8699 73.518 62.4975 73.9364 62.266 74.2198C61.5209 75.1327 61.2747 75.3208 60.8249 75.3208C60.3427 75.3208 60.1737 75.2351 60.1737 74.9911C60.1737 74.6355 60.5553 73.0898 60.7181 72.7854C60.7596 72.7079 60.7935 72.5713 60.7935 72.4819C60.7935 72.3922 60.8847 72.0281 60.996 71.6727C61.1076 71.3171 61.1832 71.0011 61.164 70.9703C61.0664 70.8126 60.3784 71.0411 60.2981 71.2579C60.1923 71.5443 59.9495 71.8216 59.6311 72.0201C59.4563 72.129 59.0961 72.4401 58.8311 72.7116C58.566 72.983 58.2254 73.263 58.0738 73.3341C57.9225 73.4051 57.6745 73.557 57.5229 73.6714C57.0087 74.0597 56.9468 74.0914 56.7531 74.0691C56.4667 74.0365 56.4548 73.7611 56.7284 73.4991C56.8434 73.3887 56.938 73.2343 56.938 73.1563C56.9383 73.0257 57.6355 72.2678 58.6484 71.2973C58.8436 71.1103 59.0034 70.9246 59.0037 70.8843C59.0046 70.7666 61.6816 68.0768 62.1528 67.7208C63.5183 66.6884 64.2156 67.0956 63.8694 68.7231C63.8102 69.0006 63.741 69.398 63.7151 69.6064C63.6891 69.8147 63.6382 70.0623 63.6016 70.1572C63.4866 70.4564 63.422 70.9834 63.5064 70.9334C63.7541 70.7867 65.054 69.495 66.2624 68.1945C67.4855 66.8784 67.476 66.8845 68.3108 66.8241C69.1572 66.7628 69.1636 66.7705 69.1468 67.8505C69.1349 68.6389 68.8558 70.5247 68.6786 71.0176C68.4416 71.6755 68.5408 71.6297 69.5165 70.6324C70.4492 69.6789 71.1079 69.1547 71.4572 69.0879C71.556 69.0686 71.7597 69.0253 71.9095 68.9912C72.385 68.8832 73.1935 69.5088 73.397 70.1422C73.4421 70.2828 73.5168 70.4445 73.5632 70.5012C73.6096 70.558 73.777 70.8428 73.9359 71.1344C74.4379 72.0564 75.0373 72.2833 75.4091 71.6923C75.4389 71.6447 75.6033 71.5096 75.7744 71.3918C76.1154 71.1573 76.195 71.0075 76.2908 70.4201C76.3942 69.7872 76.6269 69.1196 76.8075 68.9393C76.8999 68.8469 76.9594 68.745 76.9395 68.713C76.8087 68.5013 78.3731 66.733 78.9178 66.4764C79.0599 66.4093 79.1761 66.3288 79.1761 66.2971C79.1761 65.8805 80.4684 65.5593 81.201 65.7942ZM79.4747 68.1524C78.7268 68.7521 77.9076 69.8754 78.087 70.055C78.1955 70.1636 78.6341 69.9815 78.754 69.7778C78.8269 69.6545 79.0697 69.4029 79.2938 69.2184C79.7257 68.8634 79.9334 68.5029 79.9334 68.1082C79.9334 67.8224 79.8797 67.8276 79.4747 68.1524ZM54.6282 69.3532C54.4324 69.4288 53.9822 69.887 53.4338 70.5692C53.2142 70.8422 53.184 70.8575 52.9348 70.8175C52.6841 70.7776 52.6692 70.7852 52.6692 70.9529C52.6692 71.0508 52.5954 71.2604 52.5054 71.4184C52.1705 72.0061 52.1135 73.4497 52.4148 73.7089C52.6792 73.9361 52.7854 73.9218 53.5293 73.5601C54.1997 73.234 55.5606 71.9756 55.5612 71.681C55.5612 71.6191 55.6533 71.336 55.7652 71.0521C56.2316 69.8717 55.6268 68.9686 54.6282 69.3532Z" fill="#080808"/>
</svg>
