<svg width="76" height="75" viewBox="0 0 76 75" fill="none" xmlns="http://www.w3.org/2000/svg">
<path fill-rule="evenodd" clip-rule="evenodd" d="M34.5562 0.655328C8.77147 3.09594 -6.76157 30.0107 4.09247 53.4417C15.6123 78.3092 49.5323 82.4539 66.7846 61.1021C82.8066 41.2728 74.459 11.4017 50.4702 2.72292C45.6045 0.962463 39.5804 0.179833 34.5562 0.655328ZM40.3606 0.690402C63.1545 2.31361 79.1069 23.8228 74.0076 46.0588C70.6941 60.507 58.8671 71.7542 44.3323 74.2787C41.9018 74.7011 40.6348 74.8029 37.8261 74.8029C14.869 74.8029 -2.52542 54.317 1.20076 31.6686C4.29743 12.8465 21.3729 -0.661358 40.3606 0.690402ZM48.4633 18.3279C48.2196 18.4405 47.4241 19.5394 47.3567 19.8563C47.332 19.9728 47.271 20.1146 47.2213 20.1717C46.9532 20.4779 46.5701 21.123 46.5701 21.2687C46.5698 21.3609 46.5122 21.5002 46.442 21.5786C46.2737 21.7659 45.8299 22.8224 45.4813 23.8661C45.3275 24.3267 45.1702 24.7604 45.1317 24.8299C45.0933 24.8995 44.996 25.1898 44.9152 25.475C44.7724 25.9798 44.7612 25.9959 44.4912 26.0801C43.866 26.2753 39.6765 29.9433 39.4758 30.4709C39.4453 30.5514 39.2538 30.7112 39.0506 30.8259C38.8472 30.9406 38.5056 31.2239 38.2915 31.4551C38.0774 31.6866 37.8541 31.8757 37.7953 31.8757C37.7364 31.8757 37.5101 32.0465 37.2923 32.2551C37.0746 32.4638 36.8251 32.7029 36.7375 32.7868C36.4624 33.0506 35.7502 32.3268 35.774 31.8071C35.7847 31.568 35.2702 30.4926 34.9691 30.125C34.3094 29.3201 33.0873 29.6428 31.8261 30.9552C31.6123 31.1776 31.3436 31.4298 31.2286 31.5155C31.1139 31.6012 30.9858 31.7748 30.9441 31.9014C30.9023 32.0276 30.7955 32.1643 30.7065 32.2045C30.6177 32.2451 30.4094 32.4421 30.2438 32.6419C29.5831 33.4404 29.0256 33.9055 29.3828 33.3608C29.4447 33.2662 29.4953 33.1009 29.4953 32.9936C29.4953 32.8862 29.5243 32.7691 29.5597 32.7331C29.6185 32.673 29.9302 31.8666 30.2236 31.0153C30.2886 30.8259 30.381 30.5935 30.4283 30.499C30.6308 30.0939 30.901 28.6528 30.8327 28.3417C30.765 28.033 30.2959 27.5618 30.0016 27.5066C29.2906 27.3733 28.6081 27.936 26.2791 30.5764C25.5901 31.3572 24.9786 32.0148 24.92 32.0374C24.8614 32.0596 24.8136 32.1075 24.8136 32.1435C24.8136 32.1792 24.4262 32.6004 23.9528 33.0793C23.3252 33.7146 23.0924 33.9955 23.0924 34.1178C23.0924 34.2102 23.0622 34.2855 23.025 34.2855C22.7816 34.2855 22.6987 34.8452 22.9293 34.9337C23.1602 35.0221 25.0981 33.6917 25.6346 33.0759C25.7642 32.9271 25.9549 32.7535 26.058 32.6901C26.161 32.6266 26.4575 32.3213 26.7168 32.0118C27.525 31.0464 28.0993 30.9311 27.8672 31.7809C27.8065 32.0035 27.7324 32.3097 27.7025 32.461C27.6726 32.6126 27.5988 32.8758 27.5381 33.0463C26.9049 34.8263 26.6137 36.3867 26.8479 36.7444C26.9748 36.9378 27.5576 36.9647 27.9657 36.796C28.2973 36.6584 30.3158 34.5631 30.632 34.0275C30.7028 33.9076 30.8498 33.7725 30.9587 33.7274C31.0676 33.6822 31.2835 33.4953 31.4385 33.3114C31.5934 33.1278 31.7474 32.9774 31.7807 32.9774C31.8139 32.9774 32.0433 32.8225 32.2903 32.6334C32.8524 32.2024 33.0037 32.1948 33.3386 32.5803C33.478 32.7407 33.6924 32.9673 33.8156 33.0844C33.9385 33.2013 34.0392 33.3525 34.0392 33.4203C34.0392 33.8149 34.7834 34.7851 35.2589 35.0108C35.7853 35.2606 36.564 34.9154 37.4878 34.0226C38.2525 33.2839 38.2217 33.2821 37.9612 34.0501C37.389 35.7364 37.6803 36.4727 38.8756 36.3629L39.5313 36.3025L40.116 35.7932C40.4375 35.5132 40.8248 35.1844 40.9767 35.0627C41.1289 34.941 41.4419 34.6 41.6727 34.3054C41.9033 34.0104 42.2922 33.5679 42.5371 33.3217C42.782 33.0753 43.034 32.7505 43.0971 32.5992C43.1602 32.4482 43.2783 32.2591 43.3591 32.1795C43.503 32.0371 43.8892 31.5768 44.0554 31.3499C44.157 31.2111 44.1792 31.2441 44.3659 31.8095C44.4464 32.0545 44.5571 32.3369 44.612 32.4375C44.6666 32.5385 44.6925 32.6696 44.6697 32.7297C44.6465 32.7895 44.6971 32.9551 44.7819 33.0973C44.8667 33.2397 44.9969 33.4645 45.0714 33.5972C45.366 34.1233 45.7869 34.4182 46.5027 34.6006C46.7479 34.6628 46.9733 34.7571 47.0035 34.8095C47.0914 34.962 47.2564 34.919 47.8435 34.5911C48.1464 34.4216 48.5026 34.2288 48.6353 34.1623C48.768 34.0955 49.0156 33.9494 49.1861 33.8372C49.3566 33.7249 49.5771 33.5972 49.6762 33.5532C49.7757 33.5093 49.8989 33.3788 49.9501 33.2626C50.0014 33.1467 50.1038 33.0427 50.1777 33.0317C50.2512 33.0207 50.3616 32.9216 50.4223 32.8115C50.6718 32.3598 50.9289 32.4656 51.3263 33.1839C51.3995 33.3166 51.487 33.4715 51.5206 33.5282C51.5541 33.585 51.6365 33.771 51.7033 33.9412C51.7701 34.1117 51.8817 34.3026 51.9512 34.3654C52.0208 34.4283 52.0778 34.5131 52.0778 34.5536C52.0778 34.7013 52.5317 35.2387 52.7757 35.3799C53.7337 35.9344 54.8463 35.3631 56.9953 33.2132C58.7314 31.4762 58.8781 30.5935 57.2579 31.6342C56.8752 31.88 56.4826 32.1173 56.3853 32.1618C56.288 32.206 56.2087 32.2661 56.2087 32.2957C56.2087 32.389 55.434 33.1153 55.3346 33.1153C55.2821 33.1153 55.1498 33.1814 55.0403 33.2623C54.569 33.6106 54.0268 33.4038 53.8029 32.7904C53.723 32.5714 53.6287 32.3302 53.5931 32.2545C53.5577 32.1789 53.4668 31.683 53.3911 31.1529C53.3158 30.6228 53.2191 30.09 53.1767 29.9686C52.9663 29.3686 51.6118 29.1588 51.2668 29.6727C51.1778 29.8051 51.0353 29.9503 50.9502 29.9951C50.8654 30.0399 50.6117 30.3172 50.3869 30.6115C48.6597 32.8703 47.5348 33.3907 46.8593 32.2436C46.7568 32.0694 46.6028 31.8202 46.517 31.69C46.4313 31.5598 46.3777 31.4265 46.3978 31.3935C46.4182 31.3609 46.4008 31.1849 46.3597 31.0025C46.0452 29.616 46.1517 28.1611 46.6421 27.1458C46.8397 26.7368 47.006 26.2961 47.0121 26.1661C47.0179 26.0365 47.0633 25.9166 47.113 25.9002C47.2158 25.8657 47.5321 25.2231 47.533 25.0462C47.5333 24.9818 47.6224 24.7958 47.731 24.6329C47.9926 24.2398 48.2223 23.6038 48.2223 23.2714C48.2223 23.1235 48.251 22.9847 48.286 22.963C48.3211 22.9414 48.3861 22.8078 48.4306 22.6663C48.4748 22.525 48.5709 22.2817 48.6438 22.1258C48.7167 21.9699 48.8189 21.6448 48.871 21.403C48.9232 21.1611 49.0162 20.846 49.0778 20.7027C49.2819 20.2284 49.4521 18.5893 49.3197 18.3752C49.2538 18.2682 48.6624 18.2355 48.4633 18.3279ZM23.9294 19.827C23.8028 19.8569 23.6649 19.9158 23.6231 19.9576C23.581 19.9996 23.4468 20.0338 23.3249 20.0338C22.6618 20.0338 21.5638 21.7113 21.4549 22.891C21.4375 23.0804 21.3832 23.2817 21.3344 23.3385C21.2197 23.4718 20.9523 24.6006 20.9599 24.9187C20.9632 25.0532 20.9169 25.357 20.8571 25.594C20.7144 26.16 20.7839 26.6672 21.0087 26.6996C21.1752 26.7234 21.1975 26.8057 21.2679 27.6487C21.2911 27.9272 21.2783 28.2087 21.2383 28.3027C21.1417 28.5302 20.7442 32.3951 20.7632 32.9258C20.7714 33.1625 20.7412 33.523 20.6961 33.7271C20.5686 34.3014 20.5869 36.3745 20.7214 36.6349C20.79 36.7676 20.8129 36.9171 20.7842 37.0476C20.7183 37.3474 20.8794 37.9315 21.1087 38.224L21.3088 38.4787L20.9022 38.9813C19.4791 40.7403 17.1715 44.9526 17.1715 45.791C17.1715 45.8755 17.1297 45.9936 17.0791 46.0533C16.9333 46.2245 16.3236 48.2402 16.3669 48.4064C16.3882 48.4879 16.3477 48.7133 16.2766 48.9072C16.2055 49.1015 16.115 49.384 16.0753 49.5355C16.0198 49.7457 15.9109 49.8845 15.6163 50.1208C15.4037 50.2913 15.1942 50.4697 15.1505 50.5173C15.1072 50.5652 14.7385 50.9498 14.3313 51.3722C13.9244 51.7944 13.5914 52.1954 13.5914 52.2631C13.5914 52.3312 13.5139 52.4638 13.4191 52.5587C13.2138 52.764 13.2028 52.8823 13.3751 53.0382C13.5472 53.1937 13.7296 53.1196 14.4414 52.6047C14.7501 52.3815 15.142 52.1271 15.3125 52.0396C15.483 51.952 15.6687 51.8239 15.7255 51.7547C15.8182 51.6419 15.8289 51.7816 15.8289 53.0952C15.8289 55.2515 16.1778 55.7725 17.4149 55.462C17.8211 55.3601 19.2507 53.6973 19.5517 52.9765C19.6066 52.8448 19.681 52.7371 19.7167 52.7371C19.7524 52.7371 19.9561 52.5184 20.1693 52.2513C20.6238 51.6818 20.6854 51.6757 21.0267 52.1683C21.3918 52.6947 21.5641 52.8582 21.9527 53.0464C22.6127 53.3663 23.9617 53.1931 24.2755 52.7481C24.3253 52.6773 24.6302 52.4019 24.9529 52.136C25.2756 51.8703 25.6212 51.5482 25.7203 51.4204C25.953 51.1206 26.0143 51.1895 25.9222 51.6474C25.8286 52.1125 25.9189 53.3105 26.0692 53.599C26.4221 54.2758 27.3676 54.6827 28.1042 54.4753C28.2445 54.4357 28.5141 54.3673 28.7035 54.3231C28.8929 54.2792 29.1128 54.1819 29.1927 54.1072C29.2724 54.0325 29.4953 53.9461 29.6881 53.9159C29.9665 53.8717 30.1346 53.7827 30.5079 53.481C30.7662 53.2724 31.0767 53.0504 31.1981 52.9875C31.3195 52.9247 31.4558 52.8039 31.5007 52.7191C31.5458 52.6343 31.845 52.286 32.1659 51.9453C32.4867 51.6043 32.8064 51.1932 32.8762 51.0316C32.9458 50.8699 33.047 50.7205 33.101 50.7C33.3792 50.5933 33.9706 48.9783 33.9706 48.3256C33.9706 46.8262 32.226 45.806 30.7818 46.4608C30.2471 46.7036 30.2398 46.6945 30.572 46.2013C30.919 45.6858 30.708 45.4403 30.0117 45.5492C29.502 45.6288 28.5318 46.2946 28.5312 46.5648C28.5312 46.6085 28.3927 46.7314 28.2238 46.8381C28.0545 46.9452 27.6903 47.2825 27.4149 47.5878C27.1392 47.8934 26.6268 48.4217 26.2766 48.7624C25.9265 49.1027 25.6398 49.416 25.6398 49.4584C25.6398 49.5355 25.3095 49.8896 24.4692 50.7125C23.5673 51.5961 22.781 50.9974 22.3998 49.1366C22.1753 48.0407 22.089 47.9541 21.4332 48.1658C20.9251 48.3299 20.6491 48.5553 20.4432 48.9743C20.3474 49.1695 20.2074 49.4221 20.1321 49.5355C20.0568 49.6493 19.9949 49.8103 19.9946 49.8936C19.9942 49.9769 19.9522 50.0699 19.9006 50.1001C19.8491 50.1303 19.5508 50.6354 19.2382 51.2225C17.865 53.7991 17.5485 53.8244 17.9199 51.3271C18.1816 49.5676 18.1121 49.7085 19.6377 47.8501C20.1532 47.2224 21.4534 45.4851 21.5241 45.3299C21.5644 45.2414 21.7245 45.0322 21.8801 44.8645C22.2028 44.5165 23.1263 43.0235 23.1989 42.7325C23.2254 42.6261 23.3361 42.473 23.445 42.3924C23.5725 42.2982 23.6436 42.1832 23.6445 42.0697C23.6451 41.9728 23.7329 41.7647 23.8394 41.6077C23.9461 41.4503 24.1514 40.9855 24.296 40.5749C24.4405 40.1641 24.5967 39.7813 24.6431 39.7246C24.7519 39.591 24.97 38.9234 24.9917 38.6574C25.0008 38.5439 25.0722 38.2804 25.1497 38.0721C25.7365 36.4995 24.45 35.6727 23.0625 36.731L22.8268 36.9107L22.7704 36.5791C22.6868 36.0896 22.7036 34.298 22.7999 33.3907C22.8463 32.9551 22.9332 32.0566 22.9933 31.3938C23.0534 30.7314 23.1293 30.003 23.162 29.7761C23.2776 28.9706 23.3648 28.3231 23.4307 27.7793C23.4673 27.4764 23.5771 26.8731 23.6747 26.4385C23.7723 26.0042 23.8479 25.5549 23.8433 25.4402C23.8385 25.3256 23.93 24.9779 24.0468 24.6677C24.324 23.9296 24.4997 23.0408 24.6757 21.4887C24.8749 19.7309 24.823 19.6156 23.9294 19.827ZM53.73 22.0187C53.3655 22.1926 53.0334 22.4598 52.9669 22.633C52.9282 22.7334 52.8498 22.788 52.7439 22.788C52.356 22.788 51.527 23.9137 51.527 24.4401C51.527 25.4445 52.3731 25.697 53.5107 25.0324C53.9106 24.7988 54.3498 24.2141 54.3498 23.9149C54.3498 23.85 54.3961 23.7457 54.4528 23.6831C54.5611 23.5633 54.8317 22.6007 54.8317 22.3344C54.8317 21.9541 54.2281 21.7815 53.73 22.0187ZM44.4031 27.7415C44.3808 27.7774 44.3366 28.0794 44.3046 28.4128C44.2485 28.9971 44.2308 29.0441 43.8004 29.7416C43.2139 30.6917 43.0346 30.9534 42.7149 31.3252C41.8411 32.3418 41.4751 32.7907 41.4751 32.8459C41.4751 32.8804 41.4403 32.9085 41.3982 32.9085C41.3558 32.9085 41.0691 33.1747 40.7614 33.4995C39.9144 34.3935 39.7073 34.2154 40.3271 33.1265C40.4851 32.849 40.6543 32.5391 40.7028 32.4382C40.8401 32.1536 40.9368 31.9916 41.2308 31.5561C41.3802 31.3344 41.5507 31.0708 41.6093 30.9702C41.6679 30.8695 41.9637 30.4718 42.2669 30.0863C42.5697 29.7005 42.8641 29.3024 42.9208 29.2018C42.9775 29.1011 43.066 28.992 43.1172 28.9596C43.2993 28.8443 43.9502 28.12 44.0697 27.8998C44.1387 27.7732 44.246 27.6762 44.3174 27.6762C44.3869 27.6762 44.4254 27.7055 44.4031 27.7415ZM23.8162 38.8148C23.7326 39.2601 22.3266 42.2036 21.8907 42.846C21.7944 42.9881 21.7154 43.1199 21.7154 43.1388C21.7154 43.1574 21.5992 43.3343 21.457 43.5316C21.3146 43.7286 21.1676 43.9397 21.1298 44.0007C21.0922 44.0617 20.7976 44.4643 20.4752 44.8959C20.1529 45.3271 19.7088 45.9323 19.4883 46.2406C19.268 46.549 19.0039 46.8814 18.902 46.9793L18.7163 47.1571L18.9512 46.4187C19.0805 46.0125 19.337 45.3278 19.5215 44.8971C19.7057 44.4664 19.8564 44.0846 19.8564 44.0489C19.8564 44.0129 19.9049 43.9348 19.9644 43.8757C20.0434 43.7967 20.0601 43.6975 20.0272 43.5029C19.9851 43.2535 20.004 43.2147 20.3514 42.8411C20.5542 42.6227 20.7946 42.3046 20.8858 42.1344C20.977 41.9639 21.2097 41.6077 21.4037 41.3426C21.5973 41.0776 22.0018 40.4889 22.3025 40.0345C23.2507 38.6019 23.9638 38.0273 23.8162 38.8148ZM55.9159 44.78C55.639 44.8788 55.176 45.2024 55.176 45.297C55.176 45.3287 55.0598 45.4092 54.9177 45.4763C54.3729 45.7328 52.8086 47.5012 52.9394 47.7129C52.9593 47.7449 52.8998 47.8467 52.8074 47.9392C52.6268 48.1194 52.3941 48.7871 52.2907 49.4199C52.1949 50.0074 52.1153 50.1571 51.7743 50.3917C51.6032 50.5094 51.4388 50.6445 51.4089 50.6921C51.0371 51.2832 50.4378 51.0563 49.9358 50.1343C49.7769 49.8427 49.6094 49.5578 49.5631 49.5011C49.5167 49.4443 49.442 49.2827 49.3969 49.1421C49.1934 48.5086 48.3849 47.883 47.9094 47.991C47.7596 48.0252 47.5559 48.0685 47.4571 48.0877C47.1078 48.1545 46.449 48.6788 45.5163 49.6322C44.5407 50.6296 44.4415 50.6753 44.6785 50.0174C44.8557 49.5246 45.1348 47.6387 45.1467 46.8503C45.1635 45.7703 45.1571 45.7627 44.3107 45.824C43.4759 45.8844 43.4854 45.8783 42.2623 47.1944C41.0539 48.4949 39.754 49.7865 39.5063 49.9333C39.4218 49.9833 39.4865 49.4562 39.6015 49.157C39.6381 49.0622 39.689 48.8145 39.7149 48.6062C39.7409 48.3979 39.8101 48.0005 39.8693 47.7229C40.2154 46.0954 39.5182 45.6883 38.1527 46.7207C37.6815 47.0766 35.0045 49.7664 35.0036 49.8841C35.0033 49.9244 34.8435 50.1102 34.6483 50.2971C33.6354 51.2676 32.9381 52.0256 32.9378 52.1561C32.9378 52.2342 32.8433 52.3885 32.7283 52.4989C32.4547 52.7609 32.4666 53.0363 32.753 53.069C32.9467 53.0912 33.0086 53.0595 33.5228 52.6712C33.6744 52.5569 33.9224 52.405 34.0737 52.3339C34.2252 52.2628 34.5659 51.9829 34.831 51.7114C35.096 51.44 35.4562 51.1289 35.631 51.02C35.9494 50.8214 36.1922 50.5442 36.298 50.2578C36.3782 50.0409 37.0663 49.8125 37.1639 49.9702C37.1831 50.001 37.1075 50.3169 36.9959 50.6726C36.8845 51.0279 36.7933 51.3921 36.7933 51.4817C36.7933 51.5711 36.7595 51.7077 36.718 51.7852C36.5551 52.0896 36.1736 53.6353 36.1736 53.991C36.1736 54.235 36.3426 54.3207 36.8248 54.3207C37.2746 54.3207 37.5208 54.1325 38.2659 53.2196C38.4974 52.9363 38.8698 52.5178 39.0937 52.2903C39.3178 52.0628 39.5521 51.7925 39.6143 51.6904C39.8324 51.3326 41.616 49.5923 42.0869 49.2778C42.8497 48.7685 42.8079 49.6899 41.9238 52.8567C41.4925 54.4009 41.577 54.7825 42.3337 54.7132C42.721 54.6778 42.9495 54.471 43.6964 53.4783C43.9111 53.1934 44.1326 52.9424 44.1893 52.9207C44.2457 52.8991 44.5092 52.5871 44.7749 52.2275C45.1022 51.784 45.3751 51.4961 45.6213 51.3335C45.821 51.2014 46.1209 50.9986 46.2877 50.8827C46.7998 50.5259 47.4507 50.758 48.05 51.5119C48.6338 52.2458 48.9079 52.5157 49.2858 52.7292C49.4859 52.842 49.6692 52.9848 49.6927 53.0467C49.8101 53.352 51.1445 52.8295 51.6966 52.2622C52.1043 51.8429 52.1181 51.8401 52.1788 52.164C52.2748 52.6764 52.9443 53.722 53.2347 53.8138C53.299 53.8342 53.4753 53.9178 53.6269 53.9995C53.8743 54.1334 54.0072 54.1484 54.935 54.1484H55.9678L56.4841 53.8918C57.0514 53.61 57.7066 53.1629 57.8017 52.9927C57.8353 52.9329 58.187 52.6334 58.5835 52.3275C58.98 52.0216 59.3746 51.6757 59.4603 51.5589C59.5463 51.4421 59.7019 51.3024 59.8059 51.2484C59.9102 51.1941 59.9953 51.0953 59.9953 51.0288C59.9953 50.962 60.1484 50.7565 60.3357 50.5719C60.7859 50.1288 61.0323 49.5871 60.8463 49.451C60.6916 49.3379 60.4293 49.391 60.232 49.5752C60.1536 49.6481 60.0542 49.7076 60.0106 49.7076C59.9669 49.7076 59.8294 49.7951 59.7052 49.9018C59.5808 50.0086 59.3707 50.1391 59.238 50.1922C59.1053 50.2453 58.904 50.3731 58.7906 50.4765C58.6768 50.5795 58.3593 50.8544 58.0848 51.0871C57.8103 51.3198 57.5855 51.5549 57.5855 51.6098C57.5855 51.6733 57.5291 51.7023 57.4306 51.6897C57.3455 51.6788 56.9968 51.8093 56.6562 51.9798C55.5774 52.519 54.7771 52.3403 54.3504 51.4644C54.024 50.7946 54.1872 50.4887 55.2105 49.8527C55.5106 49.6661 56.3914 48.852 56.7361 48.4424C57.5016 47.5332 57.6544 47.334 57.6544 47.2462C57.6544 47.1944 57.7356 46.9802 57.8347 46.7707C58.4487 45.4729 57.3037 44.2847 55.9159 44.78ZM55.9333 47.108C55.9333 47.5027 55.7256 47.8632 55.2937 48.2182C55.0696 48.4028 54.8268 48.6544 54.7539 48.7776C54.634 48.9813 54.1954 49.1634 54.0868 49.0549C53.9075 48.8752 54.7267 47.7519 55.4746 47.1523C55.8796 46.8274 55.9333 46.8223 55.9333 47.108ZM31.3842 48.3588C31.9673 48.6025 32.1018 49.1997 31.7651 50.0519C31.6532 50.3359 31.5611 50.6189 31.5611 50.6808C31.5605 50.9754 30.1995 52.2339 29.5292 52.5599C28.7853 52.9216 28.6791 52.936 28.4147 52.7088C28.1134 52.4495 28.1704 51.0059 28.5053 50.4182C28.5953 50.2602 28.6691 50.0507 28.6691 49.9528C28.6691 49.785 28.684 49.7774 28.9347 49.8174C29.1839 49.8573 29.2141 49.8421 29.4337 49.5691C30.4326 48.3265 30.7842 48.1081 31.3842 48.3588Z" fill="white"/>
<path fill-rule="evenodd" clip-rule="evenodd" d="M35.2099 0.692067C13.3441 2.31558 -2.39264 22.2772 1.2085 43.8212C3.8989 59.917 16.7394 72.3555 32.9035 74.524C34.6545 74.7589 35.4344 74.8031 37.8262 74.8031C58.4503 74.8031 74.8989 58.3535 74.8989 37.7282C74.8989 16.1647 56.6145 -0.897593 35.2099 0.692067ZM49.3198 18.3754C49.4522 18.5895 49.282 20.2285 49.0779 20.7028C49.0163 20.8462 48.9233 21.1612 48.8712 21.4031C48.819 21.645 48.7168 21.9701 48.6439 22.1259C48.571 22.2818 48.475 22.5252 48.4307 22.6664C48.3862 22.8079 48.3212 22.9415 48.2862 22.9632C48.2511 22.9848 48.2224 23.1236 48.2224 23.2715C48.2224 23.604 47.9928 24.2399 47.7311 24.633C47.6225 24.7959 47.5334 24.982 47.5331 25.0463C47.5322 25.2232 47.2159 25.8659 47.1131 25.9003C47.0634 25.9168 47.018 26.0367 47.0122 26.1663C47.0061 26.2962 46.8399 26.7369 46.6422 27.1459C46.1518 28.1613 46.0453 29.6161 46.3598 31.0027C46.401 31.1851 46.4183 31.361 46.3979 31.3937C46.3778 31.4266 46.4315 31.5599 46.5172 31.6901C46.6029 31.8204 46.7569 32.0696 46.8594 32.2437C47.535 33.3908 48.6598 32.8705 50.387 30.6117C50.6118 30.3173 50.8656 30.0401 50.9503 29.9953C51.0354 29.9504 51.1779 29.8052 51.2669 29.6729C51.6119 29.1589 52.9664 29.3688 53.1768 29.9687C53.2192 30.0901 53.3159 30.6229 53.3913 31.153C53.4669 31.6831 53.5578 32.1791 53.5932 32.2547C53.6289 32.3303 53.7231 32.5716 53.803 32.7906C54.0269 33.4039 54.5692 33.6107 55.0404 33.2624C55.1499 33.1816 55.2823 33.1154 55.3347 33.1154C55.4341 33.1154 56.2088 32.3892 56.2088 32.2959C56.2088 32.2663 56.2881 32.2062 56.3854 32.162C56.4827 32.1174 56.8753 31.8802 57.258 31.6343C58.8782 30.5937 58.7315 31.4763 56.9954 33.2133C54.8464 35.3633 53.7338 35.9345 52.7758 35.38C52.5318 35.2388 52.0779 34.7014 52.0779 34.5538C52.0779 34.5132 52.0209 34.4284 51.9513 34.3656C51.8818 34.3028 51.7702 34.1118 51.7034 33.9413C51.6366 33.7712 51.5542 33.5851 51.5207 33.5284C51.4871 33.4716 51.3996 33.3167 51.3264 33.184C50.929 32.4658 50.6719 32.3599 50.4224 32.8116C50.3617 32.9217 50.2513 33.0209 50.1778 33.0318C50.104 33.0428 50.0015 33.1468 49.9502 33.2627C49.899 33.3789 49.7758 33.5095 49.6764 33.5534C49.5772 33.5973 49.3567 33.7251 49.1862 33.8373C49.0157 33.9496 48.7681 34.0957 48.6354 34.1625C48.5027 34.229 48.1465 34.4217 47.8436 34.5913C47.2565 34.9192 47.0915 34.9622 47.0036 34.8097C46.9734 34.7572 46.748 34.663 46.5028 34.6008C45.787 34.4184 45.3661 34.1234 45.0715 33.5973C44.997 33.4646 44.8668 33.2398 44.782 33.0974C44.6972 32.9553 44.6466 32.7897 44.6698 32.7299C44.6927 32.6698 44.6667 32.5387 44.6121 32.4377C44.5572 32.337 44.4465 32.0546 44.366 31.8097C44.1793 31.2442 44.1571 31.2113 44.0555 31.3501C43.8893 31.577 43.5032 32.0372 43.3592 32.1797C43.2784 32.2593 43.1603 32.4484 43.0972 32.5993C43.0341 32.7506 42.7821 33.0755 42.5372 33.3219C42.2923 33.568 41.9034 34.0106 41.6728 34.3055C41.442 34.6001 41.129 34.9411 40.9768 35.0628C40.825 35.1845 40.4376 35.5133 40.1161 35.7933L39.5314 36.3027L38.8757 36.363C37.6804 36.4728 37.3891 35.7366 37.9613 34.0502C38.2218 33.2822 38.2526 33.2841 37.4879 34.0228C36.5641 34.9155 35.7854 35.2608 35.259 35.011C34.7835 34.7853 34.0393 33.8151 34.0393 33.4204C34.0393 33.3527 33.9387 33.2014 33.8157 33.0846C33.6925 32.9675 33.4781 32.7409 33.3387 32.5804C33.0038 32.1949 32.8526 32.2025 32.2904 32.6335C32.0434 32.8226 31.814 32.9775 31.7808 32.9775C31.7475 32.9775 31.5935 33.1279 31.4386 33.3115C31.2836 33.4954 31.0677 33.6824 30.9588 33.7275C30.8499 33.7727 30.7029 33.9078 30.6322 34.0277C30.3159 34.5632 28.2974 36.6586 27.9658 36.7961C27.5578 36.9648 26.9749 36.938 26.848 36.7446C26.6138 36.3868 26.9051 34.8265 27.5382 33.0465C27.5989 32.876 27.6727 32.6128 27.7026 32.4612C27.7325 32.3099 27.8066 32.0037 27.8673 31.781C28.0994 30.9313 27.5251 31.0466 26.7169 32.0119C26.4576 32.3215 26.1612 32.6268 26.0581 32.6902C25.955 32.7537 25.7644 32.9272 25.6347 33.0761C25.0982 33.6919 23.1603 35.0223 22.9294 34.9338C22.6988 34.8454 22.7818 34.2857 23.0252 34.2857C23.0624 34.2857 23.0926 34.2104 23.0926 34.1179C23.0926 33.9956 23.3253 33.7147 23.953 33.0794C24.4263 32.6006 24.8137 32.1794 24.8137 32.1437C24.8137 32.1077 24.8616 32.0598 24.9201 32.0375C24.9787 32.015 25.5902 31.3574 26.2792 30.5766C28.6082 27.9362 29.2908 27.3735 30.0017 27.5068C30.296 27.562 30.7651 28.0332 30.8328 28.3419C30.9012 28.653 30.6309 30.0941 30.4284 30.4991C30.3811 30.5937 30.2887 30.8261 30.2238 31.0155C29.9304 31.8667 29.6186 32.6732 29.5598 32.7332C29.5244 32.7692 29.4954 32.8863 29.4954 32.9937C29.4954 33.1011 29.4448 33.2664 29.3829 33.3609C29.0257 33.9057 29.5833 33.4405 30.2439 32.642C30.4095 32.4423 30.6178 32.2452 30.7066 32.2047C30.7956 32.1644 30.9024 32.0278 30.9442 31.9015C30.986 31.7749 31.1141 31.6014 31.2287 31.5157C31.3437 31.43 31.6124 31.1777 31.8262 30.9554C33.0874 29.643 34.3095 29.3203 34.9693 30.1252C35.2703 30.4927 35.7848 31.5681 35.7742 31.8073C35.7504 32.327 36.4625 33.0507 36.7376 32.7869C36.8252 32.703 37.0747 32.4639 37.2924 32.2553C37.5102 32.0467 37.7365 31.8759 37.7954 31.8759C37.8543 31.8759 38.0775 31.6868 38.2916 31.4553C38.5057 31.2241 38.8473 30.9408 39.0508 30.8261C39.2539 30.7114 39.4454 30.5516 39.4759 30.4711C39.6766 29.9434 43.8661 26.2755 44.4914 26.0803C44.7613 25.9961 44.7726 25.9799 44.9153 25.4752C44.9961 25.19 45.0934 24.8996 45.1319 24.8301C45.1703 24.7605 45.3277 24.3268 45.4814 23.8663C45.83 22.8226 46.2738 21.766 46.4421 21.5788C46.5123 21.5004 46.5699 21.361 46.5702 21.2689C46.5702 21.1231 46.9533 20.478 47.2214 20.1718C47.2711 20.1148 47.3321 19.973 47.3568 19.8564C47.4242 19.5395 48.2197 18.4406 48.4634 18.3281C48.6625 18.2357 49.2539 18.2683 49.3198 18.3754ZM24.7423 19.9916C24.9082 20.4951 24.4458 23.6058 24.0469 24.6678C23.9301 24.978 23.8386 25.3257 23.8435 25.4404C23.848 25.5551 23.7724 26.0043 23.6748 26.4386C23.5772 26.8733 23.4674 27.4766 23.4308 27.7794C23.3649 28.3232 23.2777 28.9708 23.1621 29.7763C23.1295 30.0032 23.0535 30.7315 22.9934 31.394C22.9333 32.0567 22.8464 32.9553 22.8001 33.3908C22.7037 34.2982 22.6869 36.0898 22.7705 36.5793L22.8269 36.9108L23.0627 36.7312C24.4501 35.6728 25.7366 36.4997 25.1498 38.0723C25.0723 38.2806 25.0009 38.5441 24.9918 38.6576C24.9701 38.9235 24.7521 39.5912 24.6432 39.7248C24.5968 39.7815 24.4407 40.1643 24.2961 40.5751C24.1515 40.9856 23.9463 41.4504 23.8395 41.6078C23.7331 41.7649 23.6452 41.9729 23.6446 42.0699C23.6437 42.1834 23.5726 42.2983 23.4451 42.3926C23.3363 42.4731 23.2255 42.6262 23.199 42.7327C23.1264 43.0236 22.2029 44.5166 21.8802 44.8646C21.7246 45.0324 21.5645 45.2416 21.5242 45.33C21.4535 45.4853 20.1533 47.2226 19.6378 47.8503C18.1122 49.7086 18.1817 49.5677 17.9201 51.3273C17.5486 53.8246 17.8652 53.7993 19.2383 51.2226C19.5509 50.6355 19.8492 50.1304 19.9007 50.1003C19.9523 50.0701 19.9944 49.977 19.9947 49.8938C19.995 49.8105 20.0569 49.6495 20.1322 49.5357C20.2076 49.4222 20.3476 49.1697 20.4433 48.9745C20.6492 48.5554 20.9252 48.33 21.4334 48.1659C22.0891 47.9543 22.1754 48.0409 22.3999 49.1368C22.7812 50.9976 23.5674 51.5963 24.4693 50.7127C25.3096 49.8898 25.6399 49.5357 25.6399 49.4585C25.6399 49.4161 25.9266 49.1029 26.2768 48.7625C26.6269 48.4218 27.1393 47.8936 27.415 47.588C27.6904 47.2827 28.0546 46.9453 28.2239 46.8383C28.3928 46.7315 28.5313 46.6086 28.5313 46.565C28.5319 46.2948 29.5021 45.6289 30.0118 45.5493C30.7081 45.4405 30.9192 45.686 30.5721 46.2014C30.2399 46.6946 30.2472 46.7038 30.7819 46.461C32.2261 45.8062 33.9707 46.8264 33.9707 48.3258C33.9707 48.9785 33.3793 50.5934 33.1011 50.7002C33.0471 50.7206 32.9459 50.8701 32.8763 51.0317C32.8065 51.1934 32.4869 51.6045 32.166 51.9455C31.8451 52.2862 31.5459 52.6345 31.5008 52.7193C31.456 52.8041 31.3196 52.9249 31.1982 52.9877C31.0768 53.0505 30.7664 53.2726 30.508 53.4812C30.1347 53.7828 29.9666 53.8719 29.6882 53.9161C29.4954 53.9463 29.2725 54.0326 29.1929 54.1073C29.113 54.1821 28.893 54.2794 28.7036 54.3233C28.5142 54.3675 28.2446 54.4358 28.1043 54.4755C27.3677 54.6829 26.4222 54.276 26.0694 53.5992C25.919 53.3107 25.8287 52.1126 25.9223 51.6475C26.0145 51.1897 25.9532 51.1208 25.7204 51.4206C25.6213 51.5484 25.2757 51.8705 24.9531 52.1361C24.6304 52.4021 24.3254 52.6775 24.2757 52.7483C23.9618 53.1933 22.6128 53.3665 21.9528 53.0465C21.5642 52.8584 21.3919 52.6949 21.0268 52.1685C20.6855 51.6759 20.6239 51.682 20.1694 52.2514C19.9562 52.5186 19.7525 52.7373 19.7168 52.7373C19.6811 52.7373 19.6067 52.8449 19.5518 52.9767C19.2508 53.6974 17.8212 55.3603 17.415 55.4622C16.1779 55.7726 15.829 55.2517 15.829 53.0953C15.829 51.7817 15.8183 51.642 15.7256 51.7549C15.6689 51.8241 15.4831 51.9522 15.3126 52.0397C15.1421 52.1273 14.7502 52.3816 14.4415 52.6049C13.7297 53.1197 13.5473 53.1939 13.3753 53.0383C13.2029 52.8825 13.2139 52.7641 13.4192 52.5589C13.514 52.464 13.5915 52.3313 13.5915 52.2633C13.5915 52.1956 13.9246 51.7945 14.3314 51.3724C14.7386 50.95 15.1074 50.5654 15.1507 50.5175C15.1943 50.4699 15.4038 50.2915 15.6164 50.121C15.911 49.8846 16.0199 49.7458 16.0754 49.5357C16.1151 49.3841 16.2057 49.1017 16.2767 48.9074C16.3478 48.7134 16.3883 48.488 16.367 48.4066C16.3237 48.2404 16.9334 46.2246 17.0792 46.0535C17.1298 45.9937 17.1716 45.8757 17.1716 45.7912C17.1716 44.9528 19.4792 40.7404 20.9023 38.9815L21.3089 38.4788L21.1088 38.2242C20.8795 37.9317 20.7184 37.3476 20.7843 37.0478C20.813 36.9172 20.7901 36.7678 20.7215 36.6351C20.587 36.3746 20.5687 34.3015 20.6962 33.7272C20.7413 33.5232 20.7715 33.1627 20.7633 32.926C20.7444 32.3953 21.1418 28.5303 21.2385 28.3028C21.2784 28.2089 21.2912 27.9274 21.268 27.6489C21.1976 26.8059 21.1753 26.7235 21.0088 26.6997C20.784 26.6674 20.7145 26.1602 20.8572 25.5941C20.917 25.3571 20.9634 25.0533 20.96 24.9188C20.9524 24.6007 21.2199 23.4719 21.3345 23.3386C21.3833 23.2819 21.4376 23.0806 21.455 22.8912C21.5639 21.7115 22.6619 20.034 23.325 20.034C23.447 20.034 23.5812 19.9998 23.6233 19.9577C23.8993 19.6817 24.6474 19.7042 24.7423 19.9916ZM54.6503 22.0357C54.7509 22.115 54.8318 22.2479 54.8318 22.3346C54.8318 22.6008 54.5612 23.5634 54.453 23.6833C54.3962 23.7458 54.3499 23.8501 54.3499 23.9151C54.3499 24.2143 53.9107 24.799 53.5108 25.0326C52.3732 25.6972 51.5271 25.4447 51.5271 24.4403C51.5271 23.9139 52.3561 22.7881 52.744 22.7881C52.8499 22.7881 52.9283 22.7335 52.967 22.6332C53.1677 22.1116 54.2559 21.7255 54.6503 22.0357ZM44.0698 27.8999C43.9503 28.1201 43.2994 28.8445 43.1173 28.9598C43.0661 28.9921 42.9776 29.1013 42.9209 29.2019C42.8642 29.3026 42.5699 29.7006 42.267 30.0865C41.9638 30.472 41.668 30.8697 41.6094 30.9703C41.5508 31.071 41.3804 31.3345 41.2309 31.5562C40.9369 31.9918 40.8402 32.1537 40.7029 32.4383C40.6545 32.5393 40.4852 32.8491 40.3272 33.1267C39.7074 34.2155 39.9145 34.3937 40.7615 33.4997C41.0693 33.1749 41.356 32.9086 41.3983 32.9086C41.4404 32.9086 41.4752 32.8806 41.4752 32.8461C41.4752 32.7909 41.8412 32.3419 42.715 31.3254C43.0347 30.9536 43.214 30.6919 43.8005 29.7418C44.2309 29.0443 44.2486 28.9973 44.3047 28.4129C44.3367 28.0795 44.3809 27.7776 44.4032 27.7416C44.4255 27.7056 44.387 27.6763 44.3175 27.6763C44.2461 27.6763 44.1388 27.7733 44.0698 27.8999ZM23.2432 38.8015C23.0267 39.0254 22.6033 39.5802 22.3026 40.0346C22.0019 40.4891 21.5974 41.0777 21.4038 41.3428C21.2098 41.6078 20.9771 41.9641 20.8859 42.1346C20.7947 42.3048 20.5543 42.6229 20.3515 42.8412C20.0041 43.2149 19.9852 43.2536 20.0273 43.5031C20.0602 43.6977 20.0435 43.7968 19.9645 43.8758C19.905 43.935 19.8565 44.0131 19.8565 44.049C19.8565 44.0847 19.7058 44.4666 19.5216 44.8973C19.3371 45.3279 19.0806 46.0126 18.9513 46.4189L18.7164 47.1573L18.9022 46.9795C19.004 46.8816 19.2682 46.5491 19.4884 46.2408C19.7089 45.9324 20.153 45.3273 20.4753 44.896C20.7977 44.4645 21.0924 44.0619 21.1299 44.0009C21.1677 43.9399 21.3147 43.7288 21.4571 43.5318C21.5993 43.3344 21.7155 43.1575 21.7155 43.1389C21.7155 43.12 21.7945 42.9883 21.8909 42.8461C22.3267 42.2038 23.7327 39.2602 23.8163 38.8149C23.9054 38.3407 23.694 38.3358 23.2432 38.8015ZM57.201 44.7942C57.9049 45.0199 58.2112 45.9751 57.8348 46.7709C57.7357 46.9804 57.6545 47.1945 57.6545 47.2464C57.6545 47.3342 57.5017 47.5334 56.7362 48.4426C56.3915 48.8522 55.5107 49.6662 55.2106 49.8529C54.1873 50.4888 54.0241 50.7947 54.3505 51.4645C54.7772 52.3405 55.5775 52.5192 56.6563 51.98C56.997 51.8095 57.3456 51.6789 57.4307 51.6899C57.5292 51.7024 57.5856 51.6734 57.5856 51.61C57.5856 51.5551 57.8104 51.3199 58.0849 51.0872C58.3594 50.8545 58.6769 50.5797 58.7907 50.4766C58.9041 50.3732 59.1054 50.2454 59.2381 50.1924C59.3708 50.1393 59.5809 50.0087 59.7054 49.902C59.8295 49.7952 59.9671 49.7077 60.0107 49.7077C60.0543 49.7077 60.1537 49.6482 60.2321 49.5753C60.4294 49.3911 60.6917 49.3381 60.8464 49.4512C61.0324 49.5872 60.786 50.1289 60.3358 50.5721C60.1485 50.7566 59.9954 50.9622 59.9954 51.029C59.9954 51.0955 59.9103 51.1943 59.806 51.2486C59.702 51.3026 59.5465 51.4422 59.4604 51.5591C59.3747 51.6759 58.9801 52.0217 58.5836 52.3277C58.1871 52.6336 57.8354 52.9331 57.8019 52.9929C57.7067 53.1631 57.0516 53.6102 56.4843 53.892L55.9679 54.1485H54.9352C54.0073 54.1485 53.8744 54.1336 53.627 53.9997C53.4754 53.9179 53.2991 53.8344 53.2348 53.8139C52.9444 53.7221 52.275 52.6766 52.1789 52.1642C52.1182 51.8403 52.1045 51.843 51.6967 52.2624C51.1446 52.8297 49.8102 53.3522 49.6928 53.0469C49.6693 52.9849 49.486 52.8422 49.286 52.7293C48.9081 52.5158 48.6339 52.2459 48.0501 51.5121C47.4508 50.7581 46.7999 50.526 46.2878 50.8829C46.121 50.9988 45.8212 51.2016 45.6214 51.3337C45.3752 51.4962 45.1023 51.7842 44.775 52.2276C44.5093 52.5872 44.2458 52.8992 44.1894 52.9209C44.1327 52.9425 43.9112 53.1936 43.6965 53.4784C42.9496 54.4712 42.7211 54.678 42.3338 54.7134C41.5771 54.7826 41.4926 54.4011 41.9239 52.8568C42.8081 49.69 42.8498 48.7686 42.087 49.278C41.6161 49.5924 39.8325 51.3327 39.6144 51.6905C39.5522 51.7927 39.3179 52.0629 39.0938 52.2905C38.8699 52.518 38.4975 52.9364 38.266 53.2198C37.5209 54.1327 37.2747 54.3208 36.8249 54.3208C36.3427 54.3208 36.1737 54.2351 36.1737 53.9911C36.1737 53.6355 36.5553 52.0898 36.7181 51.7854C36.7596 51.7079 36.7935 51.5713 36.7935 51.4819C36.7935 51.3922 36.8847 51.0281 36.996 50.6727C37.1076 50.3171 37.1832 50.0011 37.164 49.9703C37.0664 49.8126 36.3784 50.0411 36.2981 50.2579C36.1923 50.5443 35.9495 50.8216 35.6311 51.0201C35.4563 51.129 35.0961 51.4401 34.8311 51.7116C34.566 51.983 34.2254 52.263 34.0738 52.3341C33.9225 52.4051 33.6745 52.557 33.5229 52.6714C33.0087 53.0597 32.9468 53.0914 32.7531 53.0691C32.4667 53.0365 32.4548 52.7611 32.7284 52.4991C32.8434 52.3887 32.938 52.2343 32.938 52.1563C32.9383 52.0257 33.6355 51.2678 34.6484 50.2973C34.8436 50.1103 35.0034 49.9246 35.0037 49.8843C35.0046 49.7666 37.6816 47.0768 38.1528 46.7208C39.5183 45.6884 40.2156 46.0956 39.8694 47.7231C39.8102 48.0006 39.741 48.398 39.7151 48.6064C39.6891 48.8147 39.6382 49.0623 39.6016 49.1572C39.4866 49.4564 39.422 49.9834 39.5064 49.9334C39.7541 49.7867 41.054 48.495 42.2624 47.1945C43.4855 45.8784 43.476 45.8845 44.3108 45.8241C45.1572 45.7628 45.1636 45.7705 45.1468 46.8505C45.1349 47.6389 44.8558 49.5247 44.6786 50.0176C44.4416 50.6755 44.5408 50.6297 45.5165 49.6324C46.4492 48.6789 47.1079 48.1547 47.4572 48.0879C47.556 48.0686 47.7597 48.0253 47.9095 47.9912C48.385 47.8832 49.1935 48.5088 49.397 49.1422C49.4421 49.2828 49.5168 49.4445 49.5632 49.5012C49.6096 49.558 49.777 49.8428 49.9359 50.1344C50.4379 51.0564 51.0373 51.2833 51.4091 50.6923C51.4389 50.6447 51.6033 50.5096 51.7744 50.3918C52.1154 50.1573 52.195 50.0075 52.2908 49.4201C52.3942 48.7872 52.6269 48.1196 52.8075 47.9393C52.8999 47.8469 52.9594 47.745 52.9395 47.713C52.8087 47.5013 54.3731 45.733 54.9178 45.4764C55.0599 45.4093 55.1761 45.3288 55.1761 45.2971C55.1761 44.8805 56.4684 44.5593 57.201 44.7942ZM55.4747 47.1524C54.7268 47.7521 53.9076 48.8754 54.087 49.055C54.1955 49.1636 54.6341 48.9815 54.754 48.7778C54.8269 48.6545 55.0697 48.4029 55.2938 48.2184C55.7257 47.8634 55.9334 47.5029 55.9334 47.1082C55.9334 46.8224 55.8797 46.8276 55.4747 47.1524ZM30.6282 48.3532C30.4324 48.4288 29.9822 48.887 29.4338 49.5692C29.2142 49.8422 29.184 49.8575 28.9348 49.8175C28.6841 49.7776 28.6692 49.7852 28.6692 49.9529C28.6692 50.0508 28.5954 50.2604 28.5054 50.4184C28.1705 51.0061 28.1135 52.4497 28.4148 52.7089C28.6792 52.9361 28.7854 52.9218 29.5293 52.5601C30.1997 52.234 31.5606 50.9756 31.5612 50.681C31.5612 50.6191 31.6533 50.336 31.7652 50.0521C32.2316 48.8717 31.6268 47.9686 30.6282 48.3532Z" fill="#080808"/>
</svg>
