<svg width="249" height="109" viewBox="0 0 249 109" fill="none" xmlns="http://www.w3.org/2000/svg">
<path d="M-150.432 31.984C-142.08 31.984 -135.504 34.672 -130.704 40.048C-125.808 45.328 -123.36 52.624 -123.36 61.936V106H-147.408V64.672C-147.408 57.952 -150.384 54.592 -156.336 54.592C-159.6 54.592 -162.096 55.696 -163.824 57.904C-165.456 60.016 -166.272 62.944 -166.272 66.688V106H-190.176V64.672C-190.176 57.952 -193.2 54.592 -199.248 54.592C-202.512 54.592 -205.008 55.696 -206.736 57.904C-208.368 60.016 -209.184 62.944 -209.184 66.688V106H-233.088V34H-209.184V40.768C-204.768 34.912 -198.288 31.984 -189.744 31.984C-181.488 31.984 -175.344 35.056 -171.312 41.2C-166.32 35.056 -159.36 31.984 -150.432 31.984ZM-59.7716 34H-35.8676V106H-59.7716V99.376C-64.6676 105.136 -71.4836 108.016 -80.2196 108.016C-89.8196 108.016 -97.8836 104.416 -104.412 97.216C-110.844 89.92 -114.06 80.848 -114.06 70C-114.06 59.152 -110.844 50.128 -104.412 42.928C-97.8836 35.632 -89.8196 31.984 -80.2196 31.984C-71.4836 31.984 -64.6676 34.864 -59.7716 40.624V34ZM-85.8356 81.376C-83.0516 84.256 -79.4036 85.696 -74.8916 85.696C-70.3796 85.696 -66.7316 84.256 -63.9476 81.376C-61.1636 78.496 -59.7716 74.704 -59.7716 70C-59.7716 65.296 -61.1636 61.504 -63.9476 58.624C-66.7316 55.744 -70.3796 54.304 -74.8916 54.304C-79.4036 54.304 -83.0516 55.744 -85.8356 58.624C-88.6196 61.504 -90.0116 65.296 -90.0116 70C-90.0116 74.704 -88.6196 78.496 -85.8356 81.376ZM49.1261 106H22.3421L1.89413 75.328V106H-22.0099V5.19999H1.89413V64.096L20.4701 34H48.1181L23.9261 70L49.1261 106ZM72.7084 78.784C75.1084 84.64 80.4844 87.568 88.8364 87.568C94.0204 87.568 98.3884 85.888 101.94 82.528L119.22 94.624C112.116 103.552 101.796 108.016 88.2604 108.016C76.0684 108.016 66.2764 104.464 58.8844 97.36C51.5884 90.16 47.9404 81.088 47.9404 70.144C47.9404 59.296 51.5404 50.224 58.7404 42.928C65.9404 35.632 75.1084 31.984 86.2444 31.984C96.9964 31.984 105.876 35.584 112.884 42.784C119.892 49.984 123.396 59.008 123.396 69.856C123.396 73.024 123.06 76 122.388 78.784H72.7084ZM72.4204 62.224H100.068C98.1484 55.504 93.6364 52.144 86.5324 52.144C79.1404 52.144 74.4364 55.504 72.4204 62.224ZM187.887 24.064C185.199 26.752 181.983 28.096 178.239 28.096C174.495 28.096 171.231 26.752 168.447 24.064C165.759 21.28 164.415 18.016 164.415 14.272C164.415 10.528 165.759 7.31199 168.447 4.62399C171.231 1.93599 174.495 0.591992 178.239 0.591992C181.983 0.591992 185.199 1.93599 187.887 4.62399C190.671 7.31199 192.063 10.528 192.063 14.272C192.063 18.016 190.671 21.28 187.887 24.064ZM166.287 106V34H190.191V106H166.287ZM248.615 56.896H233.639V77.776C233.639 80.944 234.791 82.912 237.095 83.68C239.399 84.448 243.239 84.688 248.615 84.4V106C234.311 107.728 224.231 106.432 218.375 102.112C212.615 97.696 209.735 89.776 209.735 78.352V56.896H198.935V34H209.735V21.04L233.639 13.84V34H248.615V56.896Z" fill="white" fill-opacity="0.025"/>
</svg>
