<svg width="857" height="216" viewBox="0 0 857 216" fill="none" xmlns="http://www.w3.org/2000/svg">
<path d="M166.136 62.968C182.84 62.968 195.992 68.344 205.592 79.096C215.384 89.656 220.28 104.248 220.28 122.872V211H172.184V128.344C172.184 114.904 166.232 108.184 154.328 108.184C147.8 108.184 142.808 110.392 139.352 114.808C136.088 119.032 134.456 124.888 134.456 132.376V211H86.648V128.344C86.648 114.904 80.6 108.184 68.504 108.184C61.976 108.184 56.984 110.392 53.528 114.808C50.264 119.032 48.632 124.888 48.632 132.376V211H0.824V67H48.632V80.536C57.464 68.824 70.424 62.968 87.512 62.968C104.024 62.968 116.312 69.112 124.376 81.4C134.36 69.112 148.28 62.968 166.136 62.968ZM347.457 67H395.265V211H347.457V197.752C337.665 209.272 324.033 215.032 306.561 215.032C287.361 215.032 271.233 207.832 258.177 193.432C245.313 178.84 238.881 160.696 238.881 139C238.881 117.304 245.313 99.256 258.177 84.856C271.233 70.264 287.361 62.968 306.561 62.968C324.033 62.968 337.665 68.728 347.457 80.248V67ZM295.329 161.752C300.897 167.512 308.193 170.392 317.217 170.392C326.241 170.392 333.537 167.512 339.105 161.752C344.673 155.992 347.457 148.408 347.457 139C347.457 129.592 344.673 122.008 339.105 116.248C333.537 110.488 326.241 107.608 317.217 107.608C308.193 107.608 300.897 110.488 295.329 116.248C289.761 122.008 286.977 129.592 286.977 139C286.977 148.408 289.761 155.992 295.329 161.752ZM565.252 211H511.684L470.788 149.656V211H422.98V9.39999H470.788V127.192L507.94 67H563.236L514.852 139L565.252 211ZM612.417 156.568C617.217 168.28 627.969 174.136 644.673 174.136C655.041 174.136 663.777 170.776 670.881 164.056L705.441 188.248C691.233 206.104 670.593 215.032 643.521 215.032C619.137 215.032 599.553 207.928 584.769 193.72C570.177 179.32 562.881 161.176 562.881 139.288C562.881 117.592 570.081 99.448 584.481 84.856C598.881 70.264 617.217 62.968 639.489 62.968C660.993 62.968 678.753 70.168 692.769 84.568C706.785 98.968 713.793 117.016 713.793 138.712C713.793 145.048 713.121 151 711.777 156.568H612.417ZM611.841 123.448H667.137C663.297 110.008 654.273 103.288 640.065 103.288C625.281 103.288 615.873 110.008 611.841 123.448ZM842.774 47.128C837.398 52.504 830.966 55.192 823.478 55.192C815.99 55.192 809.462 52.504 803.894 47.128C798.518 41.56 795.83 35.032 795.83 27.544C795.83 20.056 798.518 13.624 803.894 8.24798C809.462 2.87198 815.99 0.183985 823.478 0.183985C830.966 0.183985 837.398 2.87198 842.774 8.24798C848.342 13.624 851.126 20.056 851.126 27.544C851.126 35.032 848.342 41.56 842.774 47.128ZM799.574 211V67H847.382V211H799.574ZM964.229 112.792H934.277V154.552C934.277 160.888 936.581 164.824 941.189 166.36C945.797 167.896 953.477 168.376 964.229 167.8V211C935.621 214.456 915.461 211.864 903.749 203.224C892.229 194.392 886.469 178.552 886.469 155.704V112.792H864.869V67H886.469V41.08L934.277 26.68V67H964.229V112.792Z" fill="white" fill-opacity="0.025"/>
</svg>
