<svg width="329" height="109" viewBox="0 0 329 109" fill="none" xmlns="http://www.w3.org/2000/svg">
<path d="M83.568 31.984C91.92 31.984 98.496 34.672 103.296 40.048C108.192 45.328 110.64 52.624 110.64 61.936V106H86.592V64.672C86.592 57.952 83.616 54.592 77.664 54.592C74.4 54.592 71.904 55.696 70.176 57.904C68.544 60.016 67.728 62.944 67.728 66.688V106H43.824V64.672C43.824 57.952 40.8 54.592 34.752 54.592C31.488 54.592 28.992 55.696 27.264 57.904C25.632 60.016 24.816 62.944 24.816 66.688V106H0.912V34H24.816V40.768C29.232 34.912 35.712 31.984 44.256 31.984C52.512 31.984 58.656 35.056 62.688 41.2C67.68 35.056 74.64 31.984 83.568 31.984ZM174.228 34H198.132V106H174.228V99.376C169.332 105.136 162.516 108.016 153.78 108.016C144.18 108.016 136.116 104.416 129.588 97.216C123.156 89.92 119.94 80.848 119.94 70C119.94 59.152 123.156 50.128 129.588 42.928C136.116 35.632 144.18 31.984 153.78 31.984C162.516 31.984 169.332 34.864 174.228 40.624V34ZM148.164 81.376C150.948 84.256 154.596 85.696 159.108 85.696C163.62 85.696 167.268 84.256 170.052 81.376C172.836 78.496 174.228 74.704 174.228 70C174.228 65.296 172.836 61.504 170.052 58.624C167.268 55.744 163.62 54.304 159.108 54.304C154.596 54.304 150.948 55.744 148.164 58.624C145.38 61.504 143.988 65.296 143.988 70C143.988 74.704 145.38 78.496 148.164 81.376ZM283.126 106H256.342L235.894 75.328V106H211.99V5.19999H235.894V64.096L254.47 34H282.118L257.926 70L283.126 106ZM306.708 78.784C309.108 84.64 314.484 87.568 322.836 87.568C328.02 87.568 332.388 85.888 335.94 82.528L353.22 94.624C346.116 103.552 335.796 108.016 322.26 108.016C310.068 108.016 300.276 104.464 292.884 97.36C285.588 90.16 281.94 81.088 281.94 70.144C281.94 59.296 285.54 50.224 292.74 42.928C299.94 35.632 309.108 31.984 320.244 31.984C330.996 31.984 339.876 35.584 346.884 42.784C353.892 49.984 357.396 59.008 357.396 69.856C357.396 73.024 357.06 76 356.388 78.784H306.708ZM306.42 62.224H334.068C332.148 55.504 327.636 52.144 320.532 52.144C313.14 52.144 308.436 55.504 306.42 62.224ZM421.887 24.064C419.199 26.752 415.983 28.096 412.239 28.096C408.495 28.096 405.231 26.752 402.447 24.064C399.759 21.28 398.415 18.016 398.415 14.272C398.415 10.528 399.759 7.31199 402.447 4.62399C405.231 1.93599 408.495 0.591992 412.239 0.591992C415.983 0.591992 419.199 1.93599 421.887 4.62399C424.671 7.31199 426.063 10.528 426.063 14.272C426.063 18.016 424.671 21.28 421.887 24.064ZM400.287 106V34H424.191V106H400.287ZM482.615 56.896H467.639V77.776C467.639 80.944 468.791 82.912 471.095 83.68C473.399 84.448 477.239 84.688 482.615 84.4V106C468.311 107.728 458.231 106.432 452.375 102.112C446.615 97.696 443.735 89.776 443.735 78.352V56.896H432.935V34H443.735V21.04L467.639 13.84V34H482.615V56.896Z" fill="white" fill-opacity="0.025"/>
</svg>
