<svg width="175" height="50" viewBox="0 0 175 50" fill="none" xmlns="http://www.w3.org/2000/svg">
<path d="M5.6582 15.154C6.01176 13.4412 6.35627 12.0047 6.42396 11.9622C6.49132 11.9197 6.5694 11.8845 6.59722 11.8835C6.62503 11.8828 7.29595 12.9179 8.08784 14.184C10.243 17.6292 11.181 19.1205 14.3027 24.0609C15.868 26.5388 18.1522 30.1927 19.3784 32.1802C20.605 34.1681 21.8104 36.1205 22.0581 36.5191C22.6231 37.4293 21.8322 38.4665 27.4063 29.507C30.8678 23.9427 34.0682 18.6069 36.653 14.0893C37.7683 12.1403 38.2609 11.4825 38.2609 11.9426C38.2609 11.9758 39.8564 18.8587 41.8068 27.2378C43.7569 35.6172 45.3528 42.4961 45.3528 42.525C45.3528 42.5535 44.0277 42.5771 42.4081 42.5771H39.4633L39.4124 42.3542C39.2616 41.6915 38.6061 38.6698 38.2633 37.0556C38.0464 36.0354 37.776 34.7771 37.6621 34.2598C37.5484 33.7423 37.1805 32.0268 36.845 30.4475C36.086 26.8747 36.1111 26.9179 35.4549 28.0463C33.3021 31.7507 28.8453 39.2056 27.5967 41.1908C23.4398 47.7996 22.5343 49.2055 22.4767 49.1397C22.2478 48.8783 12.3573 33.2672 10.4629 30.1767C9.1723 28.0716 8.89046 27.7444 8.75541 28.1948C8.72692 28.2902 8.51915 29.3263 8.29395 30.497C8.06874 31.668 7.71184 33.4948 7.50105 34.5568C7.29026 35.6189 6.86063 37.813 6.54595 39.4332L5.97423 42.3791H2.98728H0L0.0512728 42.1562C0.0794231 42.0336 0.395446 40.5075 0.753692 38.7651C1.68801 34.2223 2.08379 32.3201 2.248 31.5863C2.32709 31.2321 2.84217 28.7592 3.39244 26.0907C3.94271 23.4224 4.53287 20.5708 4.70411 19.7536C4.87503 18.9367 5.30465 16.8671 5.6582 15.154Z" fill="#202020" fill-opacity="0.15"/>
<path fill-rule="evenodd" clip-rule="evenodd" d="M5.49768 0.0362099C5.49768 0.0561419 6.17061 1.24343 6.993 2.67455L7.2594 3.13762C8.17671 4.73119 8.45035 5.20655 8.32327 5.36959C8.26925 5.4389 8.1428 5.45177 7.96261 5.47011C7.92389 5.47405 7.88268 5.47824 7.83918 5.4833C7.53087 5.51918 6.95111 5.59691 6.55097 5.65604L5.82309 5.76334L7.51546 8.50068C8.44643 10.0065 9.242 11.2729 9.28322 11.3154C9.32478 11.3576 9.81573 11.324 10.3744 11.241C10.4728 11.2264 10.5643 11.2124 10.6496 11.1994C11.2634 11.1057 11.5519 11.0617 11.7609 11.1704C11.9462 11.2668 12.0691 11.4834 12.3009 11.8919C12.3372 11.9557 12.3761 12.0242 12.4183 12.0977L12.5026 12.2442C12.7831 12.7306 12.9231 12.9734 12.8539 13.1111C12.785 13.2483 12.5085 13.2813 11.9565 13.3472L11.7906 13.3671L11.7756 13.3689C11.0462 13.4576 10.7316 13.4959 10.6725 13.6393C10.6278 13.7481 10.73 13.9175 10.9098 14.2152L10.9146 14.2232C11.1073 14.5421 11.7172 15.5639 12.2702 16.4941L13.2759 18.1853L14.2561 18.0574C14.363 18.0434 14.4619 18.0301 14.5537 18.0177C15.1971 17.931 15.4902 17.8915 15.6987 18.0061C15.8732 18.1021 15.9883 18.306 16.1998 18.6805C16.2358 18.7444 16.2747 18.8132 16.3171 18.8873L16.4174 19.0617C16.6645 19.4901 16.7911 19.7097 16.729 19.8373C16.6637 19.9714 16.3898 20.004 15.828 20.0708L15.6113 20.0968C15.048 20.1656 14.5875 20.244 14.5875 20.2712C14.5875 20.2984 15.1157 21.211 15.7611 22.2989L16.9347 24.2769L17.6341 24.2011C18.0185 24.1593 18.5554 24.1221 18.8268 24.1177L19.3205 24.1104L20.7746 26.6418C21.5745 28.0341 22.2987 29.2771 22.3838 29.404C22.5366 29.6313 22.55 29.6153 23.2293 28.4074C23.609 27.7324 24.4713 26.2219 25.1456 25.0512L26.3714 22.9222L27.5819 22.8232L28.7924 22.7242L30.0923 20.5164C30.8071 19.3018 31.3674 18.284 31.3373 18.2541C31.3071 18.2242 30.8738 18.2551 30.3745 18.3228C30.2941 18.3337 30.2195 18.3443 30.1505 18.3541C29.7709 18.408 29.5633 18.4375 29.504 18.3573C29.4324 18.2605 29.5766 18.004 29.8948 17.438C29.9427 17.3529 29.9945 17.2608 30.0501 17.1611L30.7193 15.9612L31.8179 15.8413L32.9167 15.721L34.5149 12.9957C35.3939 11.4968 36.1285 10.2311 36.1473 10.1829C36.1667 10.1328 35.7073 10.1235 35.0736 10.1617C34.464 10.1986 33.9657 10.2015 33.9657 10.1687C33.9657 9.90821 35.413 7.82099 35.5987 7.81368C35.717 7.80903 36.2378 7.75356 36.7566 7.69011L37.6996 7.57483L39.6728 4.21097C40.7579 2.36062 41.6369 0.83947 41.6262 0.829837C41.6158 0.820535 41.0002 0.91488 40.2586 1.03979C38.8591 1.27498 38.7673 1.27698 38.9285 1.0667C38.9818 0.997598 39.1473 0.728847 39.2964 0.470395L39.5676 0H22.5326C13.1633 0 5.49768 0.0162779 5.49768 0.0362099ZM35.8641 4.25781C36.3725 3.30473 36.9208 2.29085 37.0826 2.00516L37.3765 1.48527L37.1443 1.49756C37.0166 1.50454 36.6875 1.5444 36.4127 1.58692C36.1382 1.62911 35.2167 1.75734 34.3651 1.87195C32.5327 2.11844 30.5672 2.38719 28.5715 2.66391C26.6181 2.93466 24.7216 3.19411 21.6794 3.60637C17.3915 4.18772 15.5574 4.45148 15.5155 4.49301C15.4937 4.5146 15.6542 5.12784 15.8727 5.8557C16.0916 6.58321 16.4595 7.83229 16.6911 8.6309C16.9227 9.42951 17.1418 10.1305 17.178 10.1886C17.2239 10.262 17.6549 10.2351 18.5876 10.1012C19.3268 9.99524 20.6281 9.81851 21.4797 9.70856C22.3312 9.5986 23.6797 9.41788 24.4763 9.30659C25.2729 9.19531 26.599 9.01392 27.4231 8.9033C28.7511 8.72524 29.6349 8.60399 32.4673 8.21166C32.6607 8.18487 32.8231 8.17019 32.9633 8.15752C33.2129 8.13498 33.392 8.11879 33.5497 8.05197C33.9507 7.88201 34.213 7.38448 35.1421 5.62153C35.3473 5.23208 35.5851 4.78088 35.8641 4.25781ZM32.5672 10.4431C32.5672 10.4686 31.9325 11.7523 31.157 13.296L29.7468 16.1027L26.2873 16.531C24.3848 16.7665 22.0192 17.0601 21.0303 17.1837C20.0413 17.3073 19.2169 17.3937 19.1982 17.3757C19.1549 17.3339 17.9552 13.3877 17.7709 12.6804C17.7337 12.5379 18.2136 12.4592 25.9747 11.3353L26.059 11.3231C27.2279 11.1539 27.6752 11.0892 28.1221 11.0221C28.3992 10.9806 28.6761 10.9381 29.1246 10.8694L29.2709 10.847C31.7083 10.4733 32.5672 10.368 32.5672 10.4431ZM27.1865 20.8379C27.7836 19.6264 28.2719 18.6065 28.2719 18.5717C28.2719 18.4869 27.716 18.5252 26.6238 18.6849C26.1295 18.7574 25.1854 18.8809 24.5263 18.96C23.8671 19.0391 22.8108 19.1736 22.1787 19.2593C21.547 19.3447 20.7498 19.4497 20.4073 19.4922C20.0648 19.5347 19.7638 19.5899 19.7387 19.6148C19.7136 19.6397 19.9569 20.5722 20.2789 21.687L20.8647 23.7145L21.2471 23.6882C21.6563 23.66 23.1201 23.4693 24.9643 23.2045L26.1013 23.0411L27.1865 20.8379Z" fill="#202020" fill-opacity="0.15"/>
<path fill-rule="evenodd" clip-rule="evenodd" d="M110.681 17.3216C110.556 17.5917 107.969 23.4577 105.558 28.936C104.9 30.4336 104.252 31.8983 104.12 32.1909C103.988 32.4833 103.88 32.7394 103.88 32.7603C103.88 32.8842 106.177 32.7842 106.308 32.6543C106.388 32.5753 106.843 31.5395 107.319 30.3522C108.42 27.6109 108.095 27.8471 110.768 27.8471C113.358 27.8471 113.064 27.6757 113.829 29.629C114.134 30.4063 114.549 31.4262 114.752 31.8953L115.119 32.7484L116.345 32.7759L117.57 32.8038L117.431 32.4789C117.355 32.3002 116.437 30.1489 115.392 27.6982C110.136 15.3779 110.851 16.9536 110.681 17.3216ZM150.128 17.4539C144.598 18.1767 141.364 23.1644 143.25 28.0593C145.724 34.4765 155.219 34.8731 158.315 28.6885C161.052 23.2212 156.264 16.6513 150.128 17.4539ZM74.3076 23.2547L71.571 28.9746L68.758 23.3398C67.2107 20.2407 65.9048 17.6917 65.8555 17.6754C65.8062 17.6591 65.5264 18.8607 65.2335 20.3453C64.9409 21.8299 64.5301 23.9135 64.3206 24.9755C64.1112 26.0372 63.6893 28.165 63.3833 29.7037C63.077 31.2422 62.8267 32.5676 62.8267 32.6494C62.8267 32.7713 63.0033 32.7979 63.8133 32.7979C64.896 32.7979 64.9604 32.767 65.0535 32.2035C65.1397 31.6827 65.701 28.6267 65.9175 27.5003C66.0221 26.9558 66.2305 25.8529 66.3803 25.0496C66.6983 23.3474 66.6832 23.361 67.1487 24.3566C67.634 25.3944 71.511 33.3201 71.5543 33.3629C71.573 33.3815 72.2084 32.0703 72.9661 30.4485C73.7238 28.8271 74.5432 27.077 74.7868 26.5598C75.0308 26.0422 75.4554 25.129 75.7305 24.5297C76.3743 23.1285 76.3542 23.1391 76.5529 24.1032C76.6464 24.5556 77.0744 26.6306 77.504 28.7138C77.934 30.7973 78.3411 32.5683 78.4095 32.6497C78.6092 32.8885 80.5392 32.8646 80.4705 32.6244C80.383 32.3198 80.1562 31.298 78.4648 23.5893C78.1598 22.2003 77.8663 20.8862 77.812 20.6682C77.758 20.4503 77.5942 19.7151 77.448 19.0345C77.3019 18.3538 77.1515 17.7379 77.1136 17.6658C77.0727 17.5881 75.9313 19.862 74.3076 23.2547ZM162.614 25.1685V32.7979H163.713H164.812L164.813 27.8222L164.815 22.8465L166.688 24.728C167.718 25.7625 170.009 28.0796 171.78 29.8768L174.999 33.1443L174.999 25.4456L175 17.7472H173.901H172.803L172.799 22.7724L172.796 27.7972L171.426 26.4063C170.672 25.6413 168.44 23.3687 166.465 21.3565C164.49 19.3441 162.815 17.6621 162.744 17.6186C162.638 17.5538 162.614 18.9371 162.614 25.1685ZM83.4035 25.2725V32.7979H87.7484H92.0936V31.8571V30.9163H88.8472H85.6009V28.4905V26.0645H88.5476H91.4944V25.124V24.1832H88.5476H85.6009V21.9073V19.6314L88.5225 19.6052L91.4444 19.5789L91.4729 18.6631L91.5017 17.7472H87.4525H83.4035V25.2725ZM94.8905 18.688V19.6284H96.239H97.5872V26.213V32.7979H98.6861H99.785V26.213V19.6284H101.133H102.482V18.688V17.7472H98.6861H94.8905V18.688ZM118.963 18.688V19.6284H120.312H121.66V26.213V32.7979H122.759H123.858V26.216V19.6344L125.181 19.6065L126.505 19.5789L126.533 18.6631L126.562 17.7472H122.763H118.963V18.688ZM129.576 25.24L129.601 32.7484L130.674 32.7763L131.746 32.8045L131.772 29.4905L131.799 26.1764L134.572 29.2729C136.097 30.9757 137.45 32.467 137.578 32.5866C137.797 32.7899 137.892 32.8022 139.046 32.7763L140.28 32.7484L139.086 31.4026C138.429 30.6625 137.111 29.1785 136.157 28.1052C135.203 27.0318 134.442 26.1342 134.466 26.111C134.489 26.0874 134.85 26.0037 135.266 25.9246C139.473 25.1267 140.052 19.4228 136.069 18.0126C135.55 17.8286 135.209 17.8053 132.522 17.7704L129.55 17.7316L129.576 25.24ZM152.364 19.4809C155.547 20.3031 157.35 23.3036 156.664 26.6382C156.087 29.441 153.864 31.2136 150.927 31.2136C143.714 31.2136 142.796 20.8579 149.878 19.3956C150.371 19.2939 151.834 19.3444 152.364 19.4809ZM133.597 19.6716C135.978 19.7723 136.735 20.3958 136.621 22.1621C136.519 23.7331 135.914 24.1185 133.472 24.168L131.749 24.2028V21.8725V19.5421L132.074 19.5813C132.252 19.6032 132.938 19.6437 133.597 19.6716ZM111.603 24.0371L112.345 25.916L110.796 25.9436C109.944 25.9585 109.231 25.9559 109.213 25.9379C109.181 25.906 110.6 22.3993 110.728 22.1934C110.821 22.0455 110.793 21.9884 111.603 24.0371Z" fill="#202020" fill-opacity="0.15"/>
</svg>
