<svg width="28" height="28" viewBox="0 0 28 28" fill="none" xmlns="http://www.w3.org/2000/svg">
<path d="M14 2.5235C17.738 2.5235 18.1813 2.5375 19.6583 2.60517C23.4523 2.77783 25.2245 4.578 25.3972 8.344C25.4648 9.81983 25.4777 10.2632 25.4777 14.0012C25.4777 17.7403 25.4637 18.1825 25.3972 19.6583C25.2233 23.4208 23.4558 25.2245 19.6583 25.3972C18.1813 25.4648 17.7403 25.4788 14 25.4788C10.262 25.4788 9.81867 25.4648 8.34283 25.3972C4.5395 25.2233 2.77667 23.415 2.604 19.6572C2.53633 18.1813 2.52233 17.7392 2.52233 14C2.52233 10.262 2.5375 9.81983 2.604 8.34283C2.77783 4.578 4.54533 2.77667 8.34283 2.604C9.81983 2.5375 10.262 2.5235 14 2.5235ZM14 0C10.1978 0 9.72183 0.0163333 8.2285 0.084C3.14417 0.317333 0.3185 3.13833 0.0851667 8.22733C0.0163333 9.72183 0 10.1978 0 14C0 17.8022 0.0163333 18.2793 0.084 19.7727C0.317333 24.857 3.13833 27.6827 8.22733 27.916C9.72183 27.9837 10.1978 28 14 28C17.8022 28 18.2793 27.9837 19.7727 27.916C24.8523 27.6827 27.685 24.8617 27.9148 19.7727C27.9837 18.2793 28 17.8022 28 14C28 10.1978 27.9837 9.72183 27.916 8.2285C27.6873 3.14883 24.8628 0.3185 19.7738 0.0851667C18.2793 0.0163333 17.8022 0 14 0V0ZM14 6.811C10.0298 6.811 6.811 10.0298 6.811 14C6.811 17.9702 10.0298 21.1902 14 21.1902C17.9702 21.1902 21.189 17.9713 21.189 14C21.189 10.0298 17.9702 6.811 14 6.811ZM14 18.6667C11.4228 18.6667 9.33333 16.5783 9.33333 14C9.33333 11.4228 11.4228 9.33333 14 9.33333C16.5772 9.33333 18.6667 11.4228 18.6667 14C18.6667 16.5783 16.5772 18.6667 14 18.6667ZM21.4737 4.8475C20.545 4.8475 19.7925 5.6 19.7925 6.5275C19.7925 7.455 20.545 8.2075 21.4737 8.2075C22.4012 8.2075 23.1525 7.455 23.1525 6.5275C23.1525 5.6 22.4012 4.8475 21.4737 4.8475Z" fill="white"/>
</svg>
