<svg width="45" height="26" viewBox="0 0 45 26" fill="none" xmlns="http://www.w3.org/2000/svg">
<g clip-path="url(#clip0)">
<path fill-rule="evenodd" clip-rule="evenodd" d="M6.62683 0.131887C3.44111 0.458273 0.776663 2.8745 0.142067 6.01248C-0.00736094 6.7512 6.05929e-05 6.26268 6.05929e-05 15.3455V23.694H2.19562H4.39117L4.39871 15.4232L4.40635 7.15245L4.46107 6.91966C4.80069 5.47294 5.95767 4.52628 7.38537 4.52717C8.80942 4.52806 9.93395 5.41561 10.3156 6.84004L10.3716 7.04898L10.3864 13.257C10.4027 20.027 10.3932 19.6029 10.5446 20.3044C11.4424 24.4624 15.7555 26.8915 19.777 25.5039C22.2124 24.6636 24.0039 22.5257 24.4256 19.9563C24.5139 19.4175 24.5177 19.1505 24.5179 13.2828C24.5182 6.92743 24.5122 7.19947 24.6613 6.72547C24.9927 5.6719 25.8438 4.87651 26.9376 4.59837C27.2141 4.52806 28.0385 4.51342 28.2898 4.57441C29.4375 4.85278 30.285 5.60647 30.6387 6.66359C30.8053 7.16132 30.7958 6.76274 30.7962 13.2667C30.7964 16.9119 30.8065 19.3292 30.8224 19.5683C31.1311 24.2222 35.8936 27.1639 40.1969 25.3588C42.1672 24.5324 43.6675 22.7261 44.1364 20.6159C44.3014 19.8734 44.2912 20.2661 44.3008 14.2333L44.3094 8.74323H42.0997H39.8899V13.9922C39.8899 19.587 39.8927 19.4624 39.7591 19.8787C39.0819 21.989 36.0498 21.9869 35.345 19.8757C35.2112 19.4748 35.2137 19.6047 35.2137 13.2022C35.2137 9.27712 35.2045 7.10387 35.1871 6.92887C34.7517 2.54069 30.6905 -0.548277 26.3522 0.208853C23.3377 0.734974 20.9005 3.08389 20.2708 6.07015C20.105 6.85623 20.1169 6.36449 20.101 13.1147L20.0866 19.2579L20.0299 19.458C19.5144 21.275 17.5079 22.0429 15.9629 21.0146C15.4558 20.677 15.0472 20.086 14.8736 19.439L14.8181 19.232L14.8036 13.0112C14.7874 6.06616 14.8035 6.67047 14.6137 5.83105C13.798 2.22273 10.3354 -0.248064 6.62683 0.131887Z" fill="white"/>
</g>
<circle cx="42" cy="3" r="3" fill="white"/>
<defs>
<clipPath id="clip0">
<rect width="44.3077" height="25.8923" fill="white"/>
</clipPath>
</defs>
</svg>
