<svg width="24" height="20" viewBox="0 0 24 20" fill="none" xmlns="http://www.w3.org/2000/svg">
<path fill-rule="evenodd" clip-rule="evenodd" d="M18.3839 19.7791C18.7059 20.007 19.1209 20.064 19.4909 19.924C19.8609 19.783 20.1329 19.4671 20.2149 19.084C21.0839 15 23.1919 4.66303 23.9829 0.948026C24.0429 0.668027 23.9429 0.377027 23.7229 0.190029C23.5029 0.00302567 23.1979 -0.0509745 22.9259 0.0500271C18.7329 1.60203 5.81993 6.44705 0.54191 8.40003C0.206909 8.52401 -0.0110904 8.84604 -9.04262e-05 9.19903C0.0119096 9.55303 0.24991 9.86004 0.59291 9.96305C2.95991 10.6711 6.06689 11.656 6.06689 11.656C6.06689 11.656 7.51889 16.0411 8.2759 18.271C8.37089 18.551 8.58992 18.771 8.87892 18.847C9.16692 18.922 9.47489 18.8431 9.68993 18.64C10.9059 17.492 12.7859 15.7171 12.7859 15.7171C12.7859 15.7171 16.3579 18.336 18.3839 19.7791ZM7.37393 11.102L9.05292 16.64L9.42593 13.133C9.42593 13.133 15.9129 7.28201 19.6109 3.94702C19.7189 3.84905 19.7339 3.68503 19.6439 3.57003C19.5549 3.45502 19.3909 3.42804 19.2679 3.50604C14.9819 6.24305 7.37393 11.102 7.37393 11.102Z" fill="white"/>
</svg>
