<svg width="28" height="24" viewBox="0 0 28 24" fill="none" xmlns="http://www.w3.org/2000/svg">
<path fill-rule="evenodd" clip-rule="evenodd" d="M21.4478 23.5756C21.8234 23.8416 22.3076 23.908 22.7392 23.7447C23.1709 23.5802 23.4882 23.2116 23.5839 22.7647C24.5978 18 27.0571 5.94023 27.9799 1.60605C28.0499 1.27939 27.9332 0.939885 27.6766 0.721721C27.4199 0.50355 27.0641 0.44055 26.7468 0.558385C21.8549 2.36905 6.78976 8.02158 0.632066 10.3C0.241232 10.4447 -0.0131016 10.8204 -0.000268258 11.2322C0.0137317 11.6452 0.291399 12.0034 0.691566 12.1236C3.45307 12.9496 7.07788 14.0987 7.07788 14.0987C7.07788 14.0987 8.77188 19.2146 9.65506 21.8162C9.76588 22.1429 10.0214 22.3996 10.3586 22.4882C10.6946 22.5757 11.0539 22.4836 11.3048 22.2467C12.7234 20.9074 14.9168 18.8366 14.9168 18.8366C14.9168 18.8366 19.0841 21.892 21.4478 23.5756ZM8.60276 13.4524L10.5616 19.9134L10.9968 15.8219C10.9968 15.8219 18.5649 8.9957 22.8792 5.10487C23.0052 4.99058 23.0228 4.79923 22.9178 4.66505C22.8139 4.53087 22.6226 4.4994 22.4791 4.5904C17.4788 7.78358 8.60276 13.4524 8.60276 13.4524Z" fill="white"/>
</svg>
