<svg width="28" height="28" viewBox="0 0 28 28" fill="none" xmlns="http://www.w3.org/2000/svg">
<path d="M0.0666504 28L2.03482 20.8098C0.82032 18.7052 0.18215 16.3194 0.183317 13.8728C0.186817 6.22418 6.41097 0 14.0585 0C17.7697 0.00116666 21.2533 1.44666 23.8737 4.06934C26.4928 6.692 27.9348 10.178 27.9337 13.8856C27.9301 21.5355 21.706 27.7596 14.0585 27.7596C11.7368 27.7585 9.44897 27.1764 7.4225 26.0704L0.0666504 28ZM7.76315 23.5585C9.7185 24.7194 11.5851 25.4146 14.0538 25.4158C20.4098 25.4158 25.5875 20.2428 25.591 13.8834C25.5933 7.511 20.4401 2.345 14.0631 2.34266C7.7025 2.34266 2.52832 7.51565 2.52598 13.874C2.52482 16.4698 3.28548 18.4135 4.56298 20.447L3.39748 24.703L7.76315 23.5585ZM21.048 17.1838C20.9617 17.0392 20.7307 16.9528 20.383 16.779C20.0365 16.6052 18.332 15.7664 18.0135 15.6508C17.6961 15.5354 17.4651 15.477 17.233 15.8246C17.002 16.1712 16.337 16.9528 16.1351 17.1838C15.9333 17.4148 15.7303 17.444 15.3838 17.2702C15.0373 17.0964 13.9197 16.7312 12.5955 15.5494C11.5653 14.63 10.8688 13.4948 10.667 13.1472C10.4651 12.8006 10.646 12.6128 10.8187 12.4402C10.975 12.285 11.1651 12.0354 11.339 11.8324C11.5151 11.6316 11.5723 11.487 11.689 11.2548C11.8045 11.0238 11.7473 10.8208 11.6598 10.647C11.5723 10.4744 10.8793 8.76747 10.5911 8.07335C10.3088 7.39782 10.023 7.48882 9.81068 7.47835L9.14568 7.46665C8.91468 7.46665 8.53897 7.553 8.22168 7.90065C7.90433 8.24835 7.00833 9.086 7.00833 10.7928C7.00833 12.4996 8.2508 14.1482 8.4235 14.3792C8.59733 14.6102 10.8677 18.1125 14.3455 19.614C15.1727 19.971 15.819 20.1845 16.3218 20.3444C17.1525 20.608 17.9085 20.5706 18.5058 20.482C19.172 20.3828 20.5568 19.6432 20.8461 18.8335C21.1355 18.0226 21.1355 17.3285 21.048 17.1838Z" fill="white"/>
</svg>
