<svg width="134" height="48" fill="none" xmlns="http://www.w3.org/2000/svg"><path fill-rule="evenodd" clip-rule="evenodd" d="M35.67.463c0 .022-.225.037-.5.033-.276-.004-.53.022-.567.057-.062.06-.088 3.039-.05 5.556.033 2.165.065 10.586.043 11.36-.027.954-.034 2.443-.022 4.957.008 1.632.016 4.18.019 5.661.002 1.482.008 3.44.013 4.353.007 1.17-.016 1.659-.076 1.658-.047 0-.718.008-1.492.02-.773.01-3.144.018-5.27.016-2.125-.002-4.637.002-5.582.01-.945.009-3.123.019-4.841.023l-4.92.016c-.987.005-2.366.01-3.064.012-1.339.002-1.317-.004-1.286.364.005.065-.03.282-.079.483-.048.202-.064.406-.035.454.081.135.07 2.421-.013 2.47-.04.025-.05.203-.02.407.028.199.056.797.062 1.329.012 1.06.06 1.183.456 1.192.607.015 9.31-.022 17.602-.075 1.396-.009 3.521-.017 4.724-.018 1.202-.002 3.38-.009 4.84-.016a870.78 870.78 0 014.083-.012l1.428.002.053-.194c.062-.235.059.08.047-4.06-.005-1.868-.012-4.801-.014-6.519a665.865 665.865 0 00-.022-4.763 583.02 583.02 0 01-.012-5.27c.003-1.997-.008-4.21-.023-4.92-.016-.708-.019-3.237-.007-5.62.036-7.235.002-8.807-.197-8.879-.184-.066-5.276-.15-5.277-.087zM23.626.365c-.028.027-2.028.042-4.445.033L14.592.38a403.202 403.202 0 00-6.69-.114c-.526-.005-.984.009-1.02.03C6.844.32 6.658.3 6.468.254a2.411 2.411 0 00-1.16.044c-.108.031-.17.024-.144-.016.052-.083-3.966-.14-4.05-.057C1.038.299.912.29.96.212.983.177.9.162.779.18.488.218.451.445.501 1.87c.034.98.033 1.474-.005 1.893a415.6 415.6 0 00-.01 4.392c.002 2.34-.008 4.782-.023 5.426a34.89 34.89 0 00-.01 1.483c.007.172-.003 1.846-.024 3.72-.02 1.875-.017 3.396.007 3.381.025-.015.035 1.315.022 2.955a189.92 189.92 0 00-.003 3.822c.014.537-.007.84-.057.839-.103-.002-.016 1.06.102 1.254.064.105.061.17-.01.252-.071.084-.094.793-.09 2.872.002 2.01-.02 2.774-.086 2.813-.065.04-.056.196.035.581.07.3.094.565.056.613-.11.14-.04 2.413.08 2.581.104.145 1.211.174 6.28.163h.354l.027-.973c.02-.732 0-1.016-.083-1.145-.1-.156-.095-.175.054-.212.132-.033.151-.075.1-.222-.033-.1-.051-1.55-.039-3.225.03-4.165.036-11.079.008-11.2-.046-.208-.425-.198 7.474-.184 12.456.022 12.667.02 13.018-.11.345-.127.343-.11.312-3.089-.012-1.116-.02-2.298-.02-2.626l.002-.597-.254-.05c-.333-.065-1.475-.08-6.303-.089-2.212-.003-6.256-.016-8.989-.027l-4.968-.02-.132-.209a.81.81 0 01-.12-.411c.008-.112.01-.38.003-.594a11.2 11.2 0 01.027-1.288c.012-.107.005-.652-.017-1.21a74.514 74.514 0 01-.037-1.094l.023-1.132c.011-.58.026-1.598.033-2.264.006-.665.017-1.262.023-1.327a.914.914 0 00-.045-.293c-.042-.134-.021-.19.086-.228a.468.468 0 00.197-.128c.057-.084 2.55-.06 2.811.027.082.027.193.013.248-.031.063-.051.526-.065 1.265-.038.642.023 1.463.016 1.825-.016.362-.032.694-.036.737-.009.132.084 1.53.085 1.566.002.022-.052.035-.052.039 0 .005.072.507.09 2.035.07.28-.004 1.23.01 2.114.029.884.02 1.64.017 1.679-.005.04-.022.23-.03.423-.016.773.053 4.56.093 6.552.07 1.683-.02 2.14-.004 2.236.078.094.08.135.082.18.01.043-.066.354-.086 1.07-.068 1.39.035 1.436.012 1.454-.713.07-2.917.014-5.503-.126-5.722-.105-.164-3.808-.28-4.468-.14-.136.03-.266.021-.29-.017-.022-.039-.35-.064-.728-.057-1.692.033-4.136.007-4.283-.045-.089-.032-.184-.036-.213-.008z" fill="#fff"/><path d="M63.112 29v12h-2.088v-9.984h-4.44V41h-2.088v-9.984h-1.92V29h1.92v-.36c0-3.168 1.752-4.752 5.256-4.752.656 0 1.48.104 2.472.312v1.896c-.976-.128-1.8-.192-2.472-.192-1.088 0-1.888.208-2.4.624-.512.4-.768 1.104-.768 2.112V29h6.528zm9.175-.312c1.408 0 2.536.448 3.384 1.344.848.88 1.272 2.08 1.272 3.6V41h-2.088v-7.248c0-.976-.264-1.728-.792-2.256-.528-.544-1.256-.816-2.184-.816-1.04 0-1.88.328-2.52.984-.64.64-.96 1.632-.96 2.976V41H66.31V29h2.088v1.728c.848-1.36 2.144-2.04 3.888-2.04zM89.793 29h2.088v12h-2.088v-2.064c-1.04 1.584-2.552 2.376-4.536 2.376-1.68 0-3.112-.608-4.296-1.824-1.184-1.232-1.776-2.728-1.776-4.488 0-1.76.592-3.248 1.776-4.464 1.184-1.232 2.616-1.848 4.296-1.848 1.984 0 3.496.792 4.536 2.376V29zm-4.272 10.296c1.216 0 2.232-.408 3.048-1.224.816-.832 1.224-1.856 1.224-3.072s-.408-2.232-1.224-3.048c-.816-.832-1.832-1.248-3.048-1.248-1.2 0-2.208.416-3.024 1.248-.816.816-1.224 1.832-1.224 3.048s.408 2.24 1.224 3.072c.816.816 1.824 1.224 3.024 1.224zm15.5-10.608c1.408 0 2.536.448 3.384 1.344.848.88 1.272 2.08 1.272 3.6V41h-2.088v-7.248c0-.976-.264-1.728-.792-2.256-.528-.544-1.256-.816-2.184-.816-1.04 0-1.88.328-2.52.984-.64.64-.96 1.632-.96 2.976V41h-2.088V29h2.088v1.728c.848-1.36 2.144-2.04 3.888-2.04zm13.211 12.624c-1.808 0-3.312-.6-4.512-1.8-1.2-1.216-1.8-2.72-1.8-4.512 0-1.792.6-3.288 1.8-4.488 1.2-1.216 2.704-1.824 4.512-1.824 1.184 0 2.248.288 3.192.864a5.277 5.277 0 012.112 2.28l-1.752 1.008a3.537 3.537 0 00-1.416-1.536c-.624-.384-1.336-.576-2.136-.576-1.2 0-2.208.408-3.024 1.224-.8.816-1.2 1.832-1.2 3.048 0 1.2.4 2.208 1.2 3.024.816.816 1.824 1.224 3.024 1.224.8 0 1.52-.184 2.16-.552a3.858 3.858 0 001.464-1.536l1.776 1.032c-.512.944-1.248 1.704-2.208 2.28-.96.56-2.024.84-3.192.84zm8.761-5.352c.208 1.072.696 1.904 1.464 2.496.784.592 1.744.888 2.88.888 1.584 0 2.736-.584 3.456-1.752l1.776 1.008c-1.168 1.808-2.928 2.712-5.28 2.712-1.904 0-3.456-.592-4.656-1.776-1.184-1.2-1.776-2.712-1.776-4.536 0-1.808.584-3.312 1.752-4.512 1.168-1.2 2.68-1.8 4.536-1.8 1.76 0 3.192.624 4.296 1.872 1.12 1.232 1.68 2.72 1.68 4.464 0 .304-.024.616-.072.936h-10.056zm4.152-5.304c-1.12 0-2.048.32-2.784.96-.736.624-1.192 1.464-1.368 2.52h8.016c-.176-1.136-.624-2-1.344-2.592-.72-.592-1.56-.888-2.52-.888z" fill="#fff"/></svg>