<svg width="76" height="75" fill="none" xmlns="http://www.w3.org/2000/svg"><path fill-rule="evenodd" clip-rule="evenodd" d="M34.556.655C8.771 3.095-6.762 30.011 4.092 53.442c11.52 24.867 45.44 29.012 62.693 7.66 16.022-19.83 7.674-49.7-16.315-58.38C45.605.963 39.58.18 34.556.656zm5.805.035c22.794 1.624 38.746 23.133 33.647 45.37-3.314 14.448-15.14 25.695-29.676 28.22-2.43.422-3.697.524-6.506.524-22.957 0-40.351-20.486-36.625-43.134C4.297 12.846 21.373-.661 40.36.69zm8.102 17.638c-.243.113-1.039 1.211-1.106 1.528a.847.847 0 01-.136.316c-.268.306-.65.951-.65 1.097a.55.55 0 01-.129.31c-.168.187-.612 1.243-.96 2.287-.154.46-.312.894-.35.964-.039.07-.136.36-.217.645-.143.505-.154.52-.424.605-.625.195-4.815 3.863-5.015 4.39-.03.081-.222.241-.425.356-.204.115-.545.398-.76.63-.214.23-.437.42-.496.42s-.285.17-.503.38l-.555.53c-.275.265-.987-.46-.963-.979.01-.239-.504-1.314-.805-1.682-.66-.805-1.882-.482-3.143.83a6.806 6.806 0 01-.597.56.938.938 0 00-.285.386c-.042.127-.148.263-.238.304-.088.04-.297.237-.462.437-.66.798-1.218 1.264-.861.719a.793.793 0 00.112-.367c0-.108.03-.225.065-.26.059-.061.37-.867.664-1.719.065-.19.157-.422.204-.516.203-.405.473-1.846.405-2.157-.068-.309-.537-.78-.831-.835-.711-.134-1.394.429-3.723 3.07-.689.78-1.3 1.438-1.359 1.46-.059.023-.106.07-.106.107 0 .035-.388.456-.861.935-.628.636-.86.916-.86 1.039 0 .092-.03.167-.068.167-.243 0-.326.56-.096.649.231.088 2.17-1.242 2.706-1.858a2.4 2.4 0 01.423-.386c.103-.063.4-.369.659-.678.808-.966 1.382-1.08 1.15-.231-.06.223-.135.529-.165.68a5.02 5.02 0 01-.164.585c-.633 1.78-.924 3.34-.69 3.698.127.194.71.22 1.118.052.331-.138 2.35-2.233 2.666-2.768a.825.825 0 01.327-.3c.109-.046.325-.233.48-.417.154-.183.308-.334.342-.334.033 0 .262-.154.51-.344.561-.43.713-.438 1.048-.053.139.16.353.387.477.504.122.117.223.268.223.336 0 .395.744 1.365 1.22 1.59.526.25 1.305-.095 2.229-.987.764-.74.734-.74.473.027-.572 1.686-.28 2.423.915 2.313l.655-.06.585-.51c.322-.28.709-.609.86-.73.153-.122.466-.463.697-.758.23-.295.62-.737.864-.983.245-.247.497-.572.56-.723.063-.15.181-.34.262-.42.144-.142.53-.602.696-.83.102-.138.124-.105.31.46.081.245.192.528.247.628.055.102.08.233.058.293-.023.06.027.225.112.367.085.143.215.367.29.5.294.526.715.821 1.43 1.004.246.062.471.156.502.209.087.152.252.109.84-.219.302-.17.659-.362.791-.429a6.69 6.69 0 00.551-.325c.17-.112.391-.24.49-.284a.642.642 0 00.274-.29c.051-.116.154-.22.228-.231.073-.011.184-.11.244-.22.25-.452.507-.346.904.372.074.133.161.288.195.344.033.057.115.243.182.413.067.17.179.362.248.424.07.063.127.148.127.189 0 .147.454.685.698.826.958.554 2.07-.017 4.22-2.167 1.735-1.737 1.882-2.62.262-1.579-.383.246-.775.483-.873.528-.097.044-.176.104-.176.134 0 .093-.775.82-.874.82-.053 0-.185.065-.295.146-.471.349-1.013.142-1.237-.472a9.667 9.667 0 00-.21-.535c-.035-.076-.126-.572-.202-1.102-.075-.53-.172-1.063-.214-1.184-.21-.6-1.565-.81-1.91-.296-.09.132-.232.277-.317.322-.085.045-.338.322-.563.616-1.727 2.26-2.852 2.78-3.528 1.633a15.76 15.76 0 00-.342-.554c-.086-.13-.14-.264-.12-.297.021-.032.004-.208-.037-.39-.315-1.387-.208-2.842.282-3.857.198-.41.364-.85.37-.98.006-.13.051-.25.101-.266.103-.034.42-.677.42-.854 0-.064.09-.25.198-.413.262-.393.491-1.03.491-1.362 0-.148.029-.286.064-.308.035-.022.1-.155.145-.297a5.23 5.23 0 01.213-.54c.073-.156.175-.481.227-.723a4.68 4.68 0 01.207-.7c.204-.475.374-2.114.242-2.328-.066-.107-.658-.14-.857-.047zM23.93 19.827c-.126.03-.264.089-.306.13-.042.043-.176.077-.298.077-.663 0-1.761 1.677-1.87 2.857-.017.19-.072.39-.12.448-.115.133-.383 1.262-.375 1.58.003.134-.043.438-.103.675-.143.566-.073 1.073.152 1.106.166.023.189.106.259.949.023.278.01.56-.03.654-.096.227-.494 4.092-.475 4.623a3.89 3.89 0 01-.067.801c-.127.574-.11 2.648.025 2.908a.623.623 0 01.063.413c-.066.3.095.883.325 1.176l.2.255-.407.502c-1.423 1.76-3.73 5.972-3.73 6.81a.471.471 0 01-.093.262c-.146.172-.755 2.187-.712 2.353.021.082-.02.307-.09.501a8.589 8.589 0 00-.202.629c-.055.21-.164.349-.459.585a7.34 7.34 0 00-.466.396c-.043.048-.412.433-.819.855s-.74.823-.74.891c0 .068-.077.2-.172.296-.205.205-.216.323-.044.48.172.155.355.08 1.066-.434.31-.223.701-.478.871-.565.171-.088.357-.216.414-.285.092-.113.103.027.103 1.34 0 2.157.349 2.678 1.586 2.367.406-.102 1.836-1.765 2.137-2.486.055-.131.129-.239.165-.239.035 0 .24-.219.452-.486.455-.57.516-.575.858-.083.365.527.537.69.926.878.66.32 2.009.147 2.323-.298.05-.07.354-.346.677-.612.323-.266.668-.588.767-.716.233-.3.294-.23.202.227-.093.465-.003 1.663.147 1.952.353.677 1.299 1.084 2.035.876.14-.04.41-.108.6-.152.189-.044.409-.141.489-.216.08-.075.302-.16.495-.191.279-.044.447-.133.82-.435.258-.209.569-.43.69-.494a.819.819 0 00.303-.268c.045-.085.344-.433.665-.774.32-.34.64-.752.71-.913.07-.162.171-.311.225-.332.278-.107.87-1.722.87-2.374 0-1.5-1.745-2.52-3.19-1.865-.534.243-.541.233-.209-.26.347-.515.136-.76-.56-.652-.51.08-1.48.746-1.48 1.016 0 .044-.14.166-.308.273-.17.107-.534.444-.81.75-.275.305-.787.834-1.137 1.174-.35.34-.637.654-.637.696 0 .078-.33.432-1.17 1.255-.903.883-1.689.284-2.07-1.576-.225-1.096-.311-1.183-.967-.971-.508.164-.784.39-.99.808a6.263 6.263 0 01-.31.562c-.076.113-.138.274-.138.358 0 .083-.043.176-.094.206-.052.03-.35.535-.663 1.122-1.373 2.577-1.69 2.602-1.318.105.262-1.76.192-1.618 1.718-3.477.515-.628 1.815-2.365 1.886-2.52.04-.089.2-.298.356-.465.323-.349 1.246-1.842 1.319-2.133a.731.731 0 01.246-.34c.128-.094.199-.209.2-.322 0-.097.088-.305.194-.462.107-.158.312-.622.457-1.033.145-.41.3-.794.347-.85.109-.134.327-.802.349-1.068a2.88 2.88 0 01.158-.585c.587-1.573-.7-2.4-2.087-1.341l-.236.18-.057-.332c-.083-.49-.066-2.281.03-3.188.046-.436.133-1.334.193-1.997s.136-1.391.169-1.618c.116-.805.203-1.453.269-1.997.036-.303.146-.906.244-1.34.097-.435.173-.884.168-.999-.005-.114.087-.462.204-.772.277-.738.453-1.627.629-3.18.199-1.757.147-1.872-.747-1.661zm29.801 2.192c-.364.174-.697.44-.763.614a.226.226 0 01-.223.155c-.388 0-1.217 1.126-1.217 1.652 0 1.005.846 1.257 1.984.592.4-.233.839-.818.839-1.117 0-.065.046-.17.103-.232.108-.12.379-1.082.379-1.349 0-.38-.604-.552-1.102-.315zm-9.327 5.723c-.022.035-.066.337-.098.67-.056.585-.074.632-.505 1.33-.586.95-.765 1.211-1.085 1.583-.874 1.017-1.24 1.466-1.24 1.52 0 .035-.035.063-.077.063-.042 0-.329.267-.637.591-.847.895-1.054.716-.434-.373.158-.277.327-.587.376-.688.137-.284.234-.446.528-.882.15-.222.32-.485.378-.586.059-.1.355-.498.658-.884.303-.385.597-.784.654-.884.056-.1.145-.21.196-.242.182-.116.833-.84.953-1.06.069-.127.176-.224.247-.224.07 0 .108.03.086.066zM23.816 38.814c-.083.445-1.49 3.389-1.925 4.031a1.779 1.779 0 00-.176.293c0 .018-.116.195-.258.393-.142.197-.29.408-.327.469-.038.06-.332.463-.655.895a98.65 98.65 0 00-.987 1.345c-.22.308-.484.64-.586.738l-.186.178.235-.738c.13-.406.386-1.091.57-1.522.185-.43.335-.812.335-.848 0-.036.049-.114.108-.173.08-.08.096-.178.063-.373-.042-.25-.023-.288.324-.662.203-.218.444-.536.535-.707.091-.17.324-.526.518-.791.193-.265.598-.854.898-1.309.949-1.432 1.662-2.007 1.514-1.22zm32.1 5.965c-.277.099-.74.422-.74.517 0 .032-.116.112-.258.18-.545.256-2.11 2.024-1.979 2.236.02.032-.04.134-.132.226-.18.18-.413.848-.516 1.48-.096.588-.176.738-.517.973-.17.117-.335.252-.365.3-.372.591-.971.364-1.473-.558a7.57 7.57 0 00-.373-.633 1.411 1.411 0 01-.166-.359c-.204-.633-1.012-1.259-1.488-1.151-.15.034-.353.078-.452.097-.35.066-1.008.59-1.94 1.544-.976.998-1.076 1.043-.839.385.178-.492.457-2.378.469-3.167.017-1.08.01-1.087-.836-1.026-.835.06-.826.054-2.049 1.37-1.208 1.3-2.508 2.592-2.756 2.74-.084.05-.02-.478.096-.777.036-.095.087-.342.113-.55.026-.21.095-.606.154-.884.346-1.628-.35-2.035-1.716-1.002-.471.356-3.148 3.045-3.15 3.163 0 .04-.16.226-.355.413-1.013.97-1.71 1.729-1.71 1.86 0 .077-.095.232-.21.342-.273.262-.261.537.025.57.194.022.256-.01.77-.398.151-.114.4-.266.55-.337.152-.071.493-.351.758-.623.265-.271.625-.582.8-.691.318-.199.561-.476.667-.762.08-.217.768-.446.866-.288.02.031-.056.347-.168.703-.111.355-.203.72-.203.809 0 .09-.033.226-.075.303-.163.305-.544 1.85-.544 2.206 0 .244.169.33.65.33.45 0 .697-.188 1.442-1.101.231-.284.604-.702.828-.93.224-.227.458-.498.52-.6.218-.357 2.002-2.098 2.473-2.412.763-.51.72.412-.163 3.579-.431 1.544-.347 1.925.41 1.856.387-.035.615-.242 1.362-1.235.215-.285.437-.536.493-.557.057-.022.32-.334.586-.694.327-.443.6-.73.846-.893.2-.133.5-.335.667-.451.512-.357 1.163-.125 1.762.629.584.734.858 1.004 1.236 1.217.2.113.383.256.407.318.117.305 1.452-.217 2.004-.785.407-.42.421-.422.482-.098.096.512.765 1.558 1.056 1.65.064.02.24.104.392.185.247.134.38.15 1.308.15h1.033l.516-.257c.567-.282 1.223-.73 1.318-.9.033-.06.385-.359.782-.664.396-.306.79-.652.876-.77.086-.116.242-.256.346-.31.104-.054.19-.153.19-.22 0-.066.152-.271.34-.456.45-.443.696-.985.51-1.121-.154-.113-.417-.06-.614.124-.078.073-.178.133-.221.133-.044 0-.182.087-.306.194a2.026 2.026 0 01-.467.29 1.752 1.752 0 00-.447.285 40.04 40.04 0 01-.706.61c-.275.233-.5.468-.5.523 0 .063-.056.092-.154.08-.085-.011-.434.12-.775.29-1.079.539-1.879.36-2.306-.516-.326-.67-.163-.975.86-1.611.3-.187 1.181-1.001 1.526-1.41.766-.91.918-1.109.918-1.197 0-.052.082-.266.18-.475.615-1.298-.53-2.486-1.918-1.991zm.017 2.328c0 .395-.207.755-.64 1.11-.223.185-.466.436-.54.56-.119.203-.558.385-.666.277-.18-.18.64-1.303 1.388-1.903.405-.325.458-.33.458-.044zm-24.549 1.25c.583.245.718.842.381 1.694-.112.284-.204.567-.204.629 0 .294-1.361 1.553-2.032 1.879-.744.362-.85.376-1.114.149-.302-.26-.245-1.703.09-2.29.09-.159.164-.368.164-.466 0-.168.015-.176.266-.136.249.04.28.025.499-.248.999-1.242 1.35-1.46 1.95-1.21z" fill="#fff"/><path fill-rule="evenodd" clip-rule="evenodd" d="M35.21.692C13.344 2.316-2.393 22.277 1.208 43.822c2.69 16.095 15.531 28.534 31.696 30.702 1.75.235 2.53.28 4.922.28 20.624 0 37.073-16.45 37.073-37.076 0-21.563-18.285-38.626-39.69-37.036zm14.11 17.683c.132.215-.038 1.854-.242 2.328a4.768 4.768 0 00-.207.7 4.184 4.184 0 01-.227.723 5.32 5.32 0 00-.213.54c-.045.142-.11.276-.145.297-.035.022-.064.16-.064.308 0 .333-.23.969-.49 1.362-.11.163-.199.349-.199.413 0 .177-.317.82-.42.854-.05.017-.095.137-.1.266-.007.13-.173.57-.37.98-.491 1.015-.598 2.47-.283 3.857.041.182.058.358.038.39-.02.034.033.167.12.297.085.13.239.38.341.554.676 1.147 1.8.627 3.528-1.632.225-.295.479-.572.563-.617.085-.045.228-.19.317-.322.345-.514 1.7-.304 1.91.296.042.121.139.654.214 1.184.076.53.167 1.026.202 1.102.036.075.13.317.21.536.224.613.766.82 1.237.471.11-.08.242-.147.295-.147.1 0 .874-.726.874-.82 0-.029.08-.089.176-.133.098-.045.49-.282.873-.528 1.62-1.04 1.473-.158-.263 1.58-2.149 2.15-3.261 2.72-4.22 2.166-.243-.141-.697-.679-.697-.826 0-.04-.057-.126-.127-.188-.07-.063-.18-.254-.248-.425a4.24 4.24 0 00-.182-.413 18.094 18.094 0 01-.195-.344c-.397-.718-.654-.824-.904-.372-.06.11-.17.209-.244.22-.074.01-.176.115-.228.23a.643.643 0 01-.274.291c-.099.044-.32.172-.49.284-.17.113-.418.259-.55.325-.133.067-.49.26-.792.43-.587.327-.752.37-.84.218-.03-.053-.256-.147-.501-.21-.716-.182-1.137-.477-1.431-1.003a27.444 27.444 0 00-.29-.5c-.085-.142-.135-.307-.112-.367.023-.06-.003-.191-.058-.292a5.14 5.14 0 01-.246-.628c-.187-.566-.209-.599-.31-.46a10.73 10.73 0 01-.697.83c-.08.08-.199.268-.262.42-.063.15-.315.475-.56.722a13.31 13.31 0 00-.864.983c-.231.295-.544.636-.696.758-.152.121-.54.45-.86.73l-.586.51-.655.06c-1.196.11-1.487-.626-.915-2.313.26-.768.292-.766-.473-.027-.924.892-1.703 1.238-2.229.988-.476-.226-1.22-1.196-1.22-1.59 0-.068-.1-.22-.223-.336a8.877 8.877 0 01-.477-.505c-.335-.385-.486-.377-1.049.053-.247.19-.476.344-.51.344-.033 0-.187.15-.341.335-.155.183-.371.37-.48.416a.825.825 0 00-.327.3c-.316.535-2.335 2.63-2.666 2.768-.408.169-.991.142-1.118-.051-.234-.358.057-1.918.69-3.698.06-.171.135-.434.165-.586.03-.151.104-.457.164-.68.232-.85-.342-.734-1.15.23-.26.31-.556.616-.659.68a2.404 2.404 0 00-.423.385c-.537.616-2.475 1.946-2.706 1.858-.23-.089-.147-.648.096-.648.037 0 .068-.076.068-.168 0-.122.232-.403.86-1.039.473-.478.86-.9.86-.935 0-.036.049-.084.107-.106.059-.023.67-.68 1.36-1.461 2.328-2.64 3.01-3.204 3.722-3.07.294.055.763.526.83.835.07.311-.201 1.752-.404 2.157a5.32 5.32 0 00-.204.517c-.294.85-.605 1.657-.664 1.717-.036.036-.065.153-.065.26 0 .108-.05.273-.112.368-.357.545.2.08.86-.719.167-.2.375-.397.464-.437.089-.04.195-.177.237-.303a.94.94 0 01.285-.386c.115-.086.383-.338.597-.56 1.261-1.313 2.483-1.636 3.143-.83.301.367.816 1.442.805 1.681-.024.52.688 1.244.964.98l.554-.532c.218-.208.444-.38.503-.38.06 0 .282-.188.497-.42.214-.23.555-.514.759-.629.203-.115.394-.274.425-.355.2-.528 4.39-4.195 5.015-4.39.27-.085.282-.101.424-.606a5.1 5.1 0 01.217-.645 13.1 13.1 0 00.35-.964c.348-1.043.792-2.1.96-2.287a.55.55 0 00.128-.31c0-.146.383-.791.651-1.097a.846.846 0 00.136-.316c.067-.317.863-1.415 1.106-1.528.2-.092.79-.06.857.047zm-24.578 1.617c.166.503-.296 3.614-.695 4.676-.117.31-.208.658-.204.772.005.115-.07.564-.168.999a16.914 16.914 0 00-.244 1.34 93.34 93.34 0 01-.269 1.997c-.032.227-.108.956-.169 1.618-.06.663-.147 1.561-.193 1.997-.096.907-.113 2.699-.03 3.188l.057.332.236-.18c1.387-1.058 2.674-.231 2.087 1.341a2.918 2.918 0 00-.158.586c-.022.265-.24.933-.349 1.067-.046.056-.202.44-.347.85-.145.41-.35.875-.456 1.033-.107.157-.195.365-.195.462-.001.113-.072.228-.2.323a.73.73 0 00-.246.34c-.073.29-.996 1.784-1.319 2.132-.155.167-.316.377-.356.465-.07.155-1.37 1.893-1.886 2.52-1.526 1.859-1.456 1.718-1.718 3.477-.371 2.498-.055 2.472 1.318-.104.313-.587.611-1.093.663-1.123.051-.03.093-.123.094-.206 0-.084.062-.244.137-.358a5.91 5.91 0 00.311-.562c.206-.419.482-.644.99-.808.656-.212.742-.125.967.97.381 1.862 1.167 2.46 2.07 1.577.84-.823 1.17-1.177 1.17-1.255 0-.042.287-.355.637-.695.35-.341.862-.87 1.138-1.175.275-.305.64-.643.809-.75.169-.107.307-.23.307-.273 0-.27.971-.936 1.48-1.016.697-.108.908.137.561.652-.332.494-.325.503.21.26 1.444-.655 3.189.365 3.189 1.865 0 .652-.592 2.267-.87 2.374-.054.02-.155.17-.225.332-.07.161-.39.573-.71.914-.32.34-.62.689-.665.773a.818.818 0 01-.303.269 6.073 6.073 0 00-.69.493c-.373.302-.541.39-.82.435-.193.03-.415.117-.495.191-.08.075-.3.172-.49.216-.189.044-.458.113-.599.152-.736.208-1.682-.199-2.035-.876-.15-.288-.24-1.486-.147-1.951.093-.458.031-.527-.202-.227-.099.127-.444.45-.767.715-.323.266-.628.541-.677.612-.314.445-1.663.619-2.323.299-.389-.189-.561-.352-.926-.878-.341-.493-.403-.487-.858.082-.213.268-.416.486-.452.486-.036 0-.11.108-.165.24-.301.72-1.73 2.383-2.137 2.485-1.237.31-1.586-.21-1.586-2.367 0-1.313-.01-1.453-.103-1.34-.057.07-.243.197-.413.285a9.14 9.14 0 00-.872.565c-.711.515-.894.589-1.066.433-.172-.155-.161-.274.044-.48.095-.094.172-.227.172-.295 0-.067.334-.468.74-.89.408-.423.776-.808.82-.855.043-.048.253-.227.465-.397.295-.236.404-.375.46-.585.04-.152.13-.434.2-.629.072-.194.112-.419.091-.5-.043-.167.566-2.182.712-2.353a.471.471 0 00.093-.263c0-.838 2.307-5.05 3.73-6.81l.407-.502-.2-.255c-.23-.292-.39-.876-.325-1.176a.623.623 0 00-.063-.413c-.134-.26-.152-2.334-.025-2.908.045-.204.075-.564.067-.801-.019-.53.379-4.396.475-4.623.04-.094.053-.376.03-.654-.07-.843-.093-.925-.26-.95-.224-.032-.293-.539-.15-1.105.059-.237.105-.54.102-.675-.008-.318.26-1.447.374-1.58.05-.057.104-.258.121-.448.109-1.18 1.207-2.857 1.87-2.857.122 0 .256-.034.298-.076.276-.276 1.024-.254 1.12.034zm29.908 2.044c.1.079.182.212.182.299 0 .266-.27 1.228-.379 1.348a.414.414 0 00-.103.232c0 .3-.44.884-.84 1.118-1.137.664-1.983.412-1.983-.593 0-.526.83-1.652 1.217-1.652a.226.226 0 00.223-.155c.2-.521 1.289-.907 1.683-.597zM44.07 27.9c-.12.22-.77.945-.953 1.06a.828.828 0 00-.196.242c-.057.1-.351.499-.654.884-.303.386-.599.784-.658.884-.058.101-.229.364-.378.586-.294.436-.39.598-.528.882-.049.101-.218.411-.376.689-.62 1.088-.413 1.267.434.373.308-.325.595-.591.637-.591.042 0 .077-.028.077-.063 0-.055.366-.504 1.24-1.52.32-.372.499-.634 1.085-1.584.43-.698.449-.745.505-1.33.032-.332.076-.634.098-.67.023-.036-.016-.066-.085-.066-.072 0-.18.097-.248.224zM23.243 38.8c-.216.224-.64.78-.94 1.234a43.8 43.8 0 01-.9 1.308 8.605 8.605 0 00-.517.792c-.091.17-.332.488-.534.706-.348.374-.367.413-.325.662.033.195.017.294-.063.373-.059.059-.107.137-.107.173 0 .036-.151.418-.335.848a20 20 0 00-.57 1.522l-.236.738.186-.177c.102-.098.366-.43.586-.74a98.6 98.6 0 01.987-1.344c.323-.431.617-.834.655-.895.038-.061.185-.272.327-.47.142-.197.258-.373.258-.392 0-.019.08-.15.176-.293.436-.642 1.842-3.586 1.925-4.031.09-.474-.122-.48-.573-.014zm33.958 5.993c.704.226 1.01 1.181.634 1.977-.1.21-.18.423-.18.475 0 .088-.153.287-.919 1.197-.344.41-1.225 1.223-1.525 1.41-1.024.636-1.187.942-.86 1.611.426.877 1.227 1.055 2.305.516.341-.17.69-.301.775-.29.098.012.155-.017.155-.08 0-.055.224-.29.499-.523.274-.233.592-.507.706-.61a1.78 1.78 0 01.447-.285c.133-.053.343-.183.467-.29.125-.107.262-.194.306-.194.043 0 .143-.06.221-.133.197-.184.46-.237.614-.124.186.136-.06.678-.51 1.121-.188.185-.34.39-.34.457 0 .066-.086.165-.19.22a1.23 1.23 0 00-.346.31c-.085.117-.48.463-.876.769-.397.306-.749.605-.782.665-.095.17-.75.617-1.318.899l-.516.256h-1.033c-.928 0-1.06-.014-1.308-.148a3.372 3.372 0 00-.392-.186c-.29-.092-.96-1.137-1.056-1.65-.06-.324-.075-.321-.482.098-.552.568-1.887 1.09-2.004.785-.024-.062-.207-.205-.407-.318-.378-.213-.652-.483-1.236-1.217-.6-.754-1.25-.986-1.762-.63-.167.117-.467.32-.667.452-.246.162-.519.45-.846.894-.266.36-.53.671-.586.693-.056.022-.278.273-.492.557-.747.993-.976 1.2-1.363 1.235-.757.07-.841-.312-.41-1.856.884-3.167.926-4.088.163-3.579-.47.314-2.255 2.055-2.473 2.413-.062.102-.296.372-.52.6a16.38 16.38 0 00-.828.929c-.745.913-.991 1.1-1.441 1.1-.482 0-.651-.085-.651-.329 0-.355.381-1.901.544-2.206a.764.764 0 00.075-.303c0-.09.092-.454.203-.81.112-.355.187-.67.168-.702-.098-.157-.786.071-.866.288-.106.286-.349.564-.667.762-.175.109-.535.42-.8.692-.265.271-.606.551-.757.622-.151.071-.4.223-.551.337-.514.389-.576.42-.77.398-.286-.033-.298-.308-.025-.57.115-.11.21-.265.21-.343 0-.13.697-.888 1.71-1.859.196-.187.355-.372.356-.413 0-.117 2.678-2.807 3.149-3.163 1.365-1.033 2.063-.625 1.716 1.002-.059.278-.128.675-.154.883a3.108 3.108 0 01-.113.551c-.115.3-.18.826-.096.776.248-.146 1.548-1.438 2.756-2.739 1.224-1.316 1.214-1.31 2.049-1.37.846-.061.853-.053.836 1.026-.012.789-.291 2.675-.468 3.168-.237.657-.138.612.837-.386.933-.953 1.592-1.477 1.941-1.544.099-.02.303-.063.453-.097.475-.108 1.284.518 1.487 1.151.045.14.12.302.166.36.047.056.214.34.373.632.502.922 1.101 1.15 1.473.558.03-.047.194-.182.365-.3.341-.235.421-.385.517-.972.103-.633.336-1.3.517-1.48.092-.093.151-.195.132-.227-.131-.212 1.433-1.98 1.978-2.237.142-.067.258-.147.258-.179 0-.416 1.292-.738 2.025-.503zm-1.726 2.358c-.748.6-1.567 1.723-1.388 1.903.108.109.547-.074.667-.277.073-.123.316-.375.54-.56.432-.355.64-.715.64-1.11 0-.286-.054-.28-.46.044zm-24.847 1.201c-.196.076-.646.534-1.194 1.216-.22.273-.25.288-.5.248-.25-.04-.265-.032-.265.136 0 .098-.074.307-.164.465-.334.588-.392 2.032-.09 2.29.264.228.37.214 1.114-.148.67-.326 2.032-1.584 2.032-1.879 0-.062.092-.345.204-.629.467-1.18-.138-2.083-1.137-1.699z" fill="#080808"/></svg>