<svg width="857" height="216" fill="none" xmlns="http://www.w3.org/2000/svg"><path d="M166.136 62.968c16.704 0 29.856 5.376 39.456 16.128 9.792 10.56 14.688 25.152 14.688 43.776V211h-48.096v-82.656c0-13.44-5.952-20.16-17.856-20.16-6.528 0-11.52 2.208-14.976 6.624-3.264 4.224-4.896 10.08-4.896 17.568V211H86.648v-82.656c0-13.44-6.048-20.16-18.144-20.16-6.528 0-11.52 2.208-14.976 6.624-3.264 4.224-4.896 10.08-4.896 17.568V211H.824V67h47.808v13.536c8.832-11.712 21.792-17.568 38.88-17.568 16.512 0 28.8 6.144 36.864 18.432 9.984-12.288 23.904-18.432 41.76-18.432zM347.457 67h47.808v144h-47.808v-13.248c-9.792 11.52-23.424 17.28-40.896 17.28-19.2 0-35.328-7.2-48.384-21.6-12.864-14.592-19.296-32.736-19.296-54.432 0-21.696 6.432-39.744 19.296-54.144 13.056-14.592 29.184-21.888 48.384-21.888 17.472 0 31.104 5.76 40.896 17.28V67zm-52.128 94.752c5.568 5.76 12.864 8.64 21.888 8.64 9.024 0 16.32-2.88 21.888-8.64 5.568-5.76 8.352-13.344 8.352-22.752s-2.784-16.992-8.352-22.752c-5.568-5.76-12.864-8.64-21.888-8.64-9.024 0-16.32 2.88-21.888 8.64-5.568 5.76-8.352 13.344-8.352 22.752s2.784 16.992 8.352 22.752zM565.252 211h-53.568l-40.896-61.344V211H422.98V9.4h47.808v117.792L507.94 67h55.296l-48.384 72 50.4 72zm47.165-54.432c4.8 11.712 15.552 17.568 32.256 17.568 10.368 0 19.104-3.36 26.208-10.08l34.56 24.192c-14.208 17.856-34.848 26.784-61.92 26.784-24.384 0-43.968-7.104-58.752-21.312-14.592-14.4-21.888-32.544-21.888-54.432 0-21.696 7.2-39.84 21.6-54.432 14.4-14.592 32.736-21.888 55.008-21.888 21.504 0 39.264 7.2 53.28 21.6 14.016 14.4 21.024 32.448 21.024 54.144 0 6.336-.672 12.288-2.016 17.856h-99.36zm-.576-33.12h55.296c-3.84-13.44-12.864-20.16-27.072-20.16-14.784 0-24.192 6.72-28.224 20.16zm230.933-76.32c-5.376 5.376-11.808 8.064-19.296 8.064-7.488 0-14.016-2.688-19.584-8.064-5.376-5.568-8.064-12.096-8.064-19.584 0-7.488 2.688-13.92 8.064-19.296C809.462 2.872 815.99.184 823.478.184c7.488 0 13.92 2.688 19.296 8.064 5.568 5.376 8.352 11.808 8.352 19.296 0 7.488-2.784 14.016-8.352 19.584zM799.574 211V67h47.808v144h-47.808zm164.655-98.208h-29.952v41.76c0 6.336 2.304 10.272 6.912 11.808 4.608 1.536 12.288 2.016 23.04 1.44V211c-28.608 3.456-48.768.864-60.48-7.776-11.52-8.832-17.28-24.672-17.28-47.52v-42.912h-21.6V67h21.6V41.08l47.808-14.4V67h29.952v45.792z" fill="#fff" fill-opacity=".025"/></svg>