<svg width="329" height="109" fill="none" xmlns="http://www.w3.org/2000/svg"><path d="M83.568 31.984c8.352 0 14.928 2.688 19.728 8.064 4.896 5.28 7.344 12.576 7.344 21.888V106H86.592V64.672c0-6.72-2.976-10.08-8.928-10.08-3.264 0-5.76 1.104-7.488 3.312-1.632 2.112-2.448 5.04-2.448 8.784V106H43.824V64.672c0-6.72-3.024-10.08-9.072-10.08-3.264 0-5.76 1.104-7.488 3.312-1.632 2.112-2.448 5.04-2.448 8.784V106H.912V34h23.904v6.768c4.416-5.856 10.896-8.784 19.44-8.784 8.256 0 14.4 3.072 18.432 9.216 4.992-6.144 11.952-9.216 20.88-9.216zM174.228 34h23.904v72h-23.904v-6.624c-4.896 5.76-11.712 8.64-20.448 8.64-9.6 0-17.664-3.6-24.192-10.8-6.432-7.296-9.648-16.368-9.648-27.216 0-10.848 3.216-19.872 9.648-27.072 6.528-7.296 14.592-10.944 24.192-10.944 8.736 0 15.552 2.88 20.448 8.64V34zm-26.064 47.376c2.784 2.88 6.432 4.32 10.944 4.32 4.512 0 8.16-1.44 10.944-4.32 2.784-2.88 4.176-6.672 4.176-11.376s-1.392-8.496-4.176-11.376c-2.784-2.88-6.432-4.32-10.944-4.32-4.512 0-8.16 1.44-10.944 4.32-2.784 2.88-4.176 6.672-4.176 11.376s1.392 8.496 4.176 11.376zM283.126 106h-26.784l-20.448-30.672V106H211.99V5.2h23.904v58.896L254.47 34h27.648l-24.192 36 25.2 36zm23.582-27.216c2.4 5.856 7.776 8.784 16.128 8.784 5.184 0 9.552-1.68 13.104-5.04l17.28 12.096c-7.104 8.928-17.424 13.392-30.96 13.392-12.192 0-21.984-3.552-29.376-10.656-7.296-7.2-10.944-16.272-10.944-27.216 0-10.848 3.6-19.92 10.8-27.216 7.2-7.296 16.368-10.944 27.504-10.944 10.752 0 19.632 3.6 26.64 10.8 7.008 7.2 10.512 16.224 10.512 27.072 0 3.168-.336 6.144-1.008 8.928h-49.68zm-.288-16.56h27.648c-1.92-6.72-6.432-10.08-13.536-10.08-7.392 0-12.096 3.36-14.112 10.08zm115.467-38.16c-2.688 2.688-5.904 4.032-9.648 4.032-3.744 0-7.008-1.344-9.792-4.032-2.688-2.784-4.032-6.048-4.032-9.792 0-3.744 1.344-6.96 4.032-9.648 2.784-2.688 6.048-4.032 9.792-4.032 3.744 0 6.96 1.344 9.648 4.032 2.784 2.688 4.176 5.904 4.176 9.648 0 3.744-1.392 7.008-4.176 9.792zM400.287 106V34h23.904v72h-23.904zm82.328-49.104h-14.976v20.88c0 3.168 1.152 5.136 3.456 5.904 2.304.768 6.144 1.008 11.52.72V106c-14.304 1.728-24.384.432-30.24-3.888-5.76-4.416-8.64-12.336-8.64-23.76V56.896h-10.8V34h10.8V21.04l23.904-7.2V34h14.976v22.896z" fill="#fff" fill-opacity=".025"/></svg>