<svg width="175" height="50" fill="none" xmlns="http://www.w3.org/2000/svg"><path d="M5.658 15.154c.354-1.713.698-3.15.766-3.192a.543.543 0 01.173-.079c.028 0 .699 1.035 1.49 2.301 2.156 3.445 3.094 4.937 6.216 9.877 1.565 2.478 3.85 6.132 5.075 8.12 1.227 1.987 2.432 3.94 2.68 4.338.565.91-.226 1.948 5.348-7.012 3.462-5.564 6.662-10.9 9.247-15.418 1.115-1.949 1.608-2.607 1.608-2.146 0 .033 1.595 6.916 3.546 15.295a5340.87 5340.87 0 013.546 15.287c0 .029-1.325.052-2.945.052h-2.945l-.05-.223c-.151-.663-.807-3.684-1.15-5.298-.217-1.02-.487-2.279-.6-2.796-.115-.518-.482-2.233-.818-3.812-.759-3.573-.734-3.53-1.39-2.402-2.153 3.705-6.61 11.16-7.858 13.145-4.157 6.609-5.063 8.014-5.12 7.949-.23-.262-10.12-15.873-12.014-18.963-1.29-2.105-1.573-2.433-1.708-1.982a87.424 87.424 0 00-.461 2.302 845.777 845.777 0 01-.793 4.06c-.21 1.062-.64 3.256-.955 4.876l-.572 2.946H0l.051-.223c.028-.122.344-1.648.703-3.39.934-4.544 1.33-6.446 1.494-7.18.08-.354.594-2.827 1.144-5.495.55-2.669 1.14-5.52 1.312-6.337.171-.817.6-2.887.954-4.6z" fill="#202020" fill-opacity=".15"/><path fill-rule="evenodd" clip-rule="evenodd" d="M5.498.036c0 .02.673 1.207 1.495 2.639l.266.463C8.177 4.73 8.45 5.207 8.323 5.37c-.054.069-.18.082-.36.1l-.124.013a51.8 51.8 0 00-1.288.173l-.728.107 1.692 2.738c.931 1.506 1.727 2.772 1.768 2.814.042.043.533.009 1.091-.074l.276-.042c.613-.093.902-.137 1.11-.029.186.097.31.313.54.722l.118.206.085.146c.28.487.42.73.35.867-.068.137-.345.17-.896.236l-.166.02-.015.002c-.73.089-1.044.127-1.104.27-.044.11.058.279.238.576l.005.008c.192.32.802 1.34 1.355 2.271l1.006 1.691.98-.128.298-.04c.643-.086.936-.125 1.145-.01.174.095.29.299.5.673l.118.207.1.175c.247.428.374.648.312.775-.065.134-.34.167-.901.234l-.217.026c-.563.069-1.024.147-1.024.174 0 .027.529.94 1.174 2.028l1.174 1.978.7-.076c.383-.042.92-.079 1.192-.083l.493-.008 1.455 2.532c.8 1.392 1.524 2.635 1.609 2.762.153.227.166.211.845-.997a484.92 484.92 0 011.917-3.356l1.225-2.129 1.21-.099 1.211-.099 1.3-2.208c.715-1.214 1.275-2.232 1.245-2.262-.03-.03-.463.001-.962.069-.08.01-.155.021-.224.031-.38.054-.588.084-.647.003-.072-.096.073-.353.39-.919l.156-.277.67-1.2 1.098-.12 1.099-.12 1.598-2.725a189.151 189.151 0 001.632-2.813c.02-.05-.44-.06-1.073-.021-.61.037-1.108.04-1.108.007 0-.26 1.447-2.348 1.633-2.355.118-.005.639-.06 1.158-.124l.943-.115 1.973-3.364C40.758 2.361 41.637.839 41.626.83c-.01-.01-.626.085-1.367.21-1.4.235-1.492.237-1.33.027.053-.07.218-.338.367-.597l.272-.47H22.533C13.163 0 5.498.016 5.498.036zm30.366 4.222c.509-.953 1.057-1.967 1.219-2.253l.294-.52-.233.013a9.89 9.89 0 00-.731.089c-.275.042-1.196.17-2.048.285-1.832.246-3.798.515-5.794.792-1.953.27-3.85.53-6.892.942-4.287.582-6.122.845-6.163.887-.022.022.138.635.357 1.363.219.727.586 1.976.818 2.775.232.799.45 1.5.487 1.558.046.073.477.046 1.41-.088.739-.106 2.04-.282 2.892-.392.851-.11 2.2-.291 2.996-.402.797-.112 2.123-.293 2.947-.404 1.328-.178 2.212-.299 5.044-.691a9.09 9.09 0 01.496-.054c.25-.023.429-.04.587-.106.4-.17.663-.668 1.592-2.43.205-.39.443-.841.722-1.364zm-3.297 6.185c0 .026-.634 1.31-1.41 2.853l-1.41 2.807-3.46.428-5.257.653c-.989.123-1.813.21-1.832.192-.043-.042-1.243-3.988-1.427-4.696-.037-.142.443-.22 8.204-1.345l.084-.012 2.063-.3 1.003-.154.146-.022c2.437-.374 3.296-.479 3.296-.404zm-5.38 10.395c.597-1.212 1.085-2.232 1.085-2.266 0-.085-.556-.047-1.648.113-.494.072-1.439.196-2.098.275-.659.08-1.715.214-2.347.3-.632.085-1.43.19-1.772.232-.342.043-.643.098-.668.123-.025.025.218.957.54 2.072l.586 2.027.382-.026c.41-.028 1.873-.219 3.717-.483l1.137-.164 1.085-2.203zm83.494-3.516a4617.4 4617.4 0 00-5.123 11.614 669.435 669.435 0 01-1.438 3.255c-.132.292-.24.548-.24.57 0 .123 2.297.023 2.428-.107.08-.079.535-1.115 1.011-2.302 1.101-2.741.776-2.505 3.449-2.505 2.59 0 2.296-.171 3.061 1.782.305.777.72 1.797.923 2.266l.367.853 1.226.028 1.225.028-.139-.325-2.039-4.78c-5.256-12.321-4.541-10.745-4.711-10.377zm39.447.132c-5.53.723-8.764 5.71-6.878 10.605 2.474 6.418 11.969 6.814 15.065.63 2.737-5.468-2.051-12.038-8.187-11.235zm-75.82 5.8l-2.737 5.72-2.813-5.634c-1.547-3.1-2.853-5.648-2.902-5.665-.05-.016-.33 1.186-.622 2.67l-.913 4.63-.938 4.729c-.306 1.538-.556 2.864-.556 2.945 0 .122.176.149.986.149 1.083 0 1.147-.031 1.24-.595.087-.52.648-3.576.865-4.703.104-.544.313-1.647.462-2.45.318-1.703.303-1.689.769-.693.485 1.037 4.362 8.963 4.405 9.006.019.019.654-1.293 1.412-2.915l1.82-3.888c.245-.518.67-1.431.945-2.03.643-1.402.623-1.39.822-.427l.951 4.61c.43 2.084.837 3.855.905 3.937.2.239 2.13.215 2.061-.026-.087-.304-.314-1.326-2.005-9.035a253.32 253.32 0 00-.653-2.92 83.909 83.909 0 01-.364-1.634c-.146-.681-.296-1.297-.334-1.37-.041-.077-1.183 2.197-2.806 5.59zm88.306 1.915v7.629h2.198l.001-4.976.002-4.976 1.873 1.882c1.03 1.034 3.321 3.352 5.092 5.149l3.219 3.267v-7.698l.001-7.699h-2.197l-.004 5.025-.003 5.025-1.37-1.39a5298.65 5298.65 0 01-4.961-5.05c-1.975-2.013-3.65-3.695-3.721-3.738-.106-.065-.13 1.318-.13 7.55zm-79.21.104v7.525h8.689v-1.882H85.6v-4.852h5.894v-1.88h-5.893V19.63l2.921-.026 2.922-.026.029-.916.029-.916h-8.099v7.526zm11.487-6.585v.94h2.696v13.17h2.198v-13.17h2.697v-1.88H94.89v.94zm24.072 0v.94h2.697v13.17h2.198V19.634l1.323-.027 1.324-.028.028-.916.029-.916h-7.599v.941zm10.613 6.552l.025 7.508 1.073.028 1.072.028.026-3.314.027-3.314 2.773 3.097c1.525 1.703 2.878 3.194 3.006 3.314.219.203.314.215 1.468.19l1.234-.029-1.194-1.345a8399.5 8399.5 0 00-2.929-3.298c-.954-1.073-1.715-1.97-1.691-1.994.023-.024.384-.107.8-.186 4.207-.798 4.786-6.502.803-7.912-.519-.184-.86-.208-3.547-.243l-2.972-.038.026 7.508zm22.788-5.76c3.183.823 4.986 3.824 4.3 7.158-.577 2.803-2.8 4.576-5.737 4.576-7.213 0-8.131-10.356-1.049-11.818.493-.102 1.956-.052 2.486.085zm-18.767.192c2.381.1 3.138.724 3.024 2.49-.102 1.571-.707 1.957-3.149 2.006l-1.723.035v-4.66l.325.038c.178.022.864.063 1.523.09zm-21.994 4.365l.742 1.879-1.549.028c-.852.015-1.565.012-1.583-.006-.032-.032 1.387-3.539 1.515-3.745.093-.148.065-.205.875 1.844z" fill="#202020" fill-opacity=".15"/></svg>